<svg width="40" height="41" viewBox="0 0 40 41" fill="none" xmlns="http://www.w3.org/2000/svg">
<path d="M21.1387 31.4753C21.1387 31.4755 21.1366 31.4772 21.1325 31.48C21.1367 31.4766 21.1387 31.4752 21.1387 31.4753ZM11.3903 7.19915C12.1047 6.42276 12.9091 5.54857 13.8628 4.48901C15.8736 2.47945 17.1807 1.30712 18.3284 0.795963C18.8826 0.549136 19.3899 0.462623 19.9202 0.514401C20.4358 0.564746 21.0005 0.748522 21.6769 1.08783C23.3666 3.24813 22.3727 5.53422 21.5698 6.88972C21.1201 7.64888 20.747 8.37612 20.5398 8.95627C20.438 9.24141 20.3626 9.52776 20.3556 9.78091C20.349 10.0176 20.4042 10.3968 20.7661 10.5883L21.0864 10.7577L21.3471 10.5062C21.8498 10.0213 22.2907 9.56125 22.7015 9.13255C24.2421 7.52494 25.3604 6.35799 27.7344 5.97197C28.9466 5.77597 29.9589 6.05189 30.6857 6.95996C31.0608 7.45015 31.2731 7.99618 31.2731 8.60743C31.2731 8.79286 31.1935 9.21999 31.0598 9.68269C30.9955 9.90494 30.9236 10.1183 30.8523 10.2947C30.7764 10.4824 30.716 10.5908 30.6844 10.6314L30.6646 10.657L30.6482 10.685C30.1002 11.6193 29.9465 11.8502 29.5304 12.4755C29.3148 12.7995 29.0287 13.2293 28.5809 13.9176C28.5661 13.9403 28.5459 13.973 28.5277 14.011C28.5135 14.0403 28.4775 14.1184 28.4709 14.2217C28.4626 14.3504 28.5032 14.5444 28.6832 14.6744C28.8203 14.7734 28.9613 14.7743 29.0052 14.7737C29.1043 14.7722 29.1976 14.7436 29.2378 14.7312L29.2383 14.7311C29.2948 14.7138 29.361 14.6905 29.4312 14.665C29.4736 14.6497 29.5205 14.6325 29.5724 14.6135C29.8685 14.5048 30.3252 14.3373 31.0098 14.1266C32.5651 13.6478 33.6158 13.7538 34.4695 14.5384C35.3152 15.3154 35.4859 16.8298 34.8979 17.87C34.6839 18.2154 34.4047 18.5987 34.1483 18.9507C34.0823 19.0413 34.0178 19.1299 33.9563 19.2152C33.813 19.414 33.6762 19.6087 33.5916 19.7572C33.5581 19.8161 33.4935 19.9326 33.4716 20.0607C33.4621 20.116 33.4361 20.3047 33.5696 20.4816C33.6795 20.6273 33.8238 20.6743 33.9317 20.6866C33.9346 20.6872 33.9377 20.6878 33.9409 20.6884C33.9503 20.6902 33.9609 20.6922 33.9726 20.6943C34.0161 20.7022 34.0772 20.7125 34.1431 20.7205C34.2057 20.7282 34.2883 20.7359 34.3699 20.7342C34.4102 20.7333 34.4656 20.7299 34.5254 20.7171C34.5741 20.7067 34.6882 20.6778 34.7927 20.5851C35.7695 19.7189 37.0172 19.5385 38.1667 20.1286C38.6381 20.4022 39.0084 20.8951 39.2891 21.4501C39.49 22.0265 39.5985 22.7231 39.3786 23.227L39.3752 23.2347L39.372 23.2426C37.928 26.8835 36.8777 30.7 36.2649 34.5611L36.2648 34.5616C36.168 35.1761 35.6226 35.7671 35.0099 36.1774C34.4243 36.5558 33.6234 36.6112 32.8764 36.4541C32.2461 36.3127 31.5833 35.8018 31.2576 35.2244C31.0076 34.757 30.9292 34.2825 30.9292 33.7268V32.384L30.0509 33.3998C29.4809 34.0591 28.9556 34.7173 28.4372 35.3669L28.4343 35.3706L28.4208 35.3875L28.4087 35.4056C28.3829 35.4444 28.3469 35.4885 28.2889 35.5584L28.2826 35.5659C28.2326 35.626 28.1637 35.7089 28.1053 35.7967L28.0216 35.9225V35.9387C27.9342 36.0578 27.8391 36.1793 27.7379 36.3084L27.7343 36.313C27.6202 36.4586 27.4982 36.6142 27.3854 36.7718C26.8572 37.4347 26.3743 38.1387 25.9033 38.8255L25.9009 38.829C25.1359 39.9002 23.99 40.4014 22.7404 40.1067L22.7404 40.1066L22.7296 40.1043C21.5801 39.8598 20.779 38.6719 20.7409 37.4487L20.7408 37.4461C20.6551 35.084 20.721 33.5302 21.4726 31.3535L21.5 31.2742V31.1903C21.5 31.1104 21.4944 30.9432 21.3962 30.7908C21.3373 30.6993 21.2418 30.6093 21.1058 30.5637C20.9761 30.5204 20.8589 30.5339 20.7794 30.5552C20.6384 30.5929 20.5333 30.6768 20.4813 30.7211C20.4172 30.7757 20.356 30.8396 20.3013 30.901C20.1556 31.0647 19.9753 31.3067 19.8135 31.5238C19.7472 31.6128 19.6841 31.6975 19.6277 31.7709L19.5244 31.9056V31.9162C19.4256 32.0289 19.3378 32.1612 19.2735 32.2581L19.2656 32.2698C19.1607 32.4171 19.0451 32.5751 18.9272 32.7362L18.9262 32.7376C18.8083 32.8987 18.6882 33.0629 18.5785 33.2169C18.0957 33.8769 17.6576 34.5357 17.2265 35.184L17.2259 35.1849C17.2255 35.1854 17.2251 35.186 17.2247 35.1866C16.5089 36.2427 15.3269 36.7526 14.0697 36.4561L14.0688 36.4559C13.5496 36.3345 13.046 35.9869 12.6688 35.5047C12.2917 35.0228 12.0705 34.444 12.0705 33.9006V32.0776L11.1405 33.6455C10.6631 34.4504 10.1966 35.2442 9.73079 36.0369L9.73043 36.0376C9.26513 36.8294 8.80042 37.6203 8.32503 38.4218C7.67079 39.4746 6.42781 39.9333 5.1805 39.6716C4.64006 39.5334 4.16652 39.1507 3.76945 38.6756C3.39943 38.178 3.11822 37.5809 3.17926 37.0915L3.17977 37.0871C3.52441 34.1074 4.04041 31.136 4.85512 28.2127C5.11394 27.3047 5.37178 26.4433 5.67203 25.5404L6.15429 24.0901L4.90809 24.9749C4.02613 25.6012 2.84098 25.6811 1.83154 25.1571C0.552141 24.479 0.120511 22.6368 0.859952 21.3767C1.85058 19.6929 2.92776 18.0083 4.09163 16.3231L4.09238 16.322C7.31832 11.6244 8.73066 10.0895 11.3903 7.19915ZM21.3565 9.85162C21.3565 9.85171 21.3562 9.8502 21.3558 9.8468C21.3564 9.84982 21.3566 9.85153 21.3565 9.85162ZM28.9227 13.7813C28.9227 13.7812 28.9243 13.7808 28.9273 13.7802C28.9242 13.781 28.9228 13.7813 28.9227 13.7813Z" fill="white" stroke="#DADADA"/>
</svg>
