<svg width="40" height="42" viewBox="0 0 40 42" fill="none" xmlns="http://www.w3.org/2000/svg">
<path d="M39.7501 22.5637C39.4466 21.9553 39.0131 21.3468 38.4062 20.9992C37.0622 20.3038 35.5882 20.5211 34.461 21.5207C33.5 22 34.0754 21.3785 34 21.5C34.5636 20.5874 34.7645 20.3473 35.3281 19.4346C36.0217 18.2178 35.8483 16.436 34.8078 15.4799C33.7674 14.5238 32.1199 14.1761 30.8627 14.9584C29.6054 15.7406 29.5 15.5 29 15.5C30.3006 13.5009 30.2399 13.6791 31.0795 12.2476C31.3829 11.8565 31.7731 10.4386 31.7731 9.91712C31.7731 9.17831 31.513 8.52643 31.0795 7.96146C30.2124 6.87498 28.9985 6.57077 27.6545 6.78806C24.4464 7.30957 21.7152 9.00448 19.4174 11.2209C20.588 9.09139 21.8452 7.00536 23.0591 4.87587C23.8828 3.48518 23.4926 1.6599 22.2354 0.660337C20.9348 -0.339221 19.2007 -0.165385 17.9868 0.921092C12.611 5.78851 7.79876 11.3513 3.68021 17.3486C2.50967 19.0435 1.42584 20.7384 0.428715 22.4333C-0.438349 23.9109 0.0385363 26.0839 1.59925 26.9096C2.76979 27.518 4.15709 27.4311 5.19757 26.6923C4.8941 27.6049 4.63398 28.4741 4.37386 29.3868C3.55015 32.342 3.02991 35.3407 2.68308 38.3393C2.59638 39.0347 2.98656 39.7735 3.37674 40.295C3.81027 40.8165 4.37386 41.2946 5.06751 41.4684C6.49817 41.7726 7.97218 41.2511 8.75254 39.9908C9.70631 38.3828 10.6167 36.8183 11.5705 35.2103C11.5705 36.5575 12.6543 37.9482 13.9549 38.2524C15.4289 38.6001 16.8162 37.9917 17.6399 36.7748C18.0735 36.1229 18.507 35.471 18.9839 34.8192C19.2007 34.5149 19.4608 34.1673 19.6776 33.8631C19.7643 33.7327 19.851 33.6023 19.9377 33.5154C19.981 33.4719 20.0244 33.4285 20.0244 33.385C20.4579 32.82 20.5231 33.0215 21 32.5C20.2196 34.7599 20.1544 36.3837 20.2411 38.7739C20.2845 40.1646 21.1949 41.5988 22.6256 41.903C24.0996 42.2507 25.4435 41.6422 26.3106 40.4254C26.7875 39.73 27.2644 39.0347 27.7846 38.3828C28.0014 38.0786 28.2615 37.7744 28.4783 37.4702C28.4783 37.4267 28.5216 37.4267 28.5216 37.3832C28.6083 37.2529 28.7384 37.1225 28.8251 36.9921C29.3453 36.3402 29.8656 35.6883 30.4292 35.0364C30.4292 35.6449 30.5159 36.2098 30.8193 36.7748C31.2095 37.4702 31.9899 38.0786 32.7702 38.2524C33.5939 38.4263 34.5477 38.3828 35.2847 37.9047C35.935 37.4702 36.6287 36.7748 36.7587 35.9491C37.3657 32.1247 38.4062 28.3438 39.8368 24.7367C40.1403 24.0413 39.9669 23.1721 39.7501 22.5637Z" fill="black"/>
</svg>
