<svg width="44" height="45" viewBox="0 0 44 45" fill="none" xmlns="http://www.w3.org/2000/svg">
<path d="M41.7457 23.254C41.4422 22.6456 41.0087 22.0372 40.4018 21.6895C39.0578 20.9941 37.5838 21.2114 36.4566 22.211C36.3857 22.2739 35.9956 22.1903 35.9956 22.1903C35.7534 22.211 36.7601 21.0376 37.3237 20.125C38.0173 18.9081 37.8439 17.1263 36.8034 16.1702C35.763 15.2141 34.4956 15.1447 32.8583 15.6487C31.221 16.1527 30.8457 16.4207 30.9956 16.1903C32.2962 14.1912 32.2355 14.3694 33.0751 12.9379C33.3785 12.5468 33.7687 11.1289 33.7687 10.6074C33.7687 9.86863 33.5086 9.21674 33.0751 8.65178C32.208 7.5653 30.9941 7.26109 29.6502 7.47838C26.442 7.99989 25.2933 9.92993 22.9956 12.1463C22.5782 11.9255 23.1082 10.6427 23.9956 9.14453C24.8193 7.75384 25.9956 5.14635 23.9956 2.6912C20.9956 1.14625 19.4956 2.14635 15.4956 6.14469C10.9956 11.1447 9.79437 12.0416 5.67581 18.0389C4.50528 19.7338 3.42145 21.4287 2.42432 23.1236C1.55726 24.6012 2.03414 26.7742 3.59486 27.5999C4.7654 28.2083 6.1527 28.1214 7.19318 27.3826C6.8897 28.2953 6.62958 29.1644 6.36947 30.0771C5.54575 33.0323 5.02551 36.031 4.67869 39.0297C4.59198 39.725 4.98216 40.4638 5.37234 40.9853C5.80587 41.5068 6.36946 41.9849 7.06312 42.1587C8.49377 42.4629 9.96778 41.9414 10.7481 40.6811C11.7019 39.0731 12.6123 37.5086 13.5661 35.9006C13.5661 37.2479 14.6499 38.6385 15.9505 38.9428C17.4245 39.2904 18.8118 38.682 19.6356 37.4651C20.0691 36.8133 20.5026 36.1614 20.9795 35.5095C21.1963 35.2053 21.4564 34.8576 21.6732 34.5534C21.7599 34.423 21.8466 34.2926 21.9333 34.2057C21.9766 34.1623 22.02 34.1188 22.02 34.0753C22.4535 33.5104 22.9956 32.6903 22.9956 33.1903C22.2152 35.4502 22.15 37.074 22.2367 39.4643C22.2801 40.855 23.1905 42.2891 24.6212 42.5933C26.0952 42.941 27.4391 42.3326 28.3062 41.1157C28.7831 40.4204 29.26 39.725 29.7802 39.0731C29.997 38.7689 30.2571 38.4647 30.4739 38.1605C30.4739 38.117 30.5172 38.117 30.5172 38.0736C30.6039 37.9432 30.734 37.8128 30.8207 37.6824C31.3409 37.0306 31.8612 36.3787 32.4248 35.7268C32.4248 36.3352 32.5115 36.9002 32.8149 37.4651C33.2051 38.1605 33.9855 38.7689 34.7658 38.9428C35.5895 39.1166 36.5433 39.0731 37.2803 38.5951C37.9306 38.1605 38.6243 37.4651 38.7543 36.6394C39.3613 32.815 40.4018 29.0341 41.8324 25.427C42.1359 24.7316 41.9625 23.8624 41.7457 23.254Z" fill="#DE0000"/>
<path fill-rule="evenodd" clip-rule="evenodd" d="M43.5894 22.4692L43.6299 22.5828C43.8825 23.2918 44.2819 24.7727 43.6817 26.1897C42.3098 29.654 41.312 33.2842 40.7298 36.9529C40.4664 38.6185 39.1871 39.7264 38.3918 40.258L38.3804 40.2656L38.3689 40.273C37.0302 41.1413 35.4755 41.1366 34.353 40.8997L34.3421 40.8974L34.3311 40.8949C33.4304 40.6943 32.587 40.1995 31.93 39.5555C31.852 39.6583 31.7769 39.7542 31.712 39.8369L31.7013 39.8506C31.5767 40.0096 31.4864 40.1254 31.4092 40.2338L31.3776 40.2781L31.3436 40.3207C30.8762 40.9064 30.4398 41.5411 29.9557 42.2469L29.9456 42.2617L29.9352 42.2763C28.6632 44.0614 26.5398 45.0925 24.1812 44.5444C21.7336 44.0111 20.4008 41.7534 20.2499 39.7518C18.9835 40.8277 17.277 41.3099 15.4934 40.8898C14.7462 40.7147 14.0834 40.3561 13.5305 39.9016C13.1803 40.4972 12.8275 41.0961 12.4685 41.7015L12.4588 41.7178L12.4487 41.734C11.1676 43.8031 8.79317 44.5713 6.64731 44.115L6.61205 44.1075L6.5771 44.0988C5.29979 43.7787 4.39884 42.9427 3.83453 42.2639L3.80179 42.2245L3.7711 42.1835C3.31639 41.5757 2.51023 40.294 2.69293 38.7928C3.03334 35.8518 3.54002 32.8803 4.33635 29.9292C3.76437 29.8349 3.20232 29.6499 2.67262 29.3745L2.66616 29.3712L2.65973 29.3678C-0.0214975 27.9492 -0.676832 24.457 0.69954 22.1115L0.700672 22.1095C1.72308 20.3717 2.83266 18.6366 4.02889 16.9044C7.35809 12.0567 8.87788 10.4053 11.569 7.48113C12.2818 6.70664 13.0767 5.84287 14.0092 4.80679L14.0445 4.76754L14.0819 4.73021C16.0175 2.79536 17.6552 1.24792 19.3071 0.512232C20.2152 0.107792 21.1551 -0.0717587 22.1589 0.0262558C23.1264 0.120725 24.0352 0.461903 24.9114 0.913154L25.2827 1.10433L25.5464 1.42806C26.8606 3.04138 27.1924 4.69454 27.0822 6.1547C27.7479 5.86633 28.4896 5.64084 29.3294 5.50432L29.3311 5.50405C31.1952 5.20266 33.2113 5.61599 34.6384 7.40427L34.6503 7.41915L34.6619 7.43425C35.322 8.29443 35.7689 9.36474 35.7689 10.6075C35.7689 11.1695 35.5994 11.8852 35.4571 12.3771C35.3755 12.6595 35.2769 12.9571 35.1659 13.2316C35.1503 13.2702 35.1327 13.3129 35.113 13.3588C36.1737 13.4429 37.2136 13.8308 38.1568 14.6975C39.4679 15.9023 39.9292 17.7174 39.6686 19.3572C40.2258 19.4505 40.7816 19.6341 41.321 19.9132L41.3589 19.9328L41.396 19.9541C42.497 20.5847 43.1545 21.5973 43.5356 22.3614L43.5894 22.4692ZM37.8192 21.4316C38.1877 21.3181 38.5697 21.2695 38.9546 21.2888C39.4393 21.313 39.9287 21.4447 40.4019 21.6895C41.0089 22.0372 41.4424 22.6456 41.7459 23.254C41.9626 23.8625 42.1361 24.7316 41.8326 25.427C40.4019 29.0341 39.3614 32.8151 38.7545 36.6395C38.6244 37.4652 37.9308 38.1605 37.2805 38.5951C36.5435 39.0732 35.5897 39.1166 34.766 38.9428C34.177 38.8116 33.5881 38.4328 33.1669 37.956C33.03 37.801 32.9108 37.6357 32.8151 37.4652C32.5116 36.9002 32.4249 36.3352 32.4249 35.7268C31.8614 36.3787 31.3411 37.0305 30.8209 37.6824L30.8209 37.6825C30.8026 37.7099 30.7825 37.7373 30.7612 37.7647C30.7319 37.8025 30.7005 37.8403 30.6691 37.878C30.6149 37.9432 30.5607 38.0084 30.5174 38.0736C30.5174 38.0953 30.5065 38.1062 30.4957 38.1171C30.4849 38.1279 30.474 38.1388 30.474 38.1605C30.3656 38.3126 30.2464 38.4647 30.1272 38.6168C30.008 38.7689 29.8888 38.921 29.7804 39.0732C29.2602 39.725 28.7833 40.4203 28.3064 41.1156L28.3064 41.1157C27.4393 42.3326 26.0954 42.941 24.6213 42.5933C23.1907 42.2891 22.2803 40.855 22.2369 39.4643C22.207 38.64 22.1952 37.9068 22.2245 37.2073C22.2352 36.9534 22.2512 36.704 22.2738 36.4562C22.2745 36.4486 22.2752 36.4409 22.2759 36.4332C22.3166 35.9949 22.3779 35.5616 22.4658 35.1181C22.468 35.107 22.4702 35.0959 22.4724 35.0849C22.479 35.0521 22.4857 35.0193 22.4926 34.9865C22.5054 34.9256 22.5186 34.8645 22.5324 34.8032C22.5534 34.7094 22.5757 34.6149 22.5993 34.5197C22.6355 34.3735 22.6747 34.2256 22.7171 34.0754C22.7979 33.7897 22.8903 33.4958 22.9958 33.1903C22.9958 32.9937 22.9119 33.0012 22.7838 33.1171C22.7605 33.1382 22.7359 33.1628 22.7099 33.1903C22.5721 33.3371 22.3997 33.5685 22.2283 33.7986C22.1579 33.8931 22.0877 33.9873 22.0201 34.0754C22.0201 34.1188 21.9768 34.1623 21.9334 34.2057C21.8467 34.2927 21.76 34.423 21.6733 34.5534C21.6695 34.5587 21.6658 34.564 21.662 34.5694C21.5566 34.7169 21.4416 34.8742 21.3265 35.0315C21.2073 35.1944 21.0881 35.3574 20.9797 35.5095C20.7302 35.8505 20.4926 36.1916 20.2606 36.5326C20.0492 36.8434 19.8425 37.1543 19.6358 37.4651L19.6357 37.4652C18.812 38.682 17.4247 39.2905 15.9507 38.9428C15.4369 38.8226 14.957 38.5329 14.5643 38.1433C13.9629 37.5466 13.5663 36.7157 13.5663 35.9006C13.0968 36.6922 12.6378 37.4732 12.1789 38.254C12.1717 38.2663 12.1645 38.2786 12.1573 38.2909C11.6912 39.084 11.2252 39.8772 10.7483 40.6811C9.96795 41.9415 8.49394 42.463 7.06328 42.1588C6.36963 41.9849 5.80604 41.5069 5.37251 40.9854C4.98233 40.4638 4.59215 39.725 4.67885 39.0297C5.02568 36.031 5.54592 33.0323 6.36963 30.0771C6.38935 30.0079 6.40907 29.939 6.42881 29.8703C6.66944 29.0324 6.91288 28.2261 7.19334 27.3826C6.52293 27.8587 5.70852 28.0641 4.90088 27.9872C4.45508 27.9448 4.01134 27.8163 3.59502 27.5999C2.03431 26.7742 1.55742 24.6013 2.42449 23.1237C3.42161 21.4288 4.50544 19.7339 5.67598 18.0389C8.92278 13.311 10.3565 11.7529 13.0227 8.8555C13.7386 8.07755 14.5433 7.20305 15.4958 6.14471C19.4958 2.14637 20.9958 1.14628 23.9958 2.69122C25.4003 4.41542 25.2384 6.21475 24.7321 7.61499C24.5175 8.20862 24.241 8.73051 23.9958 9.14455C23.2027 10.4834 22.6951 11.6502 22.894 12.0409C22.9177 12.0874 22.9514 12.1229 22.9958 12.1464C23.4655 11.6932 23.8873 11.2521 24.2884 10.8324C24.3222 10.7971 24.3558 10.7619 24.3893 10.7269C24.6738 10.4295 24.9489 10.1435 25.2248 9.87248C25.603 9.50074 25.9826 9.15712 26.3893 8.85065C27.2646 8.19099 28.2656 7.7035 29.6503 7.47841C30.9943 7.26111 32.2082 7.56532 33.0752 8.6518C33.5088 9.21677 33.7689 9.86865 33.7689 10.6075C33.7689 11.129 33.3787 12.5468 33.0752 12.938C32.9106 13.2186 32.7806 13.4374 32.6682 13.6228C32.5605 13.8005 32.4689 13.9475 32.3784 14.0891C32.2757 14.2498 32.1745 14.4033 32.0529 14.5865C32.0162 14.6417 31.9777 14.6996 31.9367 14.7611C31.7207 15.0858 31.4363 15.5132 30.9958 16.1903C30.9391 16.2774 30.9575 16.2933 31.0907 16.2521C31.1597 16.2308 31.2594 16.1942 31.3955 16.1443C31.6918 16.0355 32.1605 15.8636 32.8585 15.6487C32.8618 15.6477 32.8651 15.6467 32.8684 15.6456C33.2347 15.5333 33.5824 15.4498 33.9132 15.3985C35.0569 15.2213 35.9982 15.4301 36.8036 16.1702C37.6559 16.9534 37.9264 18.2906 37.6151 19.4175C37.5464 19.6663 37.4493 19.9049 37.3238 20.125C37.2464 20.2504 37.1606 20.3807 37.0708 20.5122C36.8989 20.7639 36.7124 21.0199 36.5422 21.2535C36.3798 21.4763 36.2323 21.6789 36.1262 21.8382C36.0947 21.8854 36.0669 21.9289 36.0434 21.9679C36.0194 22.0078 36 22.0431 35.9858 22.0732C35.9488 22.1516 35.9478 22.1944 35.9958 22.1903C35.9958 22.1903 36.3859 22.2739 36.4568 22.211C36.8718 21.843 37.3339 21.581 37.8192 21.4316Z" fill="#10DEB9"/>
</svg>
