<svg width="40" height="41" viewBox="0 0 40 41" fill="none" xmlns="http://www.w3.org/2000/svg">
<path d="M39.7501 21.254C39.4466 20.6456 39.0131 20.0372 38.4062 19.6895C37.0622 18.9941 35.5882 19.2114 34.461 20.211C34.3901 20.2739 34 20.1903 34 20.1903C33.7578 20.211 34.7645 19.0376 35.3281 18.125C36.0217 16.9081 35.8483 15.1263 34.8078 14.1702C33.7674 13.2141 32.5 13.1447 30.8627 13.6487C29.2254 14.1527 28.8501 14.4207 29 14.1903C30.3006 12.1912 30.2399 12.3694 31.0795 10.9379C31.3829 10.5468 31.7731 9.12894 31.7731 8.60743C31.7731 7.86863 31.513 7.21674 31.0795 6.65178C30.2124 5.5653 28.9985 5.26109 27.6545 5.47838C24.4464 5.99989 23.2977 7.92993 21 10.1463C20.5826 9.92545 21.1126 8.64272 22 7.14453C22.8237 5.75384 24 3.14635 22 0.691202C19 -0.853747 17.5 0.146348 13.5 4.14469C9 9.14469 7.79876 10.0416 3.68021 16.0389C2.50967 17.7338 1.42584 19.4287 0.428715 21.1236C-0.438349 22.6012 0.0385363 24.7742 1.59925 25.5999C2.76979 26.2083 4.15709 26.1214 5.19757 25.3826C4.8941 26.2953 4.63398 27.1644 4.37386 28.0771C3.55015 31.0323 3.02991 34.031 2.68308 37.0297C2.59638 37.725 2.98656 38.4638 3.37674 38.9853C3.81027 39.5068 4.37386 39.9849 5.06751 40.1587C6.49817 40.4629 7.97218 39.9414 8.75254 38.6811C9.70631 37.0731 10.6167 35.5086 11.5705 33.9006C11.5705 35.2479 12.6543 36.6385 13.9549 36.9428C15.4289 37.2904 16.8162 36.682 17.6399 35.4651C18.0735 34.8133 18.507 34.1614 18.9839 33.5095C19.2007 33.2053 19.4608 32.8576 19.6776 32.5534C19.7643 32.423 19.851 32.2926 19.9377 32.2057C19.981 32.1623 20.0244 32.1188 20.0244 32.0753C20.4579 31.5104 21 30.6903 21 31.1903C20.2196 33.4502 20.1544 35.074 20.2411 37.4643C20.2845 38.855 21.1949 40.2891 22.6256 40.5933C24.0996 40.941 25.4435 40.3326 26.3106 39.1157C26.7875 38.4204 27.2644 37.725 27.7846 37.0731C28.0014 36.7689 28.2615 36.4647 28.4783 36.1605C28.4783 36.117 28.5216 36.117 28.5216 36.0736C28.6083 35.9432 28.7384 35.8128 28.8251 35.6824C29.3453 35.0306 29.8656 34.3787 30.4292 33.7268C30.4292 34.3352 30.5159 34.9002 30.8193 35.4651C31.2095 36.1605 31.9899 36.7689 32.7702 36.9428C33.5939 37.1166 34.5477 37.0731 35.2847 36.5951C35.935 36.1605 36.6287 35.4651 36.7587 34.6394C37.3657 30.815 38.4062 27.0341 39.8368 23.427C40.1403 22.7316 39.9669 21.8624 39.7501 21.254Z" fill="#FFEE00"/>
</svg>
