<svg width="700" height="315" viewBox="0 0 700 315" fill="none" xmlns="http://www.w3.org/2000/svg">
<rect x="17.8076" width="1.12013" height="313.636" fill="#DADADA"/>
<rect x="59.2539" width="1.12013" height="313.636" fill="#DADADA"/>
<rect x="100.698" width="1.12013" height="313.636" fill="#DADADA"/>
<rect x="142.143" width="1.12013" height="313.636" fill="#DADADA"/>
<rect x="183.588" width="1.12013" height="313.636" fill="#DADADA"/>
<rect opacity="0.5" x="225.032" width="1.12013" height="313.636" fill="#DADADA"/>
<rect x="266.478" width="1.12013" height="313.636" fill="#DADADA"/>
<rect x="307.922" width="1.12013" height="313.636" fill="#DADADA"/>
<rect x="349" width="1.12013" height="313.636" fill="#DADADA"/>
<rect x="390.812" width="1.12013" height="313.636" fill="#DADADA"/>
<rect x="432.256" width="1.12013" height="313.636" fill="#DADADA"/>
<rect opacity="0.5" x="473.701" width="1.12013" height="313.636" fill="#DADADA"/>
<rect x="515.146" width="1.12013" height="313.636" fill="#DADADA"/>
<rect x="556.59" width="1.12013" height="313.636" fill="#DADADA"/>
<rect x="598.035" width="1.12013" height="313.636" fill="#DADADA"/>
<rect opacity="0.5" x="639.48" width="1.12013" height="313.636" fill="#DADADA"/>
<rect x="680.926" width="1.12013" height="313.636" fill="#DADADA"/>
<rect y="313" width="700" height="1.10114" fill="#DADADA"/>
<rect x="17.8086" y="20.1621" width="664.237" height="1.10114" fill="#DADADA"/>
<rect x="17.8086" y="61.5874" width="664.237" height="1.10114" fill="#DADADA"/>
<rect x="17.8086" y="103.012" width="664.237" height="1.10114" fill="#DADADA"/>
<rect x="17.8086" y="144.438" width="664.237" height="1.10114" fill="#DADADA"/>
<rect x="17.8086" y="185.863" width="664.237" height="1.10114" fill="#DADADA"/>
<rect x="17.8086" y="227.288" width="664.237" height="1.10114" fill="#DADADA"/>
<rect x="17.8086" y="268.713" width="664.237" height="1.10114" fill="#DADADA"/>
</svg>
