<svg width="336" height="482" viewBox="0 0 336 482" fill="none" xmlns="http://www.w3.org/2000/svg">
<mask id="path-1-inside-1_506_6608" fill="white">
<path fill-rule="evenodd" clip-rule="evenodd" d="M70 31.9693V32H71H265C273.837 32 281 24.8366 281 16C281 7.16344 273.837 0 265 0H71H70V0.030742C61.6293 0.546938 55 7.49929 55 16C55 24.5007 61.6293 31.4531 70 31.9693Z"/>
</mask>
<path fill-rule="evenodd" clip-rule="evenodd" d="M70 31.9693V32H71H265C273.837 32 281 24.8366 281 16C281 7.16344 273.837 0 265 0H71H70V0.030742C61.6293 0.546938 55 7.49929 55 16C55 24.5007 61.6293 31.4531 70 31.9693Z" fill="#E3E6EF"/>
<path d="M70 32H68.72V33.28H70V32ZM70 31.9693H71.28V30.7658L70.0788 30.6917L70 31.9693ZM70 0V-1.28H68.72V0H70ZM70 0.030742L70.0788 1.30832L71.28 1.23424V0.030742H70ZM71.28 32V31.9693H68.72V32H71.28ZM71 30.72H70V33.28H71V30.72ZM265 30.72H71V33.28H265V30.72ZM265 33.28C274.543 33.28 282.28 25.5435 282.28 16H279.72C279.72 24.1296 273.13 30.72 265 30.72V33.28ZM282.28 16C282.28 6.45652 274.543 -1.28 265 -1.28V1.28C273.13 1.28 279.72 7.87037 279.72 16H282.28ZM71 1.28H265V-1.28H71V1.28ZM70 1.28H71V-1.28H70V1.28ZM71.28 0.030742V0H68.72V0.030742H71.28ZM69.9212 -1.24683C60.8796 -0.689266 53.72 6.81876 53.72 16H56.28C56.28 8.17982 62.3789 1.78314 70.0788 1.30832L69.9212 -1.24683ZM53.72 16C53.72 25.1812 60.8796 32.6893 69.9212 33.2468L70.0788 30.6917C62.3789 30.2169 56.28 23.8202 56.28 16H53.72Z" fill="#FBFBFB" mask="url(#path-1-inside-1_506_6608)"/>
<rect x="111.554" y="416.184" width="112.892" height="32.0503" fill="#FBFBFB" stroke="#818D9B" stroke-width="0.79183"/>
<rect x="111.554" y="447.765" width="112.892" height="33.3134" fill="#FBFBFB" stroke="#818D9B" stroke-width="0.79183"/>
<rect x="223.974" y="416.184" width="111.629" height="32.0503" fill="#FBFBFB" stroke="#818D9B" stroke-width="0.79183"/>
<rect x="223.974" y="447.765" width="111.629" height="33.3134" fill="#FBFBFB" stroke="#818D9B" stroke-width="0.79183"/>
<rect x="111.554" y="384.606" width="112.892" height="32.0503" fill="#FBFBFB" stroke="#818D9B" stroke-width="0.79183"/>
<rect x="223.974" y="384.606" width="111.629" height="32.0503" fill="#FBFBFB" stroke="#818D9B" stroke-width="0.79183"/>
<rect x="111.554" y="351.765" width="112.892" height="33.3134" fill="#FBFBFB" stroke="#818D9B" stroke-width="0.79183"/>
<rect x="223.974" y="351.765" width="111.629" height="33.3134" fill="#FBFBFB" stroke="#818D9B" stroke-width="0.79183"/>
<rect x="111.554" y="318.923" width="112.892" height="33.3134" fill="#FBFBFB" stroke="#818D9B" stroke-width="0.79183"/>
<rect x="223.974" y="318.923" width="111.629" height="33.3134" fill="#FBFBFB" stroke="#818D9B" stroke-width="0.79183"/>
<rect x="111.554" y="287.342" width="112.892" height="32.0503" fill="#FBFBFB" stroke="#818D9B" stroke-width="0.79183"/>
<rect x="223.974" y="287.342" width="111.629" height="32.0503" fill="#FBFBFB" stroke="#818D9B" stroke-width="0.79183"/>
<rect x="111.554" y="255.764" width="112.892" height="32.0503" fill="#FBFBFB" stroke="#818D9B" stroke-width="0.79183"/>
<rect x="223.974" y="255.764" width="111.629" height="32.0503" fill="#FBFBFB" stroke="#818D9B" stroke-width="0.79183"/>
<rect x="111.554" y="222.922" width="112.892" height="33.3134" fill="#FBFBFB" stroke="#818D9B" stroke-width="0.79183"/>
<rect x="223.974" y="222.922" width="111.629" height="33.3134" fill="#FBFBFB" stroke="#818D9B" stroke-width="0.79183"/>
<path d="M0.395915 59.5789C0.395915 55.6119 3.61187 52.3959 7.57895 52.3959H111.394V94.5514H0.395915V59.5789Z" fill="#32C3BE" fill-opacity="0.2" stroke="#818D9B" stroke-width="0.79183"/>
<rect x="0.395915" y="94.08" width="111.629" height="33.3134" fill="#F5F5F5" stroke="#818D9B" stroke-width="0.79183"/>
<rect x="0.395915" y="126.922" width="111.629" height="32.0503" fill="#F5F5F5" stroke="#818D9B" stroke-width="0.79183"/>
<rect x="0.395915" y="158.5" width="111.629" height="32.0503" fill="#F5F5F5" stroke="#818D9B" stroke-width="0.79183"/>
<path d="M0.395915 190.081H112.025V223.394H0.395915V190.081Z" fill="#F5F5F5" stroke="#818D9B" stroke-width="0.79183"/>
<rect x="0.395915" y="222.922" width="111.629" height="33.3134" fill="#F5F5F5" stroke="#818D9B" stroke-width="0.79183"/>
<rect x="0.395915" y="351.765" width="111.629" height="33.3134" fill="#F5F5F5" stroke="#818D9B" stroke-width="0.79183"/>
<rect x="111.554" y="94.08" width="112.892" height="33.3134" fill="#FBFBFB" stroke="#818D9B" stroke-width="0.79183"/>
<rect x="111.554" y="126.922" width="112.892" height="32.0503" fill="#FBFBFB" stroke="#818D9B" stroke-width="0.79183"/>
<rect x="111.554" y="158.5" width="112.892" height="32.0503" fill="#FBFBFB" stroke="#818D9B" stroke-width="0.79183"/>
<rect x="111.554" y="190.081" width="112.892" height="33.3134" fill="#FBFBFB" stroke="#818D9B" stroke-width="0.79183"/>
<rect x="0.395915" y="255.764" width="111.629" height="32.0503" fill="#F5F5F5" stroke="#818D9B" stroke-width="0.79183"/>
<rect x="0.395915" y="384.606" width="111.629" height="32.0503" fill="#F5F5F5" stroke="#818D9B" stroke-width="0.79183"/>
<rect x="223.974" y="94.08" width="111.629" height="33.3134" fill="#FBFBFB" stroke="#818D9B" stroke-width="0.79183"/>
<rect x="223.974" y="126.922" width="111.629" height="32.0503" fill="#FBFBFB" stroke="#818D9B" stroke-width="0.79183"/>
<rect x="223.974" y="158.5" width="111.629" height="32.0503" fill="#FBFBFB" stroke="#818D9B" stroke-width="0.79183"/>
<rect x="223.974" y="190.081" width="111.629" height="33.3134" fill="#FBFBFB" stroke="#818D9B" stroke-width="0.79183"/>
<path d="M38.7605 113.601C41.3778 113.601 42.5626 112.169 42.5626 110.825V110.259C42.5626 108.915 41.3778 107.482 38.7605 107.482C36.1433 107.482 34.9584 108.897 34.9584 110.259V110.825C34.9584 112.169 36.1433 113.601 38.7605 113.601ZM36.4439 116.218H45.003V120.162H46.7538V114.715H36.4439V116.218ZM49.0704 107.977H46.7538V103.698H45.0207V113.866H46.7538V109.498H49.0704V107.977ZM43.4292 105.413H39.627V103.486H37.894V105.413H34.0742V106.881H43.4292V105.413ZM38.7605 112.204C37.3281 112.204 36.6207 111.443 36.6207 110.736V110.347C36.6207 109.64 37.3104 108.879 38.7605 108.879C40.2106 108.879 40.9003 109.64 40.9003 110.347V110.736C40.9003 111.443 40.1929 112.204 38.7605 112.204ZM53.0749 117.438C53.0749 119.171 55.0555 120.462 58.1679 120.462C61.2803 120.462 63.261 119.154 63.261 117.438V116.731C63.261 115.016 61.2803 113.707 58.1679 113.707C55.0555 113.707 53.0749 114.998 53.0749 116.731V117.438ZM61.4749 107.394H59.8125V103.91H58.1502V112.858H59.8125V108.897H61.4749V113.495H63.1549V103.698H61.4749V107.394ZM53.4285 109.71C53.517 109.976 53.8707 110.347 54.3128 110.789C54.7902 111.267 55.4976 111.939 56.2934 112.611L57.3898 111.443C56.541 110.754 55.7275 110.064 55.1616 109.41C54.3481 108.473 54.2243 107.747 54.2243 106.686V104.529H52.5267V106.793C52.5267 107.907 52.4205 108.49 51.6601 109.427C51.2003 110.011 50.1747 110.966 49.0782 111.939L50.1923 113.123C51.1827 112.257 52.1907 111.302 52.6504 110.771C52.9511 110.435 53.3401 109.993 53.4109 109.71H53.4285ZM61.5456 117.332C61.5456 118.199 60.1662 119.03 58.1679 119.03C56.1696 119.03 54.7902 118.199 54.7902 117.315V116.837C54.7902 115.971 56.1696 115.139 58.1679 115.139C60.1662 115.139 61.5456 115.971 61.5456 116.837V117.332ZM75.5467 117.987V105.236H74.0789L69.9762 107.641L70.8073 109.056L73.7959 107.288V117.987H75.5467Z" fill="#444444"/>
<path d="M160.448 117.987V105.236H158.98L154.877 107.641L155.709 109.056L158.697 107.288V117.987H160.448ZM165.676 107.871C166.366 106.969 167.109 106.598 168.152 106.598C169.301 106.598 170.256 107.164 170.256 108.278V108.419C170.256 109.516 169.708 110.577 168.117 110.577H166.613V112.098H168.187C169.673 112.098 170.822 112.593 170.822 114.273V114.503C170.822 115.652 169.973 116.59 168.117 116.59C167.02 116.59 166.136 116.271 164.898 115.369L164.031 116.766C165.234 117.721 166.631 118.181 168.117 118.181C171.247 118.181 172.573 116.36 172.573 114.485V114.22C172.573 112.752 171.706 111.585 169.991 111.284C171.565 110.718 171.989 109.41 171.989 108.402V108.225C171.989 106.315 170.486 105.042 168.134 105.042C166.224 105.042 165.163 105.891 164.421 106.952L165.676 107.871ZM182.558 105.908C181.603 105.325 180.401 105.042 179.251 105.042C176.386 105.042 174.353 106.686 174.353 112.275V112.929C174.353 116.342 175.927 118.181 178.791 118.181C181.391 118.181 183.142 116.519 183.142 114.078V113.689C183.142 111.196 181.391 109.622 179.127 109.622C177.713 109.622 176.51 110.329 176.086 111.072C176.209 107.712 177.412 106.651 179.145 106.651C180.153 106.651 181.09 106.934 181.886 107.394L182.558 105.908ZM176.139 113.654C176.139 112.257 177.217 111.178 178.774 111.178C180.33 111.178 181.391 112.062 181.391 113.76V113.99C181.391 115.652 180.365 116.59 178.721 116.59C177.129 116.59 176.139 115.546 176.139 113.902V113.654Z" fill="#777777"/>
<path d="M266.484 116.519V117.987H275.043V116.466H268.641L272.62 112.222C273.77 111.001 274.583 109.799 274.583 108.419V108.243C274.583 106.386 273.186 105.042 270.604 105.042C268.252 105.042 267.121 106.51 266.519 107.606L267.863 108.473C268.694 106.987 269.702 106.616 270.64 106.616C271.966 106.616 272.833 107.235 272.833 108.243V108.384C272.833 109.056 272.691 109.763 271.241 111.355L266.484 116.519ZM276.646 116.519V117.987H285.205V116.466H278.803L282.782 112.222C283.932 111.001 284.745 109.799 284.745 108.419V108.243C284.745 106.386 283.348 105.042 280.766 105.042C278.414 105.042 277.283 106.51 276.681 107.606L278.025 108.473C278.856 106.987 279.864 106.616 280.802 106.616C282.128 106.616 282.995 107.235 282.995 108.243V108.384C282.995 109.056 282.853 109.763 281.403 111.355L276.646 116.519ZM295.579 110.612C295.579 107.04 294.076 105.042 291.07 105.042C288.099 105.042 286.56 107.04 286.56 110.612V112.593C286.56 116.165 288.046 118.181 291.07 118.181C294.129 118.181 295.579 116.201 295.579 112.593V110.612ZM293.793 112.611C293.793 115.758 292.626 116.554 291.07 116.554C289.584 116.554 288.346 115.741 288.346 112.611V110.595C288.346 107.5 289.584 106.669 291.07 106.669C292.626 106.669 293.793 107.482 293.793 110.595V112.611Z" fill="#777777"/>
<path d="M160.448 149.565V136.814H158.98L154.877 139.22L155.709 140.634L158.697 138.866V149.565H160.448ZM169.938 141.43V145.338H165.623L171.494 136.814H169.567L163.572 145.515V146.824H169.938V149.565H171.671V146.824H173.475V145.338H171.671V141.43H169.938ZM180.1 141.43V145.338H175.785L181.656 136.814H179.729L173.734 145.515V146.824H180.1V149.565H181.833V146.824H183.637V145.338H181.833V141.43H180.1Z" fill="#777777"/>
<path d="M160.448 181.143V168.393H158.98L154.877 170.798L155.709 172.213L158.697 170.444V181.143H160.448ZM165.676 171.028C166.366 170.126 167.109 169.755 168.152 169.755C169.301 169.755 170.256 170.321 170.256 171.435V171.576C170.256 172.673 169.708 173.734 168.117 173.734H166.613V175.255H168.187C169.673 175.255 170.822 175.75 170.822 177.43V177.66C170.822 178.809 169.973 179.746 168.117 179.746C167.02 179.746 166.136 179.428 164.898 178.526L164.031 179.923C165.234 180.878 166.631 181.338 168.117 181.338C171.247 181.338 172.573 179.516 172.573 177.642V177.377C172.573 175.909 171.706 174.742 169.991 174.441C171.565 173.875 171.989 172.567 171.989 171.559V171.382C171.989 169.472 170.486 168.199 168.134 168.199C166.224 168.199 165.163 169.047 164.421 170.108L165.676 171.028ZM176.528 171.665C176.528 170.462 177.394 169.737 178.65 169.737C179.923 169.737 180.772 170.462 180.772 171.665V171.859C180.772 173.115 179.852 173.875 178.65 173.875C177.465 173.875 176.528 173.115 176.528 171.859V171.665ZM176.192 177.553C176.192 176.139 177.288 175.414 178.668 175.414C180.065 175.414 181.108 176.174 181.108 177.553V177.748C181.108 178.951 180.188 179.764 178.668 179.764C177.147 179.764 176.192 178.951 176.192 177.748V177.553ZM174.388 177.836C174.388 179.87 175.98 181.338 178.65 181.338C181.32 181.338 182.912 179.87 182.912 177.836V177.536C182.912 176.139 181.957 174.972 180.719 174.6C181.957 173.964 182.54 172.867 182.54 171.788V171.541C182.54 169.719 181.108 168.199 178.65 168.199C176.156 168.199 174.759 169.719 174.759 171.541V171.788C174.759 172.867 175.361 174.017 176.581 174.6C175.361 174.972 174.388 176.139 174.388 177.536V177.836Z" fill="#777777"/>
<path d="M160.448 212.722V199.971H158.98L154.877 202.376L155.709 203.791L158.697 202.023V212.722H160.448ZM169.938 204.587V208.495H165.623L171.494 199.971H169.567L163.572 208.672V209.98H169.938V212.722H171.671V209.98H173.475V208.495H171.671V204.587H169.938ZM183.159 205.347C183.159 201.775 181.656 199.777 178.65 199.777C175.679 199.777 174.14 201.775 174.14 205.347V207.328C174.14 210.9 175.626 212.916 178.65 212.916C181.709 212.916 183.159 210.935 183.159 207.328V205.347ZM181.373 207.346C181.373 210.493 180.206 211.289 178.65 211.289C177.164 211.289 175.927 210.476 175.927 207.346V205.33C175.927 202.235 177.164 201.404 178.65 201.404C180.206 201.404 181.373 202.217 181.373 205.33V207.346Z" fill="#777777"/>
<path d="M160.448 245.566V232.815H158.98L154.877 235.22L155.709 236.635L158.697 234.867V245.566H160.448ZM169.938 237.431V241.339H165.623L171.494 232.815H169.567L163.572 241.516V242.825H169.938V245.566H171.671V242.825H173.475V241.339H171.671V237.431H169.938ZM174.388 244.098V245.566H182.947V244.045H176.545L180.524 239.801C181.674 238.58 182.487 237.378 182.487 235.999V235.822C182.487 233.965 181.09 232.621 178.508 232.621C176.156 232.621 175.025 234.089 174.423 235.185L175.767 236.052C176.599 234.566 177.607 234.195 178.544 234.195C179.87 234.195 180.737 234.814 180.737 235.822V235.963C180.737 236.635 180.595 237.343 179.145 238.934L174.388 244.098Z" fill="#777777"/>
<path d="M160.448 278.407V265.657H158.98L154.877 268.062L155.709 269.477L158.697 267.708V278.407H160.448ZM169.938 270.272V274.181H165.623L171.494 265.657H169.567L163.572 274.357V275.666H169.938V278.407H171.671V275.666H173.475V274.181H171.671V270.272H169.938ZM182.558 266.329C181.603 265.745 180.401 265.462 179.251 265.462C176.386 265.462 174.353 267.107 174.353 272.695V273.349C174.353 276.762 175.927 278.602 178.791 278.602C181.391 278.602 183.142 276.939 183.142 274.499V274.11C183.142 271.616 181.391 270.042 179.127 270.042C177.713 270.042 176.51 270.75 176.086 271.493C176.209 268.133 177.412 267.071 179.145 267.071C180.153 267.071 181.09 267.354 181.886 267.814L182.558 266.329ZM176.139 274.074C176.139 272.677 177.217 271.599 178.774 271.599C180.33 271.599 181.391 272.483 181.391 274.181V274.41C181.391 276.073 180.365 277.01 178.721 277.01C177.129 277.01 176.139 275.967 176.139 274.322V274.074Z" fill="#777777"/>
<path d="M160.448 309.986V297.235H158.98L154.877 299.64L155.709 301.055L158.697 299.287V309.986H160.448ZM169.938 301.851V305.759H165.623L171.494 297.235H169.567L163.572 305.936V307.245H169.938V309.986H171.671V307.245H173.475V305.759H171.671V301.851H169.938ZM182.558 297.907C181.603 297.324 180.401 297.041 179.251 297.041C176.386 297.041 174.353 298.685 174.353 304.274V304.928C174.353 308.341 175.927 310.18 178.791 310.18C181.391 310.18 183.142 308.518 183.142 306.077V305.688C183.142 303.195 181.391 301.621 179.127 301.621C177.713 301.621 176.51 302.328 176.086 303.071C176.209 299.711 177.412 298.65 179.145 298.65C180.153 298.65 181.09 298.933 181.886 299.393L182.558 297.907ZM176.139 305.653C176.139 304.256 177.217 303.177 178.774 303.177C180.33 303.177 181.391 304.061 181.391 305.759V305.989C181.391 307.651 180.365 308.589 178.721 308.589C177.129 308.589 176.139 307.545 176.139 305.901V305.653Z" fill="#777777"/>
<path d="M160.448 341.564V328.813H158.98L154.877 331.219L155.709 332.633L158.697 330.865V341.564H160.448ZM169.938 333.429V337.337H165.623L171.494 328.813H169.567L163.572 337.514V338.823H169.938V341.564H171.671V338.823H173.475V337.337H171.671V333.429H169.938ZM176.528 332.085C176.528 330.883 177.394 330.157 178.65 330.157C179.923 330.157 180.772 330.883 180.772 332.085V332.28C180.772 333.535 179.852 334.296 178.65 334.296C177.465 334.296 176.528 333.535 176.528 332.28V332.085ZM176.192 337.974C176.192 336.559 177.288 335.834 178.668 335.834C180.065 335.834 181.108 336.595 181.108 337.974V338.168C181.108 339.371 180.188 340.184 178.668 340.184C177.147 340.184 176.192 339.371 176.192 338.168V337.974ZM174.388 338.257C174.388 340.291 175.98 341.758 178.65 341.758C181.32 341.758 182.912 340.291 182.912 338.257V337.956C182.912 336.559 181.957 335.392 180.719 335.021C181.957 334.384 182.54 333.288 182.54 332.209V331.961C182.54 330.14 181.108 328.619 178.65 328.619C176.156 328.619 174.759 330.14 174.759 331.961V332.209C174.759 333.288 175.361 334.437 176.581 335.021C175.361 335.392 174.388 336.559 174.388 337.956V338.257Z" fill="#777777"/>
<path d="M160.448 374.408V361.658H158.98L154.877 364.063L155.709 365.478L158.697 363.709V374.408H160.448ZM169.938 366.273V370.182H165.623L171.494 361.658H169.567L163.572 370.358V371.667H169.938V374.408H171.671V371.667H173.475V370.182H171.671V366.273H169.938ZM182.558 362.33C181.603 361.746 180.401 361.463 179.251 361.463C176.386 361.463 174.353 363.108 174.353 368.696V369.35C174.353 372.763 175.927 374.603 178.791 374.603C181.391 374.603 183.142 372.94 183.142 370.5V370.111C183.142 367.617 181.391 366.043 179.127 366.043C177.713 366.043 176.51 366.751 176.086 367.494C176.209 364.134 177.412 363.072 179.145 363.072C180.153 363.072 181.09 363.355 181.886 363.815L182.558 362.33ZM176.139 370.075C176.139 368.678 177.217 367.6 178.774 367.6C180.33 367.6 181.391 368.484 181.391 370.182V370.411C181.391 372.074 180.365 373.011 178.721 373.011C177.129 373.011 176.139 371.968 176.139 370.323V370.075Z" fill="#777777"/>
<path d="M160.448 407.249V394.499H158.98L154.877 396.904L155.709 398.319L158.697 396.55V407.249H160.448ZM169.938 399.115V403.023H165.623L171.494 394.499H169.567L163.572 403.2V404.508H169.938V407.249H171.671V404.508H173.475V403.023H171.671V399.115H169.938ZM183.159 399.875C183.159 396.303 181.656 394.304 178.65 394.304C175.679 394.304 174.14 396.303 174.14 399.875V401.856C174.14 405.428 175.626 407.444 178.65 407.444C181.709 407.444 183.159 405.463 183.159 401.856V399.875ZM181.373 401.873C181.373 405.021 180.206 405.817 178.65 405.817C177.164 405.817 175.927 405.003 175.927 401.873V399.857C175.927 396.763 177.164 395.931 178.65 395.931C180.206 395.931 181.373 396.745 181.373 399.857V401.873Z" fill="#777777"/>
<path d="M160.448 438.828V426.078H158.98L154.877 428.483L155.709 429.897L158.697 428.129V438.828H160.448ZM169.938 430.693V434.601H165.623L171.494 426.078H169.567L163.572 434.778V436.087H169.938V438.828H171.671V436.087H173.475V434.601H171.671V430.693H169.938ZM176.528 429.349C176.528 428.147 177.394 427.422 178.65 427.422C179.923 427.422 180.772 428.147 180.772 429.349V429.544C180.772 430.799 179.852 431.56 178.65 431.56C177.465 431.56 176.528 430.799 176.528 429.544V429.349ZM176.192 435.238C176.192 433.823 177.288 433.098 178.668 433.098C180.065 433.098 181.108 433.859 181.108 435.238V435.433C181.108 436.635 180.188 437.449 178.668 437.449C177.147 437.449 176.192 436.635 176.192 435.433V435.238ZM174.388 435.521C174.388 437.555 175.98 439.022 178.65 439.022C181.32 439.022 182.912 437.555 182.912 435.521V435.22C182.912 433.823 181.957 432.656 180.719 432.285C181.957 431.648 182.54 430.552 182.54 429.473V429.225C182.54 427.404 181.108 425.883 178.65 425.883C176.156 425.883 174.759 427.404 174.759 429.225V429.473C174.759 430.552 175.361 431.701 176.581 432.285C175.361 432.656 174.388 433.823 174.388 435.22V435.521Z" fill="#777777"/>
<path d="M160.448 470.406V457.656H158.98L154.877 460.061L155.709 461.476L158.697 459.707V470.406H160.448ZM172.98 466.303C172.98 464.146 171.6 462.36 169.178 462.36C168.117 462.36 167.197 462.713 166.631 463.138L166.826 459.159H172.149V457.656H165.234L164.827 464.836H166.171C166.737 464.287 167.586 463.828 168.665 463.828C170.292 463.828 171.229 464.659 171.229 466.356V466.569C171.229 467.753 170.433 469.009 168.576 469.009C167.391 469.009 166.295 468.744 165.075 467.789L164.208 469.186C165.411 470.141 166.808 470.601 168.541 470.601C171.724 470.601 172.98 468.443 172.98 466.569V466.303ZM174.388 468.938V470.406H182.947V468.885H176.545L180.524 464.641C181.674 463.421 182.487 462.218 182.487 460.839V460.662C182.487 458.805 181.09 457.461 178.508 457.461C176.156 457.461 175.025 458.929 174.423 460.025L175.767 460.892C176.599 459.406 177.607 459.035 178.544 459.035C179.87 459.035 180.737 459.654 180.737 460.662V460.804C180.737 461.476 180.595 462.183 179.145 463.774L174.388 468.938Z" fill="#777777"/>
<path d="M266.484 148.097V149.565H275.043V148.044H268.641L272.62 143.8C273.77 142.58 274.583 141.377 274.583 139.998V139.821C274.583 137.964 273.186 136.62 270.604 136.62C268.252 136.62 267.121 138.088 266.519 139.184L267.863 140.051C268.694 138.565 269.702 138.194 270.64 138.194C271.966 138.194 272.833 138.813 272.833 139.821V139.962C272.833 140.634 272.691 141.342 271.241 142.933L266.484 148.097ZM282.358 141.43V145.338H278.043L283.914 136.814H281.987L275.992 145.515V146.824H282.358V149.565H284.091V146.824H285.895V145.338H284.091V141.43H282.358ZM295.579 142.19C295.579 138.618 294.076 136.62 291.07 136.62C288.099 136.62 286.56 138.618 286.56 142.19V144.171C286.56 147.743 288.046 149.759 291.07 149.759C294.129 149.759 295.579 147.779 295.579 144.171V142.19ZM293.793 144.189C293.793 147.337 292.626 148.132 291.07 148.132C289.584 148.132 288.346 147.319 288.346 144.189V142.173C288.346 139.078 289.584 138.247 291.07 138.247C292.626 138.247 293.793 139.06 293.793 142.173V144.189Z" fill="#777777"/>
<path d="M266.484 179.676V181.143H275.043V179.623H268.641L272.62 175.378C273.77 174.158 274.583 172.956 274.583 171.576V171.399C274.583 169.543 273.186 168.199 270.604 168.199C268.252 168.199 267.121 169.666 266.519 170.763L267.863 171.629C268.694 170.144 269.702 169.772 270.64 169.772C271.966 169.772 272.833 170.391 272.833 171.399V171.541C272.833 172.213 272.691 172.92 271.241 174.512L266.484 179.676ZM276.646 179.676V181.143H285.205V179.623H278.803L282.782 175.378C283.932 174.158 284.745 172.956 284.745 171.576V171.399C284.745 169.543 283.348 168.199 280.766 168.199C278.414 168.199 277.283 169.666 276.681 170.763L278.025 171.629C278.856 170.144 279.864 169.772 280.802 169.772C282.128 169.772 282.995 170.391 282.995 171.399V171.541C282.995 172.213 282.853 172.92 281.403 174.512L276.646 179.676ZM295.579 173.769C295.579 170.197 294.076 168.199 291.07 168.199C288.099 168.199 286.56 170.197 286.56 173.769V175.75C286.56 179.322 288.046 181.338 291.07 181.338C294.129 181.338 295.579 179.357 295.579 175.75V173.769ZM293.793 175.767C293.793 178.915 292.626 179.711 291.07 179.711C289.584 179.711 288.346 178.897 288.346 175.767V173.751C288.346 170.657 289.584 169.825 291.07 169.825C292.626 169.825 293.793 170.639 293.793 173.751V175.767Z" fill="#777777"/>
<path d="M266.484 211.254V212.722H275.043V211.201H268.641L272.62 206.956C273.77 205.736 274.583 204.534 274.583 203.154V202.978C274.583 201.121 273.186 199.777 270.604 199.777C268.252 199.777 267.121 201.244 266.519 202.341L267.863 203.207C268.694 201.722 269.702 201.351 270.64 201.351C271.966 201.351 272.833 201.97 272.833 202.978V203.119C272.833 203.791 272.691 204.498 271.241 206.09L266.484 211.254ZM278.096 202.606C278.786 201.704 279.528 201.333 280.572 201.333C281.721 201.333 282.676 201.899 282.676 203.013V203.154C282.676 204.251 282.128 205.312 280.536 205.312H279.033V206.833H280.607C282.093 206.833 283.242 207.328 283.242 209.008V209.238C283.242 210.387 282.393 211.324 280.536 211.324C279.44 211.324 278.556 211.006 277.318 210.104L276.451 211.501C277.654 212.456 279.051 212.916 280.536 212.916C283.667 212.916 284.993 211.095 284.993 209.22V208.955C284.993 207.487 284.126 206.32 282.411 206.019C283.985 205.453 284.409 204.145 284.409 203.137V202.96C284.409 201.05 282.906 199.777 280.554 199.777C278.644 199.777 277.583 200.626 276.84 201.687L278.096 202.606ZM295.579 205.347C295.579 201.775 294.076 199.777 291.07 199.777C288.099 199.777 286.56 201.775 286.56 205.347V207.328C286.56 210.9 288.046 212.916 291.07 212.916C294.129 212.916 295.579 210.935 295.579 207.328V205.347ZM293.793 207.346C293.793 210.493 292.626 211.289 291.07 211.289C289.584 211.289 288.346 210.476 288.346 207.346V205.33C288.346 202.235 289.584 201.404 291.07 201.404C292.626 201.404 293.793 202.217 293.793 205.33V207.346Z" fill="#777777"/>
<path d="M266.484 244.098V245.566H275.043V244.045H268.641L272.62 239.801C273.77 238.58 274.583 237.378 274.583 235.999V235.822C274.583 233.965 273.186 232.621 270.604 232.621C268.252 232.621 267.121 234.089 266.519 235.185L267.863 236.052C268.694 234.566 269.702 234.195 270.64 234.195C271.966 234.195 272.833 234.814 272.833 235.822V235.963C272.833 236.635 272.691 237.343 271.241 238.934L266.484 244.098ZM278.096 235.45C278.786 234.548 279.528 234.177 280.572 234.177C281.721 234.177 282.676 234.743 282.676 235.857V235.999C282.676 237.095 282.128 238.156 280.536 238.156H279.033V239.677H280.607C282.093 239.677 283.242 240.172 283.242 241.852V242.082C283.242 243.231 282.393 244.169 280.536 244.169C279.44 244.169 278.556 243.85 277.318 242.948L276.451 244.346C277.654 245.3 279.051 245.76 280.536 245.76C283.667 245.76 284.993 243.939 284.993 242.064V241.799C284.993 240.331 284.126 239.164 282.411 238.863C283.985 238.298 284.409 236.989 284.409 235.981V235.804C284.409 233.894 282.906 232.621 280.554 232.621C278.644 232.621 277.583 233.47 276.84 234.531L278.096 235.45ZM295.579 238.191C295.579 234.619 294.076 232.621 291.07 232.621C288.099 232.621 286.56 234.619 286.56 238.191V240.172C286.56 243.744 288.046 245.76 291.07 245.76C294.129 245.76 295.579 243.78 295.579 240.172V238.191ZM293.793 240.19C293.793 243.338 292.626 244.133 291.07 244.133C289.584 244.133 288.346 243.32 288.346 240.19V238.174C288.346 235.079 289.584 234.248 291.07 234.248C292.626 234.248 293.793 235.061 293.793 238.174V240.19Z" fill="#777777"/>
<path d="M266.484 276.939V278.407H275.043V276.886H268.641L272.62 272.642C273.77 271.422 274.583 270.219 274.583 268.84V268.663C274.583 266.806 273.186 265.462 270.604 265.462C268.252 265.462 267.121 266.93 266.519 268.026L267.863 268.893C268.694 267.407 269.702 267.036 270.64 267.036C271.966 267.036 272.833 267.655 272.833 268.663V268.805C272.833 269.477 272.691 270.184 271.241 271.775L266.484 276.939ZM278.096 268.292C278.786 267.39 279.528 267.018 280.572 267.018C281.721 267.018 282.676 267.584 282.676 268.698V268.84C282.676 269.936 282.128 270.997 280.536 270.997H279.033V272.518H280.607C282.093 272.518 283.242 273.013 283.242 274.693V274.923C283.242 276.073 282.393 277.01 280.536 277.01C279.44 277.01 278.556 276.692 277.318 275.79L276.451 277.187C277.654 278.142 279.051 278.602 280.536 278.602C283.667 278.602 284.993 276.78 284.993 274.906V274.64C284.993 273.173 284.126 272.005 282.411 271.705C283.985 271.139 284.409 269.83 284.409 268.822V268.645C284.409 266.735 282.906 265.462 280.554 265.462C278.644 265.462 277.583 266.311 276.84 267.372L278.096 268.292ZM295.579 271.033C295.579 267.461 294.076 265.462 291.07 265.462C288.099 265.462 286.56 267.461 286.56 271.033V273.013C286.56 276.586 288.046 278.602 291.07 278.602C294.129 278.602 295.579 276.621 295.579 273.013V271.033ZM293.793 273.031C293.793 276.179 292.626 276.975 291.07 276.975C289.584 276.975 288.346 276.161 288.346 273.031V271.015C288.346 267.92 289.584 267.089 291.07 267.089C292.626 267.089 293.793 267.903 293.793 271.015V273.031Z" fill="#777777"/>
<path d="M266.484 308.518V309.986H275.043V308.465H268.641L272.62 304.221C273.77 303 274.583 301.798 274.583 300.419V300.242C274.583 298.385 273.186 297.041 270.604 297.041C268.252 297.041 267.121 298.509 266.519 299.605L267.863 300.472C268.694 298.986 269.702 298.615 270.64 298.615C271.966 298.615 272.833 299.234 272.833 300.242V300.383C272.833 301.055 272.691 301.763 271.241 303.354L266.484 308.518ZM285.4 305.883C285.4 303.725 284.02 301.939 281.598 301.939C280.536 301.939 279.617 302.293 279.051 302.717L279.246 298.739H284.568V297.235H277.654L277.247 304.415H278.591C279.157 303.867 280.006 303.407 281.085 303.407C282.712 303.407 283.649 304.238 283.649 305.936V306.148C283.649 307.333 282.853 308.589 280.996 308.589C279.811 308.589 278.715 308.323 277.495 307.368L276.628 308.765C277.831 309.72 279.228 310.18 280.961 310.18C284.144 310.18 285.4 308.023 285.4 306.148V305.883ZM295.579 302.611C295.579 299.039 294.076 297.041 291.07 297.041C288.099 297.041 286.56 299.039 286.56 302.611V304.592C286.56 308.164 288.046 310.18 291.07 310.18C294.129 310.18 295.579 308.2 295.579 304.592V302.611ZM293.793 304.61C293.793 307.757 292.626 308.553 291.07 308.553C289.584 308.553 288.346 307.74 288.346 304.61V302.594C288.346 299.499 289.584 298.668 291.07 298.668C292.626 298.668 293.793 299.481 293.793 302.594V304.61Z" fill="#777777"/>
<path d="M266.202 372.94V374.408H274.761V372.887H268.359L272.338 368.643C273.488 367.423 274.301 366.22 274.301 364.841V364.664C274.301 362.807 272.904 361.463 270.322 361.463C267.97 361.463 266.838 362.931 266.237 364.027L267.581 364.894C268.412 363.408 269.42 363.037 270.357 363.037C271.684 363.037 272.55 363.656 272.55 364.664V364.806C272.55 365.478 272.409 366.185 270.959 367.776L266.202 372.94ZM282.076 366.273V370.182H277.761L283.632 361.658H281.704L275.709 370.358V371.667H282.076V374.408H283.809V371.667H285.613V370.182H283.809V366.273H282.076ZM295.297 367.034C295.297 363.462 293.794 361.463 290.788 361.463C287.817 361.463 286.278 363.462 286.278 367.034V369.014C286.278 372.587 287.764 374.603 290.788 374.603C293.847 374.603 295.297 372.622 295.297 369.014V367.034ZM293.511 369.032C293.511 372.18 292.344 372.976 290.788 372.976C289.302 372.976 288.064 372.162 288.064 369.032V367.016C288.064 363.921 289.302 363.09 290.788 363.09C292.344 363.09 293.511 363.904 293.511 367.016V369.032Z" fill="#777777"/>
<path d="M266.484 340.096V341.564H275.043V340.043H268.641L272.62 335.799C273.77 334.579 274.583 333.376 274.583 331.997V331.82C274.583 329.963 273.186 328.619 270.604 328.619C268.252 328.619 267.121 330.087 266.519 331.183L267.863 332.05C268.694 330.564 269.702 330.193 270.64 330.193C271.966 330.193 272.833 330.812 272.833 331.82V331.961C272.833 332.633 272.691 333.341 271.241 334.932L266.484 340.096ZM282.358 333.429V337.337H278.043L283.914 328.813H281.987L275.992 337.514V338.823H282.358V341.564H284.091V338.823H285.895V337.337H284.091V333.429H282.358ZM295.579 334.189C295.579 330.617 294.076 328.619 291.07 328.619C288.099 328.619 286.56 330.617 286.56 334.189V336.17C286.56 339.742 288.046 341.758 291.07 341.758C294.129 341.758 295.579 339.778 295.579 336.17V334.189ZM293.793 336.188C293.793 339.336 292.626 340.131 291.07 340.131C289.584 340.131 288.346 339.318 288.346 336.188V334.172C288.346 331.077 289.584 330.246 291.07 330.246C292.626 330.246 293.793 331.059 293.793 334.172V336.188Z" fill="#777777"/>
<path d="M266.202 405.782V407.249H274.761V405.728H268.359L272.338 401.484C273.488 400.264 274.301 399.062 274.301 397.682V397.505C274.301 395.648 272.904 394.304 270.322 394.304C267.97 394.304 266.838 395.772 266.237 396.869L267.581 397.735C268.412 396.25 269.42 395.878 270.357 395.878C271.684 395.878 272.55 396.497 272.55 397.505V397.647C272.55 398.319 272.409 399.026 270.959 400.618L266.202 405.782ZM282.076 399.115V403.023H277.761L283.632 394.499H281.704L275.709 403.2V404.508H282.076V407.249H283.809V404.508H285.613V403.023H283.809V399.115H282.076ZM295.297 399.875C295.297 396.303 293.794 394.304 290.788 394.304C287.817 394.304 286.278 396.303 286.278 399.875V401.856C286.278 405.428 287.764 407.444 290.788 407.444C293.847 407.444 295.297 405.463 295.297 401.856V399.875ZM293.511 401.873C293.511 405.021 292.344 405.817 290.788 405.817C289.302 405.817 288.064 405.003 288.064 401.873V399.857C288.064 396.763 289.302 395.931 290.788 395.931C292.344 395.931 293.511 396.745 293.511 399.857V401.873Z" fill="#777777"/>
<path d="M266.202 437.36V438.828H274.761V437.307H268.359L272.338 433.063C273.488 431.843 274.301 430.64 274.301 429.261V429.084C274.301 427.227 272.904 425.883 270.322 425.883C267.97 425.883 266.838 427.351 266.237 428.447L267.581 429.314C268.412 427.828 269.42 427.457 270.357 427.457C271.684 427.457 272.55 428.076 272.55 429.084V429.225C272.55 429.897 272.409 430.605 270.959 432.196L266.202 437.36ZM285.117 434.725C285.117 432.568 283.738 430.782 281.315 430.782C280.254 430.782 279.335 431.135 278.769 431.56L278.963 427.581H284.286V426.078H277.372L276.965 433.257H278.309C278.875 432.709 279.724 432.249 280.802 432.249C282.429 432.249 283.367 433.081 283.367 434.778V434.99C283.367 436.175 282.571 437.431 280.714 437.431C279.529 437.431 278.433 437.166 277.213 436.211L276.346 437.608C277.549 438.563 278.946 439.022 280.679 439.022C283.862 439.022 285.117 436.865 285.117 434.99V434.725ZM295.297 431.454C295.297 427.881 293.794 425.883 290.788 425.883C287.817 425.883 286.278 427.881 286.278 431.454V433.434C286.278 437.006 287.764 439.022 290.788 439.022C293.847 439.022 295.297 437.042 295.297 433.434V431.454ZM293.511 433.452C293.511 436.6 292.344 437.396 290.788 437.396C289.302 437.396 288.064 436.582 288.064 433.452V431.436C288.064 428.341 289.302 427.51 290.788 427.51C292.344 427.51 293.511 428.324 293.511 431.436V433.452Z" fill="#777777"/>
<path d="M266.202 468.938V470.406H274.761V468.885H268.359L272.338 464.641C273.488 463.421 274.301 462.218 274.301 460.839V460.662C274.301 458.805 272.904 457.461 270.322 457.461C267.97 457.461 266.838 458.929 266.237 460.025L267.581 460.892C268.412 459.406 269.42 459.035 270.357 459.035C271.684 459.035 272.55 459.654 272.55 460.662V460.804C272.55 461.476 272.409 462.183 270.959 463.774L266.202 468.938ZM285.117 466.303C285.117 464.146 283.738 462.36 281.315 462.36C280.254 462.36 279.335 462.713 278.769 463.138L278.963 459.159H284.286V457.656H277.372L276.965 464.836H278.309C278.875 464.287 279.724 463.828 280.802 463.828C282.429 463.828 283.367 464.659 283.367 466.356V466.569C283.367 467.753 282.571 469.009 280.714 469.009C279.529 469.009 278.433 468.744 277.213 467.789L276.346 469.186C277.549 470.141 278.946 470.601 280.679 470.601C283.862 470.601 285.117 468.443 285.117 466.569V466.303ZM295.297 463.032C295.297 459.46 293.794 457.461 290.788 457.461C287.817 457.461 286.278 459.46 286.278 463.032V465.012C286.278 468.585 287.764 470.601 290.788 470.601C293.847 470.601 295.297 468.62 295.297 465.012V463.032ZM293.511 465.03C293.511 468.178 292.344 468.974 290.788 468.974C289.302 468.974 288.064 468.16 288.064 465.03V463.014C288.064 459.919 289.302 459.088 290.788 459.088C292.344 459.088 293.511 459.902 293.511 463.014V465.03Z" fill="#777777"/>
<path d="M38.7605 145.179C41.3778 145.179 42.5626 143.747 42.5626 142.403V141.837C42.5626 140.493 41.3778 139.06 38.7605 139.06C36.1433 139.06 34.9584 140.475 34.9584 141.837V142.403C34.9584 143.747 36.1433 145.179 38.7605 145.179ZM36.4439 147.796H45.003V151.74H46.7538V146.293H36.4439V147.796ZM49.0704 139.556H46.7538V135.276H45.0207V145.444H46.7538V141.076H49.0704V139.556ZM43.4292 136.991H39.627V135.064H37.894V136.991H34.0742V138.459H43.4292V136.991ZM38.7605 143.782C37.3281 143.782 36.6207 143.022 36.6207 142.314V141.925C36.6207 141.218 37.3104 140.457 38.7605 140.457C40.2106 140.457 40.9003 141.218 40.9003 141.925V142.314C40.9003 143.022 40.1929 143.782 38.7605 143.782ZM53.0749 149.017C53.0749 150.75 55.0555 152.041 58.1679 152.041C61.2803 152.041 63.261 150.732 63.261 149.017V148.309C63.261 146.594 61.2803 145.285 58.1679 145.285C55.0555 145.285 53.0749 146.576 53.0749 148.309V149.017ZM61.4749 138.972H59.8125V135.488H58.1502V144.436H59.8125V140.475H61.4749V145.073H63.1549V135.276H61.4749V138.972ZM53.4285 141.289C53.517 141.554 53.8707 141.925 54.3128 142.367C54.7902 142.845 55.4976 143.517 56.2934 144.189L57.3898 143.022C56.541 142.332 55.7275 141.642 55.1616 140.988C54.3481 140.051 54.2243 139.326 54.2243 138.265V136.107H52.5267V138.371C52.5267 139.485 52.4205 140.068 51.6601 141.006C51.2003 141.589 50.1747 142.544 49.0782 143.517L50.1923 144.702C51.1827 143.835 52.1907 142.88 52.6504 142.35C52.9511 142.014 53.3401 141.572 53.4109 141.289H53.4285ZM61.5456 148.91C61.5456 149.777 60.1662 150.608 58.1679 150.608C56.1696 150.608 54.7902 149.777 54.7902 148.893V148.415C54.7902 147.549 56.1696 146.718 58.1679 146.718C60.1662 146.718 61.5456 147.549 61.5456 148.415V148.91ZM69.1627 148.097V149.565H77.7218V148.044H71.3202L75.2991 143.8C76.4486 142.58 77.262 141.377 77.262 139.998V139.821C77.262 137.964 75.865 136.62 73.2831 136.62C70.9311 136.62 69.7993 138.088 69.198 139.184L70.542 140.051C71.3732 138.565 72.3812 138.194 73.3185 138.194C74.6448 138.194 75.5113 138.813 75.5113 139.821V139.962C75.5113 140.634 75.3698 141.342 73.9197 142.933L69.1627 148.097Z" fill="#444444"/>
<path d="M38.7605 176.758C41.3778 176.758 42.5626 175.325 42.5626 173.981V173.415C42.5626 172.071 41.3778 170.639 38.7605 170.639C36.1433 170.639 34.9584 172.054 34.9584 173.415V173.981C34.9584 175.325 36.1433 176.758 38.7605 176.758ZM36.4439 179.375H45.003V183.319H46.7538V177.872H36.4439V179.375ZM49.0704 171.134H46.7538V166.855H45.0207V177.023H46.7538V172.655H49.0704V171.134ZM43.4292 168.57H39.627V166.642H37.894V168.57H34.0742V170.038H43.4292V168.57ZM38.7605 175.361C37.3281 175.361 36.6207 174.6 36.6207 173.893V173.504C36.6207 172.796 37.3104 172.036 38.7605 172.036C40.2106 172.036 40.9003 172.796 40.9003 173.504V173.893C40.9003 174.6 40.1929 175.361 38.7605 175.361ZM53.0749 180.595C53.0749 182.328 55.0555 183.619 58.1679 183.619C61.2803 183.619 63.261 182.311 63.261 180.595V179.888C63.261 178.172 61.2803 176.864 58.1679 176.864C55.0555 176.864 53.0749 178.155 53.0749 179.888V180.595ZM61.4749 170.551H59.8125V167.067H58.1502V176.015H59.8125V172.054H61.4749V176.652H63.1549V166.855H61.4749V170.551ZM53.4285 172.867C53.517 173.132 53.8707 173.504 54.3128 173.946C54.7902 174.423 55.4976 175.095 56.2934 175.767L57.3898 174.6C56.541 173.911 55.7275 173.221 55.1616 172.567C54.3481 171.629 54.2243 170.904 54.2243 169.843V167.686H52.5267V169.949C52.5267 171.063 52.4205 171.647 51.6601 172.584C51.2003 173.168 50.1747 174.123 49.0782 175.095L50.1923 176.28C51.1827 175.414 52.1907 174.459 52.6504 173.928C52.9511 173.592 53.3401 173.15 53.4109 172.867H53.4285ZM61.5456 180.489C61.5456 181.356 60.1662 182.187 58.1679 182.187C56.1696 182.187 54.7902 181.356 54.7902 180.471V179.994C54.7902 179.127 56.1696 178.296 58.1679 178.296C60.1662 178.296 61.5456 179.127 61.5456 179.994V180.489ZM70.6128 171.028C71.3025 170.126 72.0452 169.755 73.0886 169.755C74.238 169.755 75.193 170.321 75.193 171.435V171.576C75.193 172.673 74.6448 173.734 73.0532 173.734H71.55V175.255H73.1239C74.6094 175.255 75.7589 175.75 75.7589 177.43V177.66C75.7589 178.809 74.91 179.746 73.0532 179.746C71.9568 179.746 71.0726 179.428 69.8347 178.526L68.9682 179.923C70.1707 180.878 71.5677 181.338 73.0532 181.338C76.1833 181.338 77.5096 179.516 77.5096 177.642V177.377C77.5096 175.909 76.6431 174.742 74.9277 174.441C76.5016 173.875 76.926 172.567 76.926 171.559V171.382C76.926 169.472 75.4229 168.199 73.0709 168.199C71.161 168.199 70.0999 169.047 69.3572 170.108L70.6128 171.028Z" fill="#444444"/>
<path d="M38.7605 208.336C41.3778 208.336 42.5626 206.903 42.5626 205.559V204.994C42.5626 203.65 41.3778 202.217 38.7605 202.217C36.1433 202.217 34.9584 203.632 34.9584 204.994V205.559C34.9584 206.903 36.1433 208.336 38.7605 208.336ZM36.4439 210.953H45.003V214.897H46.7538V209.45H36.4439V210.953ZM49.0704 202.712H46.7538V198.433H45.0207V208.601H46.7538V204.233H49.0704V202.712ZM43.4292 200.148H39.627V198.22H37.894V200.148H34.0742V201.616H43.4292V200.148ZM38.7605 206.939C37.3281 206.939 36.6207 206.178 36.6207 205.471V205.082C36.6207 204.375 37.3104 203.614 38.7605 203.614C40.2106 203.614 40.9003 204.375 40.9003 205.082V205.471C40.9003 206.178 40.1929 206.939 38.7605 206.939ZM53.0749 212.173C53.0749 213.906 55.0555 215.197 58.1679 215.197C61.2803 215.197 63.261 213.889 63.261 212.173V211.466C63.261 209.751 61.2803 208.442 58.1679 208.442C55.0555 208.442 53.0749 209.733 53.0749 211.466V212.173ZM61.4749 202.129H59.8125V198.645H58.1502V207.593H59.8125V203.632H61.4749V208.23H63.1549V198.433H61.4749V202.129ZM53.4285 204.445C53.517 204.711 53.8707 205.082 54.3128 205.524C54.7902 206.002 55.4976 206.674 56.2934 207.346L57.3898 206.178C56.541 205.489 55.7275 204.799 55.1616 204.145C54.3481 203.207 54.2243 202.482 54.2243 201.421V199.264H52.5267V201.527C52.5267 202.642 52.4205 203.225 51.6601 204.162C51.2003 204.746 50.1747 205.701 49.0782 206.674L50.1923 207.858C51.1827 206.992 52.1907 206.037 52.6504 205.506C52.9511 205.17 53.3401 204.728 53.4109 204.445H53.4285ZM61.5456 212.067C61.5456 212.934 60.1662 213.765 58.1679 213.765C56.1696 213.765 54.7902 212.934 54.7902 212.05V211.572C54.7902 210.706 56.1696 209.874 58.1679 209.874C60.1662 209.874 61.5456 210.706 61.5456 211.572V212.067ZM74.8747 204.587V208.495H70.5597L76.4309 199.971H74.5033L68.5084 208.672V209.98H74.8747V212.722H76.6077V209.98H78.4115V208.495H76.6077V204.587H74.8747Z" fill="#444444"/>
<rect x="0.395915" y="287.342" width="111.629" height="32.0503" fill="#F5F5F5" stroke="#818D9B" stroke-width="0.79183"/>
<rect x="0.395915" y="416.184" width="111.629" height="32.0503" fill="#F5F5F5" stroke="#818D9B" stroke-width="0.79183"/>
<path d="M0.395915 318.923H112.025V352.237H0.395915V318.923Z" fill="#F5F5F5" stroke="#818D9B" stroke-width="0.79183"/>
<path d="M0.395915 447.765H112.025V481.078H0.395915V447.765Z" fill="#F5F5F5" stroke="#818D9B" stroke-width="0.79183"/>
<rect x="111.554" y="52.3959" width="112.261" height="42.1555" fill="#32C3BE" fill-opacity="0.2" stroke="#818D9B" stroke-width="0.79183"/>
<path d="M223.974 52.3959H328.42C332.387 52.3959 335.603 55.6119 335.603 59.5789V94.5514H223.974V52.3959Z" fill="#32C3BE" fill-opacity="0.2" stroke="#818D9B" stroke-width="0.79183"/>
<path d="M38.7605 242.443C41.3778 242.443 42.5626 241.011 42.5626 239.667V239.101C42.5626 237.757 41.3778 236.325 38.7605 236.325C36.1433 236.325 34.9584 237.739 34.9584 239.101V239.667C34.9584 241.011 36.1433 242.443 38.7605 242.443ZM36.4439 245.061H45.003V249.004H46.7538V243.557H36.4439V245.061ZM49.0704 236.82H46.7538V232.54H45.0207V242.709H46.7538V238.341H49.0704V236.82ZM43.4292 234.255H39.627V232.328H37.894V234.255H34.0742V235.723H43.4292V234.255ZM38.7605 241.046C37.3281 241.046 36.6207 240.286 36.6207 239.578V239.189C36.6207 238.482 37.3104 237.722 38.7605 237.722C40.2106 237.722 40.9003 238.482 40.9003 239.189V239.578C40.9003 240.286 40.1929 241.046 38.7605 241.046ZM53.0749 246.281C53.0749 248.014 55.0555 249.305 58.1679 249.305C61.2803 249.305 63.261 247.996 63.261 246.281V245.573C63.261 243.858 61.2803 242.549 58.1679 242.549C55.0555 242.549 53.0749 243.84 53.0749 245.573V246.281ZM61.4749 236.236H59.8125V232.752H58.1502V241.701H59.8125V237.739H61.4749V242.337H63.1549V232.54H61.4749V236.236ZM53.4285 238.553C53.517 238.818 53.8707 239.189 54.3128 239.631C54.7902 240.109 55.4976 240.781 56.2934 241.453L57.3898 240.286C56.541 239.596 55.7275 238.906 55.1616 238.252C54.3481 237.315 54.2243 236.59 54.2243 235.529V233.371H52.5267V235.635C52.5267 236.749 52.4205 237.333 51.6601 238.27C51.2003 238.853 50.1747 239.808 49.0782 240.781L50.1923 241.966C51.1827 241.099 52.1907 240.144 52.6504 239.614C52.9511 239.278 53.3401 238.836 53.4109 238.553H53.4285ZM61.5456 246.175C61.5456 247.041 60.1662 247.872 58.1679 247.872C56.1696 247.872 54.7902 247.041 54.7902 246.157V245.679C54.7902 244.813 56.1696 243.982 58.1679 243.982C60.1662 243.982 61.5456 244.813 61.5456 245.679V246.175ZM77.9164 242.726C77.9164 240.569 76.537 238.783 74.1143 238.783C73.0532 238.783 72.1336 239.136 71.5677 239.561L71.7623 235.582H77.0852V234.079H70.1707L69.7639 241.258H71.1079C71.6738 240.71 72.5227 240.25 73.6014 240.25C75.2284 240.25 76.1656 241.082 76.1656 242.779V242.991C76.1656 244.176 75.3698 245.432 73.513 245.432C72.3282 245.432 71.2317 245.167 70.0115 244.212L69.145 245.609C70.3475 246.564 71.7446 247.023 73.4776 247.023C76.6608 247.023 77.9164 244.866 77.9164 242.991V242.726Z" fill="#444444"/>
<path d="M38.7605 371.286C41.3778 371.286 42.5626 369.853 42.5626 368.509V367.943C42.5626 366.599 41.3778 365.167 38.7605 365.167C36.1433 365.167 34.9584 366.582 34.9584 367.943V368.509C34.9584 369.853 36.1433 371.286 38.7605 371.286ZM36.4439 373.903H45.003V377.846H46.7538V372.4H36.4439V373.903ZM49.0704 365.662H46.7538V361.382H45.0207V371.551H46.7538V367.183H49.0704V365.662ZM43.4292 363.098H39.627V361.17H37.894V363.098H34.0742V364.566H43.4292V363.098ZM38.7605 369.888C37.3281 369.888 36.6207 369.128 36.6207 368.421V368.032C36.6207 367.324 37.3104 366.564 38.7605 366.564C40.2106 366.564 40.9003 367.324 40.9003 368.032V368.421C40.9003 369.128 40.1929 369.888 38.7605 369.888ZM53.0749 375.123C53.0749 376.856 55.0555 378.147 58.1679 378.147C61.2803 378.147 63.261 376.838 63.261 375.123V374.416C63.261 372.7 61.2803 371.392 58.1679 371.392C55.0555 371.392 53.0749 372.683 53.0749 374.416V375.123ZM61.4749 365.078H59.8125V361.595H58.1502V370.543H59.8125V366.582H61.4749V371.179H63.1549V361.382H61.4749V365.078ZM53.4285 367.395C53.517 367.66 53.8707 368.032 54.3128 368.474C54.7902 368.951 55.4976 369.623 56.2934 370.295L57.3898 369.128C56.541 368.438 55.7275 367.749 55.1616 367.094C54.3481 366.157 54.2243 365.432 54.2243 364.371V362.214H52.5267V364.477C52.5267 365.591 52.4205 366.175 51.6601 367.112C51.2003 367.696 50.1747 368.651 49.0782 369.623L50.1923 370.808C51.1827 369.942 52.1907 368.987 52.6504 368.456C52.9511 368.12 53.3401 367.678 53.4109 367.395H53.4285ZM61.5456 375.017C61.5456 375.883 60.1662 376.715 58.1679 376.715C56.1696 376.715 54.7902 375.883 54.7902 374.999V374.522C54.7902 373.655 56.1696 372.824 58.1679 372.824C60.1662 372.824 61.5456 373.655 61.5456 374.522V375.017ZM69.5164 374.964C70.4713 375.547 71.6738 375.866 72.8233 375.866C75.9888 375.866 77.7218 374.15 77.7218 368.562V367.908C77.7218 364.495 76.1126 362.726 73.2831 362.726C70.6835 362.726 68.9328 364.459 68.9328 366.9V367.289C68.9328 369.782 70.6835 371.356 72.9471 371.356C74.3618 371.356 75.5644 370.649 75.9888 369.906C75.918 373.231 74.6978 374.256 72.9294 374.256C71.9214 374.256 70.9842 373.938 70.1884 373.478L69.5164 374.964ZM75.9357 367.289C75.9357 368.686 74.857 369.8 73.3008 369.8C71.7976 369.8 70.6835 368.88 70.6835 367.183V366.953C70.6835 365.291 71.7092 364.318 73.3538 364.318C74.9454 364.318 75.9357 365.397 75.9357 367.041V367.289Z" fill="#444444"/>
<path d="M38.7605 274.021C41.3778 274.021 42.5626 272.589 42.5626 271.245V270.679C42.5626 269.335 41.3778 267.903 38.7605 267.903C36.1433 267.903 34.9584 269.317 34.9584 270.679V271.245C34.9584 272.589 36.1433 274.021 38.7605 274.021ZM36.4439 276.639H45.003V280.582H46.7538V275.135H36.4439V276.639ZM49.0704 268.398H46.7538V264.118H45.0207V274.287H46.7538V269.919H49.0704V268.398ZM43.4292 265.834H39.627V263.906H37.894V265.834H34.0742V267.301H43.4292V265.834ZM38.7605 272.624C37.3281 272.624 36.6207 271.864 36.6207 271.157V270.767C36.6207 270.06 37.3104 269.3 38.7605 269.3C40.2106 269.3 40.9003 270.06 40.9003 270.767V271.157C40.9003 271.864 40.1929 272.624 38.7605 272.624ZM53.0749 277.859C53.0749 279.592 55.0555 280.883 58.1679 280.883C61.2803 280.883 63.261 279.574 63.261 277.859V277.151C63.261 275.436 61.2803 274.127 58.1679 274.127C55.0555 274.127 53.0749 275.418 53.0749 277.151V277.859ZM61.4749 267.814H59.8125V264.33H58.1502V273.279H59.8125V269.317H61.4749V273.915H63.1549V264.118H61.4749V267.814ZM53.4285 270.131C53.517 270.396 53.8707 270.767 54.3128 271.21C54.7902 271.687 55.4976 272.359 56.2934 273.031L57.3898 271.864C56.541 271.174 55.7275 270.485 55.1616 269.83C54.3481 268.893 54.2243 268.168 54.2243 267.107V264.949H52.5267V267.213C52.5267 268.327 52.4205 268.911 51.6601 269.848C51.2003 270.431 50.1747 271.386 49.0782 272.359L50.1923 273.544C51.1827 272.677 52.1907 271.722 52.6504 271.192C52.9511 270.856 53.3401 270.414 53.4109 270.131H53.4285ZM61.5456 277.753C61.5456 278.619 60.1662 279.45 58.1679 279.45C56.1696 279.45 54.7902 278.619 54.7902 277.735V277.258C54.7902 276.391 56.1696 275.56 58.1679 275.56C60.1662 275.56 61.5456 276.391 61.5456 277.258V277.753ZM77.3328 266.329C76.3778 265.745 75.1753 265.462 74.0258 265.462C71.161 265.462 69.1273 267.107 69.1273 272.695V273.349C69.1273 276.762 70.7012 278.602 73.566 278.602C76.1656 278.602 77.9164 276.939 77.9164 274.499V274.11C77.9164 271.616 76.1656 270.042 73.902 270.042C72.4873 270.042 71.2848 270.75 70.8604 271.493C70.9842 268.133 72.1867 267.071 73.9197 267.071C74.9277 267.071 75.865 267.354 76.6608 267.814L77.3328 266.329ZM70.9134 274.074C70.9134 272.677 71.9922 271.599 73.5484 271.599C75.1046 271.599 76.1656 272.483 76.1656 274.181V274.41C76.1656 276.073 75.1399 277.01 73.4953 277.01C71.9037 277.01 70.9134 275.967 70.9134 274.322V274.074Z" fill="#444444"/>
<path d="M33.6795 402.864C36.2968 402.864 37.4816 401.431 37.4816 400.087V399.521C37.4816 398.177 36.2968 396.745 33.6795 396.745C31.0623 396.745 29.8774 398.16 29.8774 399.521V400.087C29.8774 401.431 31.0623 402.864 33.6795 402.864ZM31.3629 405.481H39.922V409.424H41.6728V403.978H31.3629V405.481ZM43.9894 397.24H41.6728V392.96H39.9397V403.129H41.6728V398.761H43.9894V397.24ZM38.3482 394.676H34.546V392.748H32.813V394.676H28.9932V396.144H38.3482V394.676ZM33.6795 401.467C32.2471 401.467 31.5397 400.706 31.5397 399.999V399.61C31.5397 398.902 32.2294 398.142 33.6795 398.142C35.1296 398.142 35.8193 398.902 35.8193 399.61V399.999C35.8193 400.706 35.1119 401.467 33.6795 401.467ZM47.9939 406.701C47.9939 408.434 49.9745 409.725 53.0869 409.725C56.1993 409.725 58.18 408.416 58.18 406.701V405.994C58.18 404.278 56.1993 402.97 53.0869 402.97C49.9745 402.97 47.9939 404.261 47.9939 405.994V406.701ZM56.3939 396.656H54.7315V393.173H53.0692V402.121H54.7315V398.16H56.3939V402.758H58.0739V392.96H56.3939V396.656ZM48.3475 398.973C48.436 399.238 48.7897 399.61 49.2318 400.052C49.7092 400.529 50.4166 401.201 51.2124 401.873L52.3088 400.706C51.46 400.016 50.6465 399.327 50.0806 398.672C49.2671 397.735 49.1433 397.01 49.1433 395.949V393.792H47.4457V396.055C47.4457 397.169 47.3395 397.753 46.5791 398.69C46.1193 399.274 45.0937 400.229 43.9972 401.201L45.1113 402.386C46.1017 401.52 47.1097 400.565 47.5694 400.034C47.8701 399.698 48.2591 399.256 48.3299 398.973H48.3475ZM56.4646 406.595C56.4646 407.462 55.0852 408.293 53.0869 408.293C51.0886 408.293 49.7092 407.462 49.7092 406.577V406.1C49.7092 405.233 51.0886 404.402 53.0869 404.402C55.0852 404.402 56.4646 405.233 56.4646 406.1V406.595ZM70.4657 407.249V394.499H68.9979L64.8951 396.904L65.7263 398.319L68.7149 396.55V407.249H70.4657ZM83.0151 399.875C83.0151 396.303 81.5119 394.304 78.5056 394.304C75.5346 394.304 73.9961 396.303 73.9961 399.875V401.856C73.9961 405.428 75.4816 407.444 78.5056 407.444C81.5649 407.444 83.0151 405.463 83.0151 401.856V399.875ZM81.2289 401.873C81.2289 405.021 80.0618 405.817 78.5056 405.817C77.0201 405.817 75.7822 405.003 75.7822 401.873V399.857C75.7822 396.763 77.0201 395.931 78.5056 395.931C80.0618 395.931 81.2289 396.745 81.2289 399.857V401.873Z" fill="#444444"/>
<path d="M38.7605 305.6C41.3778 305.6 42.5626 304.168 42.5626 302.824V302.258C42.5626 300.914 41.3778 299.481 38.7605 299.481C36.1433 299.481 34.9584 300.896 34.9584 302.258V302.824C34.9584 304.168 36.1433 305.6 38.7605 305.6ZM36.4439 308.217H45.003V312.161H46.7538V306.714H36.4439V308.217ZM49.0704 299.976H46.7538V295.697H45.0207V305.865H46.7538V301.497H49.0704V299.976ZM43.4292 297.412H39.627V295.485H37.894V297.412H34.0742V298.88H43.4292V297.412ZM38.7605 304.203C37.3281 304.203 36.6207 303.443 36.6207 302.735V302.346C36.6207 301.639 37.3104 300.878 38.7605 300.878C40.2106 300.878 40.9003 301.639 40.9003 302.346V302.735C40.9003 303.443 40.1929 304.203 38.7605 304.203ZM53.0749 309.437C53.0749 311.171 55.0555 312.461 58.1679 312.461C61.2803 312.461 63.261 311.153 63.261 309.437V308.73C63.261 307.015 61.2803 305.706 58.1679 305.706C55.0555 305.706 53.0749 306.997 53.0749 308.73V309.437ZM61.4749 299.393H59.8125V295.909H58.1502V304.857H59.8125V300.896H61.4749V305.494H63.1549V295.697H61.4749V299.393ZM53.4285 301.709C53.517 301.975 53.8707 302.346 54.3128 302.788C54.7902 303.266 55.4976 303.938 56.2934 304.61L57.3898 303.443C56.541 302.753 55.7275 302.063 55.1616 301.409C54.3481 300.472 54.2243 299.747 54.2243 298.685V296.528H52.5267V298.792C52.5267 299.906 52.4205 300.489 51.6601 301.427C51.2003 302.01 50.1747 302.965 49.0782 303.938L50.1923 305.123C51.1827 304.256 52.1907 303.301 52.6504 302.771C52.9511 302.435 53.3401 301.992 53.4109 301.709H53.4285ZM61.5456 309.331C61.5456 310.198 60.1662 311.029 58.1679 311.029C56.1696 311.029 54.7902 310.198 54.7902 309.314V308.836C54.7902 307.97 56.1696 307.139 58.1679 307.139C60.1662 307.139 61.5456 307.97 61.5456 308.836V309.331ZM77.8633 298.579V297.235H69.0389V298.756H75.9711L70.9134 309.986H72.8233L77.8633 298.579Z" fill="#444444"/>
<path d="M33.6795 434.442C36.2968 434.442 37.4816 433.01 37.4816 431.666V431.1C37.4816 429.756 36.2968 428.324 33.6795 428.324C31.0623 428.324 29.8774 429.738 29.8774 431.1V431.666C29.8774 433.01 31.0623 434.442 33.6795 434.442ZM31.3629 437.06H39.922V441.003H41.6728V435.556H31.3629V437.06ZM43.9894 428.819H41.6728V424.539H39.9397V434.708H41.6728V430.34H43.9894V428.819ZM38.3482 426.254H34.546V424.327H32.813V426.254H28.9932V427.722H38.3482V426.254ZM33.6795 433.045C32.2471 433.045 31.5397 432.285 31.5397 431.577V431.188C31.5397 430.481 32.2294 429.721 33.6795 429.721C35.1296 429.721 35.8193 430.481 35.8193 431.188V431.577C35.8193 432.285 35.1119 433.045 33.6795 433.045ZM47.9939 438.28C47.9939 440.013 49.9745 441.304 53.0869 441.304C56.1993 441.304 58.18 439.995 58.18 438.28V437.572C58.18 435.857 56.1993 434.548 53.0869 434.548C49.9745 434.548 47.9939 435.839 47.9939 437.572V438.28ZM56.3939 428.235H54.7315V424.751H53.0692V433.7H54.7315V429.738H56.3939V434.336H58.0739V424.539H56.3939V428.235ZM48.3475 430.552C48.436 430.817 48.7897 431.188 49.2318 431.63C49.7092 432.108 50.4166 432.78 51.2124 433.452L52.3088 432.285C51.46 431.595 50.6465 430.905 50.0806 430.251C49.2671 429.314 49.1433 428.589 49.1433 427.528V425.37H47.4457V427.634C47.4457 428.748 47.3395 429.332 46.5791 430.269C46.1193 430.852 45.0937 431.807 43.9972 432.78L45.1113 433.965C46.1017 433.098 47.1097 432.143 47.5694 431.613C47.8701 431.277 48.2591 430.835 48.3299 430.552H48.3475ZM56.4646 438.174C56.4646 439.04 55.0852 439.871 53.0869 439.871C51.0886 439.871 49.7092 439.04 49.7092 438.156V437.678C49.7092 436.812 51.0886 435.981 53.0869 435.981C55.0852 435.981 56.4646 436.812 56.4646 437.678V438.174ZM70.4657 438.828V426.078H68.9979L64.8951 428.483L65.7263 429.897L68.7149 428.129V438.828H70.4657ZM80.6277 438.828V426.078H79.1599L75.0572 428.483L75.8883 429.897L78.8769 428.129V438.828H80.6277Z" fill="#444444"/>
<path d="M38.7605 337.178C41.3778 337.178 42.5626 335.746 42.5626 334.402V333.836C42.5626 332.492 41.3778 331.059 38.7605 331.059C36.1433 331.059 34.9584 332.474 34.9584 333.836V334.402C34.9584 335.746 36.1433 337.178 38.7605 337.178ZM36.4439 339.795H45.003V343.739H46.7538V338.292H36.4439V339.795ZM49.0704 331.555H46.7538V327.275H45.0207V337.443H46.7538V333.075H49.0704V331.555ZM43.4292 328.99H39.627V327.063H37.894V328.99H34.0742V330.458H43.4292V328.99ZM38.7605 335.781C37.3281 335.781 36.6207 335.021 36.6207 334.313V333.924C36.6207 333.217 37.3104 332.456 38.7605 332.456C40.2106 332.456 40.9003 333.217 40.9003 333.924V334.313C40.9003 335.021 40.1929 335.781 38.7605 335.781ZM53.0749 341.016C53.0749 342.749 55.0555 344.04 58.1679 344.04C61.2803 344.04 63.261 342.731 63.261 341.016V340.308C63.261 338.593 61.2803 337.284 58.1679 337.284C55.0555 337.284 53.0749 338.575 53.0749 340.308V341.016ZM61.4749 330.971H59.8125V327.487H58.1502V336.435H59.8125V332.474H61.4749V337.072H63.1549V327.275H61.4749V330.971ZM53.4285 333.288C53.517 333.553 53.8707 333.924 54.3128 334.366C54.7902 334.844 55.4976 335.516 56.2934 336.188L57.3898 335.021C56.541 334.331 55.7275 333.641 55.1616 332.987C54.3481 332.05 54.2243 331.325 54.2243 330.264V328.106H52.5267V330.37C52.5267 331.484 52.4205 332.067 51.6601 333.005C51.2003 333.588 50.1747 334.543 49.0782 335.516L50.1923 336.701C51.1827 335.834 52.1907 334.879 52.6504 334.349C52.9511 334.013 53.3401 333.571 53.4109 333.288H53.4285ZM61.5456 340.909C61.5456 341.776 60.1662 342.607 58.1679 342.607C56.1696 342.607 54.7902 341.776 54.7902 340.892V340.414C54.7902 339.548 56.1696 338.717 58.1679 338.717C60.1662 338.717 61.5456 339.548 61.5456 340.414V340.909ZM71.3025 332.085C71.3025 330.883 72.169 330.157 73.4246 330.157C74.6978 330.157 75.5467 330.883 75.5467 332.085V332.28C75.5467 333.535 74.6271 334.296 73.4246 334.296C72.2397 334.296 71.3025 333.535 71.3025 332.28V332.085ZM70.9665 337.974C70.9665 336.559 72.0629 335.834 73.4423 335.834C74.8393 335.834 75.8827 336.595 75.8827 337.974V338.168C75.8827 339.371 74.9631 340.184 73.4423 340.184C71.9214 340.184 70.9665 339.371 70.9665 338.168V337.974ZM69.1627 338.257C69.1627 340.291 70.7543 341.758 73.4246 341.758C76.0949 341.758 77.6865 340.291 77.6865 338.257V337.956C77.6865 336.559 76.7315 335.392 75.4936 335.021C76.7315 334.384 77.3151 333.288 77.3151 332.209V331.961C77.3151 330.14 75.8827 328.619 73.4246 328.619C70.9311 328.619 69.534 330.14 69.534 331.961V332.209C69.534 333.288 70.1353 334.437 71.3555 335.021C70.1353 335.392 69.1627 336.559 69.1627 337.956V338.257Z" fill="#444444"/>
<path d="M33.6795 466.02C36.2968 466.02 37.4816 464.588 37.4816 463.244V462.678C37.4816 461.334 36.2968 459.902 33.6795 459.902C31.0623 459.902 29.8774 461.316 29.8774 462.678V463.244C29.8774 464.588 31.0623 466.02 33.6795 466.02ZM31.3629 468.638H39.922V472.581H41.6728V467.134H31.3629V468.638ZM43.9894 460.397H41.6728V456.117H39.9397V466.286H41.6728V461.918H43.9894V460.397ZM38.3482 457.833H34.546V455.905H32.813V457.833H28.9932V459.3H38.3482V457.833ZM33.6795 464.623C32.2471 464.623 31.5397 463.863 31.5397 463.156V462.766C31.5397 462.059 32.2294 461.299 33.6795 461.299C35.1296 461.299 35.8193 462.059 35.8193 462.766V463.156C35.8193 463.863 35.1119 464.623 33.6795 464.623ZM47.9939 469.858C47.9939 471.591 49.9745 472.882 53.0869 472.882C56.1993 472.882 58.18 471.573 58.18 469.858V469.15C58.18 467.435 56.1993 466.126 53.0869 466.126C49.9745 466.126 47.9939 467.417 47.9939 469.15V469.858ZM56.3939 459.813H54.7315V456.329H53.0692V465.278H54.7315V461.316H56.3939V465.914H58.0739V456.117H56.3939V459.813ZM48.3475 462.13C48.436 462.395 48.7897 462.766 49.2318 463.209C49.7092 463.686 50.4166 464.358 51.2124 465.03L52.3088 463.863C51.46 463.173 50.6465 462.484 50.0806 461.829C49.2671 460.892 49.1433 460.167 49.1433 459.106V456.948H47.4457V459.212C47.4457 460.326 47.3395 460.91 46.5791 461.847C46.1193 462.43 45.0937 463.385 43.9972 464.358L45.1113 465.543C46.1017 464.676 47.1097 463.721 47.5694 463.191C47.8701 462.855 48.2591 462.413 48.3299 462.13H48.3475ZM56.4646 469.752C56.4646 470.618 55.0852 471.449 53.0869 471.449C51.0886 471.449 49.7092 470.618 49.7092 469.734V469.257C49.7092 468.39 51.0886 467.559 53.0869 467.559C55.0852 467.559 56.4646 468.39 56.4646 469.257V469.752ZM70.4657 470.406V457.656H68.9979L64.8951 460.061L65.7263 461.476L68.7149 459.707V470.406H70.4657ZM74.2437 468.938V470.406H82.8028V468.885H76.4012L80.3801 464.641C81.5296 463.421 82.3431 462.218 82.3431 460.839V460.662C82.3431 458.805 80.946 457.461 78.3641 457.461C76.0121 457.461 74.8803 458.929 74.2791 460.025L75.6231 460.892C76.4542 459.406 77.4622 459.035 78.3995 459.035C79.7258 459.035 80.5923 459.654 80.5923 460.662V460.804C80.5923 461.476 80.4508 462.183 79.0007 463.774L74.2437 468.938Z" fill="#444444"/>
<path d="M166.873 64.7769L160.938 64.8792L160.99 66.3457L166.788 66.1752C166.515 67.1813 165.355 68.3579 161.297 70.6089L162.166 71.9731C167.504 68.9718 168.544 67.5565 168.544 65.2885V60.8889H161.399V62.3384H166.873V64.7769ZM173.302 75.2301V59.5076H171.613V75.2301H173.302ZM157.18 82.9548C157.18 81.0348 157.648 79.2348 158.824 77.6508H157.72C156.532 79.0668 155.956 80.8788 155.956 83.0148V83.4948C155.956 85.6308 156.532 87.4668 157.72 88.8828H158.824C157.588 87.1908 157.18 85.3788 157.18 83.5548V82.9548ZM162.411 80.4708C160.695 80.4708 159.579 81.5388 159.579 83.4228V84.2508C159.579 86.1348 160.611 87.2508 162.423 87.2508C163.623 87.2508 164.391 86.8788 164.847 86.4948L164.283 85.6068C163.815 85.9548 163.299 86.2068 162.435 86.2068C161.571 86.2068 160.755 85.6548 160.755 84.2388V83.4108C160.755 82.0668 161.547 81.5028 162.411 81.5028C163.047 81.5028 163.515 81.6228 164.127 82.0668L164.679 81.1908C164.139 80.7828 163.491 80.4708 162.411 80.4708ZM174.913 82.8468C174.913 81.3348 174.085 80.4708 172.741 80.4708C171.709 80.4708 171.121 80.9268 170.701 81.5628C170.365 80.8668 169.693 80.4708 168.817 80.4708C167.905 80.4708 167.317 80.9028 167.065 81.4788H167.053V80.5908H165.901V87.1548H167.065V83.0028C167.065 81.9708 167.869 81.5268 168.589 81.5268C169.417 81.5268 169.825 82.0788 169.825 83.2188V87.1548H170.989V83.0628C170.989 81.9948 171.781 81.5268 172.513 81.5268C173.341 81.5268 173.749 82.0788 173.749 83.2188V87.1548H174.913V82.8468ZM177.558 83.5548C177.558 85.3788 177.15 87.1908 175.914 88.8828H177.018C178.206 87.4668 178.782 85.6308 178.782 83.4948V83.0148C178.782 80.8788 178.206 79.0668 177.018 77.6508H175.914C177.09 79.2348 177.558 81.0348 177.558 82.9548V83.5548Z" fill="#818D9B"/>
<path d="M260.361 75.3325V73.9341H251.92V72.4676H259.917V68.2556H250.18V69.6539H258.263V71.1034H250.266V75.3325H260.361ZM255.501 66.8914V59.968H253.847V62.236H249.959V59.968H248.305V66.8914H255.501ZM262.151 62.6965H259.917V59.5076H258.246V67.4371H259.917V64.163H262.151V62.6965ZM249.959 63.6173H253.847V65.4931H249.959V63.6173ZM281.662 65.1861H279.241V59.5076H277.553V75.2301H279.241V66.6527H281.662V65.1861ZM271.618 67.3348C271.755 67.6758 272.164 68.1533 272.641 68.6649C273.289 69.364 274.057 70.1314 275.233 71.2228L276.325 70.0632C275.302 69.1594 274.551 68.4432 273.818 67.6417C272.778 66.4821 272.454 65.783 272.454 64.4358V60.6501H270.749V64.4358C270.749 65.6466 270.476 66.4139 269.435 67.5906C268.668 68.4432 267.781 69.3129 266.741 70.2337L267.85 71.3762C269.009 70.319 269.913 69.4152 270.612 68.6478C271.158 68.051 271.448 67.7099 271.601 67.3348H271.618ZM295.324 75.2301V59.5076H293.636V75.2301H295.324ZM287.053 60.5649C284.751 60.5649 283.08 62.1167 283.08 65.135V66.9085C283.08 69.9097 284.751 71.4615 287.053 71.4615C289.356 71.4615 291.027 69.9097 291.027 66.9085V65.135C291.027 62.1337 289.356 60.5649 287.053 60.5649ZM287.053 69.9438C285.826 69.9438 284.7 69.0741 284.7 66.6697V65.3737C284.7 62.9693 285.826 62.0996 287.053 62.0996C288.264 62.0996 289.407 62.9693 289.407 65.3737V66.6697C289.407 69.0741 288.281 69.9438 287.053 69.9438ZM303.921 62.3725V63.4127C303.921 64.3676 303.614 65.0156 302.216 65.9024C301.142 66.5845 300.153 67.1131 298.635 67.9316L299.453 69.2617C300.732 68.5796 301.807 67.9998 302.966 67.2666C304.092 66.5504 304.672 66.0217 304.859 65.7148C305.03 66.0047 305.609 66.5162 306.735 67.2325C307.877 67.9487 308.815 68.4432 310.265 69.2106L311.049 67.8805C309.617 67.1131 308.798 66.6697 307.485 65.8682C306.019 64.9815 305.78 64.3506 305.78 63.4127V62.3725H310.282V60.9059H299.436V62.3725H303.921ZM297.646 71.7002V73.1327H312.072V71.7002H297.646ZM267.257 82.9548C267.257 81.0348 267.725 79.2348 268.901 77.6508H267.797C266.609 79.0668 266.033 80.8788 266.033 83.0148V83.4948C266.033 85.6308 266.609 87.4668 267.797 88.8828H268.901C267.665 87.1908 267.257 85.3788 267.257 83.5548V82.9548ZM279.004 82.8468C279.004 81.3348 278.176 80.4708 276.832 80.4708C275.8 80.4708 275.212 80.9268 274.792 81.5628C274.456 80.8668 273.784 80.4708 272.908 80.4708C271.996 80.4708 271.408 80.9028 271.156 81.4788H271.144V80.5908H269.992V87.1548H271.156V83.0028C271.156 81.9708 271.96 81.5268 272.68 81.5268C273.508 81.5268 273.916 82.0788 273.916 83.2188V87.1548H275.08V83.0628C275.08 81.9948 275.872 81.5268 276.604 81.5268C277.432 81.5268 277.84 82.0788 277.84 83.2188V87.1548H279.004V82.8468ZM289.677 82.8468C289.677 81.3348 288.849 80.4708 287.505 80.4708C286.473 80.4708 285.885 80.9268 285.465 81.5628C285.129 80.8668 284.457 80.4708 283.581 80.4708C282.669 80.4708 282.081 80.9028 281.829 81.4788H281.817V80.5908H280.665V87.1548H281.829V83.0028C281.829 81.9708 282.633 81.5268 283.353 81.5268C284.181 81.5268 284.589 82.0788 284.589 83.2188V87.1548H285.753V83.0628C285.753 81.9948 286.545 81.5268 287.277 81.5268C288.105 81.5268 288.513 82.0788 288.513 83.2188V87.1548H289.677V82.8468ZM292.322 83.5548C292.322 85.3788 291.914 87.1908 290.678 88.8828H291.782C292.97 87.4668 293.546 85.6308 293.546 83.4948V83.0148C293.546 80.8788 292.97 79.0668 291.782 77.6508H290.678C291.854 79.2348 292.322 81.0348 292.322 82.9548V83.5548Z" fill="#818D9B"/>
<path d="M73.3058 12.3179V12.3796C73.3058 13.382 72.874 14.1222 71.6866 14.8933C70.6996 15.5255 69.7898 16.0036 68.4481 16.6513L69.1883 17.8695C70.3603 17.2989 71.3165 16.7901 72.3651 16.1269C73.3829 15.4793 73.9072 15.0012 74.0768 14.7236H74.0922C74.2465 14.9858 74.7553 15.4484 75.7731 16.0961C76.8063 16.7438 77.6391 17.191 78.9653 17.8541L79.6901 16.6358C78.3793 16.0036 77.6391 15.6181 76.4517 14.8624C75.218 14.0759 74.8325 13.3666 74.8325 12.3796V12.3179H79.0578V10.9917H74.8325V9.09495H73.3058V10.9917H69.1112V12.3179H73.3058ZM74.8479 19.9668V17.3144H73.3058V19.9668H67.5537V21.2622H80.5999V19.9668H74.8479ZM81.0385 15.5409V16.8363H94.0847V15.5409H81.0385ZM82.9662 9.46505V14.3227H92.1725V13.0273H84.4774V10.7604H92.08V9.46505H82.9662ZM87.5616 23.5599C90.2912 23.5599 92.0029 22.4342 92.0029 21V20.4757C92.0029 19.0107 90.2757 17.9158 87.5616 17.9158C84.8475 17.9158 83.1204 18.9953 83.1204 20.4757V21C83.1204 22.4496 84.8475 23.5599 87.5616 23.5599ZM87.5616 19.1649C89.3042 19.1649 90.4916 19.828 90.4916 20.5682V20.9075C90.4916 21.6477 89.3042 22.3108 87.5616 22.3108C85.8191 22.3108 84.6316 21.6477 84.6316 20.9075V20.5682C84.6316 19.828 85.8191 19.1649 87.5616 19.1649ZM98.7796 17.5765C101.062 17.5765 102.095 16.3274 102.095 15.1554V14.6619C102.095 13.4899 101.062 12.2408 98.7796 12.2408C96.4972 12.2408 95.464 13.4745 95.464 14.6619V15.1554C95.464 16.3274 96.4972 17.5765 98.7796 17.5765ZM96.7594 19.8588H104.223V23.2977H105.75V18.5481H96.7594V19.8588ZM107.77 12.6726H105.75V8.94074H104.239V17.8078H105.75V13.9988H107.77V12.6726ZM102.851 10.4366H99.5352V8.75568H98.0239V10.4366H94.693V11.7165H102.851V10.4366ZM98.7796 16.3583C97.5305 16.3583 96.9136 15.6952 96.9136 15.0783V14.7391C96.9136 14.1222 97.515 13.4591 98.7796 13.4591C100.044 13.4591 100.646 14.1222 100.646 14.7391V15.0783C100.646 15.6952 100.029 16.3583 98.7796 16.3583ZM115.842 19.9668V15.0475H114.346V19.9668H112.465V15.0475H110.969V19.9668H108.008V21.2622H121.054V19.9668H115.842ZM109.612 10.2053V11.5315H117.77V12.6109C117.77 14.5232 117.708 16.1578 117.322 18.1163L118.834 18.3013C119.173 16.3737 119.281 14.8316 119.281 12.0712V10.2053H109.612ZM129.054 17.5765C131.336 17.5765 132.369 16.3274 132.369 15.1554V14.6619C132.369 13.4899 131.336 12.2408 129.054 12.2408C126.771 12.2408 125.738 13.4745 125.738 14.6619V15.1554C125.738 16.3274 126.771 17.5765 129.054 17.5765ZM127.034 19.8588H134.497V23.2977H136.024V18.5481H127.034V19.8588ZM138.044 12.6726H136.024V8.94074H134.513V17.8078H136.024V13.9988H138.044V12.6726ZM133.125 10.4366H129.809V8.75568H128.298V10.4366H124.967V11.7165H133.125V10.4366ZM129.054 16.3583C127.805 16.3583 127.188 15.6952 127.188 15.0783V14.7391C127.188 14.1222 127.789 13.4591 129.054 13.4591C130.318 13.4591 130.92 14.1222 130.92 14.7391V15.0783C130.92 15.6952 130.303 16.3583 129.054 16.3583ZM141.536 20.9229C141.536 22.4342 143.263 23.5599 145.977 23.5599C148.692 23.5599 150.419 22.4187 150.419 20.9229V20.3061C150.419 18.8102 148.692 17.6691 145.977 17.6691C143.263 17.6691 141.536 18.7948 141.536 20.3061V20.9229ZM148.861 12.1637H147.412V9.12579H145.962V16.9288H147.412V13.4745H148.861V17.484H150.326V8.94074H148.861V12.1637ZM141.845 14.1839C141.922 14.4152 142.23 14.7391 142.616 15.1246C143.032 15.5409 143.649 16.1269 144.343 16.7129L145.299 15.6952C144.559 15.0937 143.849 14.4923 143.356 13.9217C142.646 13.1044 142.539 12.4722 142.539 11.5469V9.66553H141.058V11.6394C141.058 12.6109 140.966 13.1198 140.302 13.9372C139.902 14.4461 139.007 15.2788 138.051 16.1269L139.023 17.1602C139.886 16.4045 140.765 15.5718 141.166 15.1092C141.428 14.8162 141.767 14.4306 141.829 14.1839H141.845ZM148.923 20.8304C148.923 21.586 147.72 22.3108 145.977 22.3108C144.235 22.3108 143.032 21.586 143.032 20.8149V20.3986C143.032 19.6429 144.235 18.9182 145.977 18.9182C147.72 18.9182 148.923 19.6429 148.923 20.3986V20.8304ZM163.348 23.2515V22.0024H155.129V20.9075H162.932V17.3606H153.556V18.6097H161.436V19.6892H153.633V23.2515H163.348ZM151.767 14.9858V16.2503H164.813V14.9858H151.767ZM153.695 9.31084V13.8755H162.901V12.5955H155.206V10.5908H162.809V9.31084H153.695ZM170.063 16.7438C172.392 16.7438 173.841 15.2325 173.841 13.6442V12.9348C173.841 11.3464 172.392 9.83516 170.063 9.83516C167.735 9.83516 166.285 11.3464 166.285 12.9348V13.6442C166.285 15.2325 167.735 16.7438 170.063 16.7438ZM170.063 15.4176C168.768 15.4176 167.75 14.554 167.75 13.5516V13.0273C167.75 11.9787 168.768 11.1614 170.063 11.1614C171.359 11.1614 172.376 11.9787 172.376 13.0273V13.5516C172.376 14.554 171.359 15.4176 170.063 15.4176ZM174.813 18.5481C172.253 18.7948 169.662 18.8873 165.591 18.8719V20.1981C169.632 20.1981 172.346 20.0902 174.952 19.828L174.813 18.5481ZM177.203 23.1589V8.94074H175.692V23.1589H177.203ZM188.117 13.7058L182.751 13.7984L182.797 15.1246L188.04 14.9704C187.793 15.8802 186.745 16.9443 183.074 18.9798L183.861 20.2135C188.688 17.4994 189.628 16.2195 189.628 14.1685V10.1898H183.167V11.5006H188.117V13.7058ZM193.931 23.1589V8.94074H192.404V23.1589H193.931ZM204.547 18.6252C203.283 18.7485 202.08 18.8411 200.708 18.8873V16.4971C202.543 16.1886 203.668 14.8316 203.668 13.5054V12.796C203.668 11.2847 202.25 9.74263 199.921 9.74263C197.592 9.74263 196.174 11.2847 196.174 12.796V13.5054C196.174 14.847 197.299 16.2041 199.15 16.4971V18.9336C198.101 18.949 196.929 18.9644 195.572 18.949V20.2752C199.613 20.2752 202.08 20.1673 204.686 19.9051L204.547 18.6252ZM209.035 14.3689H206.907V8.94074H205.396V23.1589H206.907V15.6952H209.035V14.3689ZM199.921 15.2325C198.626 15.2325 197.639 14.3535 197.639 13.4128V12.8885C197.639 11.9016 198.626 11.0688 199.921 11.0688C201.216 11.0688 202.203 11.9016 202.203 12.8885V13.4128C202.203 14.3535 201.216 15.2325 199.921 15.2325ZM223.943 23.2515V21.9869H216.309V20.6607H223.542V16.8517H214.737V18.1163H222.046V19.4271H214.814V23.2515H223.943ZM219.548 15.6181V9.3571H218.052V11.4081H214.536V9.3571H213.04V15.6181H219.548ZM225.562 11.8245H223.542V8.94074H222.031V16.1115H223.542V13.1507H225.562V11.8245ZM214.536 12.6572H218.052V14.3535H214.536V12.6572ZM242.413 14.0759H240.223V8.94074H238.697V23.1589H240.223V15.4022H242.413V14.0759ZM233.33 16.019C233.453 16.3274 233.824 16.7592 234.255 17.2218C234.841 17.8541 235.535 18.5481 236.599 19.535L237.586 18.4864C236.661 17.6691 235.983 17.0214 235.319 16.2966C234.379 15.2479 234.086 14.6157 234.086 13.3974V9.97395H232.544V13.3974C232.544 14.4923 232.297 15.1863 231.356 16.2503C230.662 17.0214 229.86 17.8078 228.92 18.6406L229.922 19.6738C230.971 18.7177 231.788 17.9004 232.42 17.2064C232.914 16.6667 233.176 16.3583 233.315 16.019H233.33ZM254.371 23.1589V8.94074H252.845V23.1589H254.371ZM246.892 9.89684C244.81 9.89684 243.299 11.3002 243.299 14.0297V15.6335C243.299 18.3476 244.81 19.7509 246.892 19.7509C248.974 19.7509 250.485 18.3476 250.485 15.6335V14.0297C250.485 11.3156 248.974 9.89684 246.892 9.89684ZM246.892 18.3784C245.782 18.3784 244.764 17.5919 244.764 15.4176V14.2456C244.764 12.0712 245.782 11.2847 246.892 11.2847C247.987 11.2847 249.02 12.0712 249.02 14.2456V15.4176C249.02 17.5919 248.002 18.3784 246.892 18.3784ZM261.749 11.5315V12.4722C261.749 13.3357 261.472 13.9217 260.207 14.7236C259.236 15.3405 258.341 15.8185 256.969 16.5587L257.709 17.7616C258.866 17.1447 259.837 16.6204 260.886 15.9573C261.904 15.3096 262.428 14.8316 262.597 14.554C262.752 14.8162 263.276 15.2788 264.294 15.9265C265.327 16.5742 266.175 17.0214 267.486 17.7153L268.195 16.5125C266.9 15.8185 266.16 15.4176 264.972 14.6928C263.646 13.8909 263.43 13.3203 263.43 12.4722V11.5315H267.501V10.2053H257.694V11.5315H261.749ZM256.074 19.9668V21.2622H269.121V19.9668H256.074Z" fill="#818D9B"/>
</svg>
