<svg width="785" height="140" viewBox="0 0 785 140" fill="none" xmlns="http://www.w3.org/2000/svg">
<path d="M386.5 67.6969C158.9 67.6969 34 21.513 0 0V140H785V0C747 21.513 614.1 67.6969 386.5 67.6969Z" fill="url(#paint0_linear_506_6357)" fill-opacity="0.7"/>
<path d="M681.5 126C733.691 126 776 119.732 776 112C776 104.268 733.691 98 681.5 98C629.309 98 587 104.268 587 112C587 119.732 629.309 126 681.5 126Z" fill="#074439" fill-opacity="0.3"/>
<path d="M674.384 22.3516H614.74V64.3676H674.384V22.3516Z" fill="#F5D628"/>
<path d="M644.554 27.2976C661.024 27.2976 674.376 25.2442 674.376 22.7113C674.376 20.1783 661.024 18.125 644.554 18.125C628.084 18.125 614.732 20.1783 614.732 22.7113C614.732 25.2442 628.084 27.2976 644.554 27.2976Z" fill="#FFE97B"/>
<path d="M672.714 22.7089C672.714 23.8941 668.937 24.9615 662.974 25.683C658.035 26.2793 651.593 26.64 644.563 26.64C637.525 26.64 631.084 26.2793 626.144 25.683C620.181 24.9615 616.412 23.9015 616.412 22.7089C616.412 21.5458 620.056 20.493 625.842 19.779C630.819 19.1606 637.378 18.7852 644.563 18.7852C651.748 18.7852 658.307 19.1606 663.283 19.779C669.07 20.493 672.714 21.5458 672.714 22.7089Z" fill="#E0B80E"/>
<path d="M614.741 64.3711C614.741 64.3711 586.825 120.187 644.562 120.187C702.299 120.187 674.384 64.3711 674.384 64.3711H614.741Z" fill="#F5D628"/>
<path d="M644.556 114.463C617.141 114.463 609.036 101.874 608.086 88.6602C607.1 103.715 613.173 120.197 644.556 120.197C675.938 120.197 682.011 103.707 681.025 88.6602C680.075 101.874 671.978 114.463 644.556 114.463Z" fill="#EFCB1D"/>
<path d="M632.142 84.5481C632.616 84.5481 632.999 84.0227 632.999 83.3746C632.999 82.7265 632.616 82.2012 632.142 82.2012C631.669 82.2012 631.285 82.7265 631.285 83.3746C631.285 84.0227 631.669 84.5481 632.142 84.5481Z" fill="#090B0A"/>
<path d="M655.857 84.5481C656.33 84.5481 656.714 84.0227 656.714 83.3746C656.714 82.7265 656.33 82.2012 655.857 82.2012C655.384 82.2012 655 82.7265 655 83.3746C655 84.0227 655.384 84.5481 655.857 84.5481Z" fill="#090B0A"/>
<path d="M644.579 99.938C652.129 99.938 658.249 96.685 658.249 92.6721C658.249 88.6593 652.129 85.4062 644.579 85.4062C637.029 85.4062 630.908 88.6593 630.908 92.6721C630.908 96.685 637.029 99.938 644.579 99.938Z" fill="#ECEFF5"/>
<path d="M647.265 89.9454C647.265 91.4472 646.043 92.6692 644.541 92.6692C643.039 92.6692 641.817 91.4472 641.817 89.9454C641.817 88.4436 643.039 87.9062 644.541 87.9062C646.05 87.9062 647.265 88.4363 647.265 89.9454Z" fill="#090B0A"/>
<path d="M647.772 97.2417C645.747 97.2417 644.371 95.8945 644.349 95.8798C644.29 95.8209 644.253 95.7325 644.253 95.6516V88.4372C644.253 88.2605 644.4 88.1133 644.577 88.1133C644.754 88.1133 644.901 88.2605 644.901 88.4372V95.5117C645.409 95.9608 647.831 97.7938 650.783 95.4013C650.923 95.2908 651.129 95.3056 651.239 95.4528C651.35 95.5927 651.335 95.7988 651.188 95.9092C649.951 96.9104 648.78 97.2417 647.772 97.2417Z" fill="#090B0A"/>
<path d="M641.383 97.1611C640.374 97.1611 639.204 96.8225 637.96 95.8213C637.82 95.7109 637.798 95.5048 637.908 95.3649C638.018 95.2251 638.225 95.203 638.364 95.3134C641.316 97.7059 643.731 95.8729 644.246 95.4238V88.3493C644.246 88.1726 644.394 88.0254 644.57 88.0254C644.747 88.0254 644.894 88.1726 644.894 88.3493V95.5637C644.894 95.652 644.857 95.733 644.798 95.7919C644.784 95.8213 643.4 97.1611 641.383 97.1611Z" fill="#090B0A"/>
<path d="M616.066 69.3815C616.066 69.3815 605.274 59.9439 616.014 55.7331C626.755 51.5149 626.107 66.3117 626.107 66.3117L616.066 69.3815Z" fill="#EDCB20"/>
<path d="M617.183 69.0095C617.183 69.0095 608.673 61.5963 617.183 58.2542C625.693 54.912 625.185 66.5801 625.185 66.5801L617.183 69.0095Z" fill="#ECEFF5"/>
<path d="M672.271 69.2698C672.271 69.2698 683.188 59.9427 672.448 55.7245C661.707 51.5063 662.355 66.1411 662.355 66.1411L672.271 69.2698Z" fill="#EDCB20"/>
<path d="M671.278 68.8912C671.278 68.8912 679.788 61.6033 671.278 58.2611C662.761 54.9116 663.284 66.3883 663.284 66.3883L671.278 68.8912Z" fill="#ECEFF5"/>
<path d="M611.898 71.285C616.904 68.7452 622.315 67.0521 627.8 65.8374C630.545 65.2264 633.328 64.7994 636.125 64.4829C638.923 64.181 641.735 64.0338 644.555 64.0117C650.186 64.0191 655.81 64.6301 661.31 65.83L663.356 66.3306L664.379 66.5809L665.395 66.8754L667.42 67.4643C668.09 67.6778 668.752 67.906 669.422 68.1269C670.762 68.5538 672.057 69.0986 673.368 69.6065C674.023 69.8495 674.663 70.1513 675.304 70.431L677.225 71.2923L675.267 70.5267C674.612 70.2691 673.971 69.9893 673.309 69.7759C671.984 69.3194 670.673 68.8262 669.326 68.4434C668.656 68.2373 667.994 68.0238 667.324 67.825L665.3 67.2876L664.284 67.0153L663.26 66.787L661.214 66.3306L659.153 65.9552L658.122 65.7638L657.084 65.6092L655.008 65.3074L652.925 65.0792C650.142 64.8141 647.352 64.6448 644.562 64.6816C641.772 64.6816 638.974 64.8068 636.199 65.0865C633.416 65.3663 630.656 65.808 627.91 66.338C625.171 66.8828 622.448 67.5527 619.775 68.3772C617.088 69.1796 614.446 70.1219 611.898 71.285Z" fill="#EFCB1D"/>
<path d="M693.387 64.3794L753.03 64.3794V22.3633L693.387 22.3633V64.3794Z" fill="#F5D628"/>
<path d="M723.209 27.2976C739.679 27.2976 753.03 25.2442 753.03 22.7113C753.03 20.1783 739.679 18.125 723.209 18.125C706.738 18.125 693.387 20.1783 693.387 22.7113C693.387 25.2442 706.738 27.2976 723.209 27.2976Z" fill="#FFE97B"/>
<path d="M695.059 22.7089C695.059 23.8941 698.835 24.9615 704.798 25.683C709.738 26.2793 716.179 26.64 723.209 26.64C730.247 26.64 736.688 26.2793 741.628 25.683C747.591 24.9615 751.36 23.9015 751.36 22.7089C751.36 21.5458 747.716 20.493 741.93 19.779C736.953 19.1606 730.394 18.7852 723.209 18.7852C716.024 18.7852 709.465 19.1606 704.489 19.779C698.703 20.493 695.059 21.5458 695.059 22.7089Z" fill="#E0B80E"/>
<path d="M753.031 64.3711C753.031 64.3711 780.946 120.187 723.209 120.187C665.472 120.187 693.387 64.3711 693.387 64.3711H753.031Z" fill="#F5D628"/>
<path d="M723.21 114.463C750.624 114.463 758.73 101.874 759.679 88.6602C760.666 103.715 754.592 120.197 723.21 120.197C691.827 120.197 685.754 103.707 686.74 88.6602C687.69 101.874 695.795 114.463 723.21 114.463Z" fill="#EFCB1D"/>
<path d="M723.196 99.938C730.746 99.938 736.866 96.685 736.866 92.6721C736.866 88.6593 730.746 85.4062 723.196 85.4062C715.646 85.4062 709.525 88.6593 709.525 92.6721C709.525 96.685 715.646 99.938 723.196 99.938Z" fill="#ECEFF5"/>
<path d="M720.501 89.9454C720.501 91.4472 721.723 92.6692 723.225 92.6692C724.727 92.6692 725.949 91.4472 725.949 89.9454C725.949 88.4436 724.727 87.9062 723.225 87.9062C721.723 87.9062 720.501 88.4363 720.501 89.9454Z" fill="#090B0A"/>
<path d="M719.998 97.2412C718.989 97.2412 717.819 96.9026 716.575 95.9014C716.435 95.791 716.413 95.5849 716.523 95.445C716.634 95.3051 716.84 95.283 716.98 95.3935C719.939 97.7933 722.346 95.9529 722.862 95.5039V88.4294C722.862 88.2527 723.009 88.1055 723.185 88.1055C723.362 88.1055 723.509 88.2527 723.509 88.4294V95.6437C723.509 95.7321 723.473 95.8131 723.414 95.872C723.399 95.9014 722.022 97.2412 719.998 97.2412Z" fill="#090B0A"/>
<path d="M726.39 97.1616C724.366 97.1616 722.989 95.8144 722.967 95.7997C722.908 95.7408 722.871 95.6525 722.871 95.5715V88.3571C722.871 88.1804 723.018 88.0332 723.195 88.0332C723.372 88.0332 723.519 88.1804 723.519 88.3571V95.4316C724.027 95.8807 726.449 97.7137 729.401 95.3212C729.541 95.2108 729.747 95.2328 729.857 95.3727C729.968 95.5126 729.953 95.7187 729.806 95.8291C728.569 96.8303 727.398 97.1616 726.39 97.1616Z" fill="#090B0A"/>
<path d="M751.699 69.3815C751.699 69.3815 762.491 59.9439 751.751 55.7331C741.01 51.5149 741.658 66.3117 741.658 66.3117L751.699 69.3815Z" fill="#EDCB20"/>
<path d="M750.588 69.0095C750.588 69.0095 759.098 61.5963 750.588 58.2542C742.078 54.912 742.586 66.5801 742.586 66.5801L750.588 69.0095Z" fill="#ECEFF5"/>
<path d="M695.501 69.2698C695.501 69.2698 684.583 59.9427 695.324 55.7245C706.064 51.5063 705.417 66.1411 705.417 66.1411L695.501 69.2698Z" fill="#EDCB20"/>
<path d="M696.495 68.893C696.495 68.893 687.985 61.605 696.495 58.2629C705.005 54.9207 704.49 66.3901 704.49 66.3901L696.495 68.893Z" fill="#ECEFF5"/>
<path d="M755.874 71.2884C753.327 70.1253 750.677 69.183 748.005 68.3732C745.332 67.5487 742.616 66.8715 739.87 66.3341C737.124 65.804 734.364 65.3623 731.581 65.0826C728.798 64.8029 726.008 64.6777 723.218 64.6777C720.428 64.6483 717.631 64.8102 714.855 65.0752L712.772 65.3035L710.696 65.6053L709.658 65.7599L708.627 65.9513L706.566 66.3267L704.52 66.7831L703.496 67.0114L702.48 67.2837L700.456 67.8211C699.786 68.0199 699.124 68.2334 698.454 68.4395C697.107 68.8223 695.796 69.3155 694.471 69.772C693.809 69.9928 693.161 70.2725 692.513 70.5228L690.555 71.2884L692.476 70.4271C693.117 70.1474 693.757 69.8456 694.412 69.6026C695.723 69.102 697.018 68.5573 698.358 68.123C699.021 67.9021 699.69 67.6739 700.36 67.4604L702.385 66.8715L703.401 66.577L704.424 66.3267L706.47 65.8261C711.97 64.6262 717.594 64.0152 723.225 64.0078C726.038 64.0299 728.857 64.1771 731.655 64.479C734.452 64.7955 737.235 65.2225 739.98 65.8335C745.45 67.0555 750.861 68.7487 755.874 71.2884Z" fill="#EFCB1D"/>
<path d="M231 125.001C274.63 125.001 310 119.695 310 113.151C310 106.606 274.63 101.301 231 101.301C187.37 101.301 152 106.606 152 113.151C152 119.695 187.37 125.001 231 125.001Z" fill="#00CDCD" fill-opacity="0.4"/>
<path d="M221.357 56.8599H171.222V72.9796H221.357V56.8599Z" fill="#46B028"/>
<path d="M196.281 60.7102C210.126 60.7102 221.349 58.9842 221.349 56.8551C221.349 54.726 210.126 53 196.281 53C182.437 53 171.214 54.726 171.214 56.8551C171.214 58.9842 182.437 60.7102 196.281 60.7102Z" fill="#77C65C"/>
<path d="M219.951 56.8573C219.951 57.8535 216.776 58.7508 211.764 59.3572C207.612 59.8584 202.197 60.1617 196.288 60.1617C190.372 60.1617 184.958 59.8584 180.806 59.3572C175.793 58.7508 172.625 57.8597 172.625 56.8573C172.625 55.8796 175.688 54.9947 180.552 54.3945C184.735 53.8747 190.248 53.5591 196.288 53.5591C202.327 53.5591 207.841 53.8747 212.024 54.3945C216.888 54.9947 219.951 55.8796 219.951 56.8573Z" fill="#217A0B"/>
<path d="M196.281 119.9C147.749 119.9 171.214 72.9824 171.214 72.9824H221.349C221.349 72.9824 244.82 119.9 196.281 119.9Z" fill="#46B028"/>
<path d="M196.282 119.9C158.418 119.9 164.377 91.3484 168.826 78.7868C173.034 76.6519 177.588 75.2287 182.192 74.2076C184.5 73.694 186.839 73.329 189.191 73.0629C189.457 73.0319 189.723 73.0072 189.989 72.9824H202.618C202.866 73.0072 203.12 73.0319 203.367 73.0567L205.131 73.2671L206.882 73.5393L207.755 73.6755L208.627 73.8487L210.366 74.2015L212.086 74.6222L212.946 74.8326L213.794 75.0801L215.496 75.5752C216.059 75.7546 216.616 75.9465 217.173 76.1321C218.299 76.491 219.388 76.9489 220.489 77.3759C221.046 77.5801 221.578 77.8338 222.117 78.0689L223.732 78.7929C228.187 91.3422 234.146 119.9 196.282 119.9Z" fill="#77C65C"/>
<path d="M218.962 106.076C218.962 112.138 213.698 117.053 196.317 117.053C178.937 117.053 173.673 112.138 173.673 106.076C173.673 101.853 178.591 98.1895 185.801 96.3505C186.283 96.2277 186.771 96.1139 187.272 96.009C187.927 95.9641 188.582 95.9252 189.237 95.8892C189.502 95.8742 189.768 95.8623 190.034 95.8503C192.122 95.7544 194.217 95.7095 196.311 95.7035C198.424 95.6945 200.537 95.7544 202.638 95.8503C202.885 95.8623 203.138 95.8742 203.386 95.8862L205.147 95.9881L205.313 96C205.826 96.1079 206.327 96.2247 206.821 96.3475C214.037 98.1835 218.962 101.85 218.962 106.076Z" fill="#ECED76"/>
<path d="M196.281 115.08C173.236 115.08 166.423 104.498 165.625 93.3906C164.796 106.045 169.901 119.9 196.281 119.9C222.66 119.9 227.765 106.039 226.936 93.3906C226.138 104.498 219.331 115.08 196.281 115.08Z" fill="#217A0B"/>
<path d="M200.978 67.9084C200.83 68.5891 200.483 69.2017 200.149 69.8081C199.604 70.7858 199.06 71.7635 198.46 72.7041C198.342 72.8835 198.231 73.063 198.107 73.2424C197.5 73.2301 196.888 73.2239 196.281 73.2239C195.923 73.2239 195.564 73.2301 195.205 73.2363C195.112 73.0506 194.976 72.8774 194.827 72.6979C194.493 72.3081 194.085 71.9306 193.85 71.5408C193.404 70.8168 193.07 70.0309 192.872 69.2017C192.618 68.1559 192.606 66.9678 193.237 66.0891C193.726 65.4085 194.536 65.0248 195.359 64.8763C196.182 64.7278 197.024 64.7959 197.859 64.8639C198.887 64.9444 200.038 65.0929 200.656 65.9159C201.065 66.479 201.133 67.2339 200.978 67.9084Z" fill="#8E5023"/>
<path d="M223.741 78.7834L222.095 78.1399C221.544 77.9295 221.006 77.6882 220.449 77.5087C219.335 77.1251 218.233 76.7105 217.101 76.3887C216.538 76.2154 215.981 76.036 215.418 75.8689L213.716 75.4172L212.862 75.1944L212.002 75.0026L210.282 74.6189C209.131 74.39 207.967 74.1919 206.804 74.0125C203.927 73.5793 201.018 73.3133 198.11 73.2452C197.504 73.2328 196.891 73.2266 196.285 73.2266C195.926 73.2266 195.567 73.2328 195.208 73.239C193.221 73.2699 191.229 73.3813 189.255 73.5793C188.085 73.6969 186.916 73.8454 185.759 74.0187C184.595 74.1919 183.444 74.3961 182.293 74.6189C179.985 75.0768 177.702 75.6399 175.456 76.333C173.21 77.0137 170.982 77.8057 168.841 78.7834C173.049 76.6486 177.603 75.2253 182.207 74.2043C183.871 73.833 185.548 73.5422 187.238 73.3071C187.894 73.2142 188.55 73.1338 189.205 73.0595C189.472 73.0286 189.738 73.0039 190.004 72.9791C191.613 72.8244 193.228 72.7378 194.843 72.6945C195.325 72.6821 195.808 72.6759 196.297 72.6759C197.027 72.6697 197.751 72.6821 198.475 72.7068C199.867 72.7563 201.253 72.8492 202.633 72.9791C202.881 73.0039 203.135 73.0286 203.382 73.0534L205.146 73.2638L205.313 73.2885L206.897 73.536L207.769 73.6722L208.642 73.8454L210.381 74.1981L212.101 74.6189L212.961 74.8293L213.809 75.0768L215.511 75.5719C216.074 75.7513 216.631 75.9431 217.188 76.1288C218.314 76.4877 219.403 76.9456 220.504 77.3726C221.061 77.5768 221.593 77.8305 222.132 78.0656L223.741 78.7834Z" fill="#217A0B"/>
<path d="M240.025 72.9795H290.16V56.8598L240.025 56.8598V72.9795Z" fill="#46B028"/>
<path d="M265.09 60.7102C278.934 60.7102 290.157 58.9842 290.157 56.8551C290.157 54.726 278.934 53 265.09 53C251.246 53 240.022 54.726 240.022 56.8551C240.022 58.9842 251.246 60.7102 265.09 60.7102Z" fill="#77C65C"/>
<path d="M241.424 56.8573C241.424 57.8535 244.598 58.7508 249.611 59.3572C253.763 59.8584 259.177 60.1617 265.087 60.1617C271.002 60.1617 276.417 59.8584 280.569 59.3572C285.581 58.7508 288.75 57.8597 288.75 56.8573C288.75 55.8796 285.686 54.9947 280.823 54.3945C276.64 53.8747 271.126 53.5591 265.087 53.5591C259.047 53.5591 253.534 53.8747 249.351 54.3945C244.487 54.9947 241.424 55.8796 241.424 56.8573Z" fill="#217A0B"/>
<path d="M265.09 119.9C313.622 119.9 290.157 72.9824 290.157 72.9824H240.022C240.022 72.9824 216.558 119.9 265.09 119.9Z" fill="#46B028"/>
<path d="M265.092 119.9C302.956 119.9 296.997 91.3484 292.548 78.7868C288.34 76.6519 283.786 75.2287 279.182 74.2076C276.874 73.694 274.535 73.329 272.183 73.0629C271.917 73.0319 271.651 73.0072 271.385 72.9824H258.755C258.508 73.0072 258.254 73.0319 258.007 73.0567L256.243 73.2671L254.492 73.5393L253.619 73.6755L252.747 73.8487L251.008 74.2015L249.288 74.6222L248.428 74.8326L247.58 75.0801L245.878 75.5752C245.315 75.7546 244.758 75.9465 244.201 76.1321C243.075 76.491 241.986 76.9489 240.884 77.3759C240.328 77.5801 239.795 77.8338 239.257 78.0689L237.642 78.7929C233.187 91.3422 227.228 119.9 265.092 119.9Z" fill="#77C65C"/>
<path d="M242.413 106.076C242.413 112.138 247.677 117.053 265.058 117.053C282.438 117.053 287.702 112.138 287.702 106.076C287.702 101.853 282.784 98.1895 275.574 96.3505C275.092 96.2277 274.603 96.1139 274.103 96.009C273.448 95.9641 272.793 95.9252 272.138 95.8892C271.873 95.8742 271.607 95.8623 271.341 95.8503C269.253 95.7544 267.158 95.7095 265.064 95.7035C262.951 95.6945 260.838 95.7544 258.737 95.8503C258.49 95.8623 258.236 95.8742 257.989 95.8862L256.228 95.9881L256.062 96C255.549 96.1079 255.048 96.2247 254.554 96.3475C247.337 98.1835 242.413 101.85 242.413 106.076Z" fill="#ECED76"/>
<path d="M265.092 115.08C288.136 115.08 294.949 104.498 295.747 93.3906C296.576 106.045 291.471 119.9 265.092 119.9C238.713 119.9 233.608 106.039 234.437 93.3906C235.235 104.498 242.048 115.08 265.092 115.08Z" fill="#217A0B"/>
<path d="M260.396 67.9084C260.544 68.5891 260.891 69.2017 261.225 69.8081C261.77 70.7858 262.314 71.7635 262.914 72.7041C263.032 72.8835 263.143 73.063 263.267 73.2424C263.874 73.2301 264.486 73.2239 265.093 73.2239C265.451 73.2239 265.81 73.2301 266.169 73.2363C266.262 73.0506 266.398 72.8774 266.547 72.6979C266.881 72.3081 267.289 71.9306 267.524 71.5408C267.97 70.8168 268.304 70.0309 268.502 69.2017C268.756 68.1559 268.768 66.9678 268.137 66.0891C267.648 65.4085 266.838 65.0248 266.015 64.8763C265.192 64.7278 264.35 64.7959 263.515 64.8639C262.487 64.9444 261.336 65.0929 260.718 65.9159C260.303 66.479 260.241 67.2339 260.396 67.9084Z" fill="#8E5023"/>
<path d="M237.63 78.7834L239.276 78.1399C239.827 77.9295 240.365 77.6882 240.922 77.5087C242.036 77.1251 243.137 76.7105 244.27 76.3887C244.833 76.2154 245.39 76.036 245.953 75.8689L247.654 75.4172L248.508 75.1944L249.368 75.0026L251.089 74.6189C252.24 74.39 253.403 74.1919 254.566 74.0125C257.444 73.5793 260.352 73.3133 263.261 73.2452C263.867 73.2328 264.48 73.2266 265.086 73.2266C265.445 73.2266 265.804 73.2328 266.163 73.239C268.149 73.2699 270.142 73.3813 272.116 73.5793C273.285 73.6969 274.455 73.8454 275.612 74.0187C276.775 74.1919 277.926 74.3961 279.077 74.6189C281.385 75.0768 283.668 75.6399 285.915 76.333C288.161 77.0137 290.389 77.8057 292.53 78.7834C288.322 76.6486 283.767 75.2253 279.164 74.2043C277.499 73.833 275.822 73.5422 274.133 73.3071C273.477 73.2142 272.821 73.1338 272.165 73.0595C271.899 73.0286 271.633 73.0039 271.367 72.9791C269.758 72.8244 268.143 72.7378 266.528 72.6945C266.045 72.6821 265.562 72.6759 265.074 72.6759C264.343 72.6697 263.619 72.6821 262.895 72.7068C261.503 72.7563 260.117 72.8492 258.737 72.9791C258.49 73.0039 258.236 73.0286 257.988 73.0534L256.225 73.2638L256.058 73.2885L254.474 73.536L253.601 73.6722L252.729 73.8454L250.99 74.1981L249.269 74.6189L248.409 74.8293L247.562 75.0768L245.86 75.5719C245.297 75.7513 244.74 75.9431 244.183 76.1288C243.057 76.4877 241.968 76.9456 240.866 77.3726C240.309 77.5768 239.777 77.8305 239.239 78.0656L237.63 78.7834Z" fill="#217A0B"/>
<path d="M78 124.203C113.346 124.203 142 119.95 142 114.703C142 109.456 113.346 105.203 78 105.203C42.6538 105.203 14 109.456 14 114.703C14 119.95 42.6538 124.203 78 124.203Z" fill="#074439" fill-opacity="0.3"/>
<path d="M70.3964 69.1045H30.0332V82.0823H70.3964V69.1045Z" fill="#E87081"/>
<path d="M50.207 72.2074C61.353 72.2074 70.3886 70.8178 70.3886 69.1037C70.3886 67.3896 61.353 66 50.207 66C39.061 66 30.0254 67.3896 30.0254 69.1037C30.0254 70.8178 39.061 72.2074 50.207 72.2074Z" fill="#E87081"/>
<path d="M69.2626 69.1026C69.2626 69.9047 66.7069 70.6271 62.6716 71.1153C59.3287 71.5188 54.9696 71.7629 50.2119 71.7629C45.4492 71.7629 41.09 71.5188 37.7472 71.1153C33.7119 70.6271 31.1611 69.9097 31.1611 69.1026C31.1611 68.3155 33.6272 67.6031 37.5429 67.1198C40.9107 66.7013 45.3495 66.4473 50.2119 66.4473C55.0742 66.4473 59.513 66.7013 62.8808 67.1198C66.7966 67.6031 69.2626 68.3155 69.2626 69.1026Z" fill="#7D8C9C"/>
<path d="M50.2081 119.86C11.1352 119.86 30.0265 82.0874 30.0265 82.0874H70.3898C70.3898 82.0874 89.2861 119.86 50.2081 119.86Z" fill="#E87081"/>
<path d="M50.2086 119.86C19.7245 119.86 24.522 96.8736 28.104 86.7604C31.4917 85.0417 35.1584 83.8958 38.8649 83.0738C40.7231 82.6603 42.6063 82.3664 44.4994 82.1522C44.7136 82.1273 44.9278 82.1073 45.1421 82.0874H55.3101C55.5094 82.1073 55.7136 82.1273 55.9129 82.1472L57.3327 82.3166L58.7426 82.5358L59.4451 82.6454L60.1475 82.7849L61.5474 83.0688L62.9324 83.4076L63.6249 83.577L64.3074 83.7763L65.6774 84.1748C66.1308 84.3193 66.5791 84.4737 67.0275 84.6232C67.9342 84.9121 68.811 85.2808 69.6978 85.6245C70.1461 85.7889 70.5746 85.9932 71.008 86.1825L72.3083 86.7654C75.8952 96.8687 80.6928 119.86 50.2086 119.86Z" fill="#E87081"/>
<path d="M72.4656 105.451C72.4656 112.143 67.2972 117.569 50.2328 117.569C33.1684 117.569 28 112.143 28 105.451C28 100.789 32.8287 96.7452 39.9081 94.7151C40.3812 94.5796 40.8605 94.4539 41.3518 94.3382C41.9948 94.2886 42.6379 94.2456 43.2809 94.206C43.5417 94.1894 43.8026 94.1762 44.0634 94.163C46.1138 94.0572 48.1703 94.0076 50.2267 94.001C52.3014 93.9911 54.3761 94.0572 56.4386 94.163C56.6812 94.1762 56.93 94.1894 57.1726 94.2027L58.9015 94.3151L59.0653 94.3283C59.5688 94.4473 60.0601 94.5763 60.5454 94.7118C67.6308 96.7386 72.4656 100.786 72.4656 105.451Z" fill="#F2FAFF"/>
<path d="M50.2074 115.983C31.6549 115.983 26.1698 107.464 25.5272 98.5215C24.8596 108.709 28.9697 119.864 50.2074 119.864C71.4452 119.864 75.5553 108.704 74.8877 98.5215C74.245 107.464 68.765 115.983 50.2074 115.983Z" fill="#7D8C9C"/>
<path d="M53.9885 78.0028C53.8689 78.5508 53.5899 79.044 53.3209 79.5322C52.8825 80.3193 52.4441 81.1065 51.9608 81.8637C51.8662 82.0082 51.7765 82.1527 51.6769 82.2972C51.1887 82.2872 50.6954 82.2822 50.2072 82.2822C49.9183 82.2822 49.6293 82.2872 49.3404 82.2922C49.2656 82.1427 49.156 82.0032 49.0365 81.8587C48.7675 81.5449 48.4386 81.241 48.2493 80.9271C47.8906 80.3443 47.6216 79.7116 47.4622 79.044C47.2579 78.202 47.248 77.2455 47.7561 76.5381C48.1497 75.9901 48.8023 75.6812 49.4649 75.5616C50.1275 75.4421 50.805 75.4969 51.4776 75.5517C52.3046 75.6164 53.2312 75.736 53.7294 76.3986C54.0582 76.852 54.113 77.4597 53.9885 78.0028Z" fill="#F5C144"/>
<path d="M72.3126 86.7602L70.9874 86.2421C70.544 86.0727 70.1106 85.8784 69.6622 85.7339C68.7655 85.425 67.8787 85.0913 66.967 84.8322C66.5137 84.6927 66.0653 84.5482 65.6119 84.4137L64.2419 84.05L63.5544 83.8707L62.8619 83.7163L61.477 83.4074C60.5503 83.223 59.6138 83.0636 58.6772 82.9192C56.3606 82.5704 54.0191 82.3562 51.6776 82.3014C51.1894 82.2914 50.6962 82.2864 50.208 82.2864C49.919 82.2864 49.6301 82.2914 49.3411 82.2964C47.7419 82.3213 46.1377 82.411 44.5485 82.5704C43.6069 82.6651 42.6654 82.7846 41.7338 82.9241C40.7972 83.0636 39.8705 83.228 38.9439 83.4074C37.0857 83.776 35.2473 84.2294 33.4389 84.7874C31.6305 85.3354 29.837 85.973 28.1133 86.7602C31.501 85.0414 35.1676 83.8956 38.8742 83.0736C40.2143 82.7747 41.5644 82.5405 42.9244 82.3512C43.4525 82.2765 43.9806 82.2117 44.5087 82.1519C44.7229 82.127 44.9371 82.1071 45.1513 82.0872C46.4466 81.9626 47.7469 81.8929 49.0472 81.858C49.4358 81.848 49.8243 81.8431 50.2179 81.8431C50.8058 81.8381 51.3887 81.848 51.9715 81.868C53.0925 81.9078 54.2084 81.9826 55.3194 82.0872C55.5186 82.1071 55.7229 82.127 55.9222 82.147L57.342 82.3163L57.4765 82.3363L58.7519 82.5355L59.4543 82.6451L60.1568 82.7846L61.5567 83.0686L62.9417 83.4074L63.6341 83.5768L64.3167 83.776L65.6867 84.1746C66.14 84.3191 66.5884 84.4735 67.0368 84.623C67.9435 84.9119 68.8203 85.2806 69.7071 85.6243C70.1554 85.7887 70.5839 85.993 71.0173 86.1823L72.3126 86.7602Z" fill="#7D8C9C"/>
<path d="M85.7705 82.0874H126.134V69.1096H85.7705V82.0874Z" fill="#E87081"/>
<path d="M105.951 72.2074C117.097 72.2074 126.133 70.8178 126.133 69.1037C126.133 67.3896 117.097 66 105.951 66C94.8052 66 85.7695 67.3896 85.7695 69.1037C85.7695 70.8178 94.8052 72.2074 105.951 72.2074Z" fill="#E87081"/>
<path d="M86.9014 69.1026C86.9014 69.9047 89.4571 70.6271 93.4924 71.1153C96.8353 71.5188 101.194 71.7629 105.952 71.7629C110.715 71.7629 115.074 71.5188 118.417 71.1153C122.452 70.6271 125.003 69.9097 125.003 69.1026C125.003 68.3155 122.537 67.6031 118.621 67.1198C115.253 66.7013 110.814 66.4473 105.952 66.4473C101.09 66.4473 96.6509 66.7013 93.2832 67.1198C89.3674 67.6031 86.9014 68.3155 86.9014 69.1026Z" fill="#7D8C9C"/>
<path d="M105.952 119.86C145.025 119.86 126.134 82.0874 126.134 82.0874H85.7707C85.7707 82.0874 66.8793 119.86 105.952 119.86Z" fill="#E87081"/>
<path d="M105.951 119.86C136.436 119.86 131.638 96.8736 128.056 86.7604C124.668 85.0417 121.002 83.8958 117.295 83.0738C115.437 82.6603 113.554 82.3664 111.661 82.1522C111.446 82.1273 111.232 82.1073 111.018 82.0874H100.85C100.651 82.1073 100.446 82.1273 100.247 82.1472L98.8273 82.3166L97.4174 82.5358L96.715 82.6454L96.0125 82.7849L94.6126 83.0688L93.2277 83.4076L92.5352 83.577L91.8527 83.7763L90.4826 84.1748C90.0293 84.3193 89.5809 84.4737 89.1326 84.6232C88.2259 84.9121 87.349 85.2808 86.4623 85.6245C86.0139 85.7889 85.5855 85.9932 85.152 86.1825L83.8518 86.7654C80.2648 96.8687 75.4672 119.86 105.951 119.86Z" fill="#E87081"/>
<path d="M84 105.451C84 112.143 89.0972 117.569 105.926 117.569C122.755 117.569 127.852 112.143 127.852 105.451C127.852 100.789 123.09 96.7452 116.109 94.7151C115.642 94.5796 115.169 94.4539 114.685 94.3382C114.051 94.2886 113.416 94.2456 112.782 94.206C112.525 94.1894 112.268 94.1762 112.01 94.163C109.988 94.0572 107.96 94.0076 105.932 94.001C103.886 93.9911 101.84 94.0572 99.806 94.163C99.5667 94.1762 99.3214 94.1894 99.0821 94.2027L97.3771 94.3151L97.2155 94.3283C96.719 94.4473 96.2344 94.5763 95.7558 94.7118C88.7681 96.7386 84 100.786 84 105.451Z" fill="#F2FAFF"/>
<path d="M105.952 115.983C124.504 115.983 129.989 107.464 130.632 98.5215C131.299 108.709 127.189 119.864 105.952 119.864C84.7138 119.864 80.6037 108.704 81.2713 98.5215C81.914 107.464 87.399 115.983 105.952 115.983Z" fill="#7D8C9C"/>
<path d="M102.177 78.0028C102.296 78.5508 102.575 79.044 102.844 79.5322C103.283 80.3193 103.721 81.1065 104.204 81.8637C104.299 82.0082 104.389 82.1527 104.488 82.2972C104.976 82.2872 105.47 82.2822 105.958 82.2822C106.247 82.2822 106.536 82.2872 106.825 82.2922C106.9 82.1427 107.009 82.0032 107.129 81.8587C107.398 81.5449 107.726 81.241 107.916 80.9271C108.275 80.3443 108.544 79.7116 108.703 79.044C108.907 78.202 108.917 77.2455 108.409 76.5381C108.015 75.9901 107.363 75.6812 106.7 75.5616C106.038 75.4421 105.36 75.4969 104.688 75.5517C103.861 75.6164 102.934 75.736 102.436 76.3986C102.102 76.852 102.052 77.4597 102.177 78.0028Z" fill="#F5C144"/>
<path d="M83.8486 86.7602L85.1738 86.2421C85.6172 86.0727 86.0506 85.8784 86.499 85.7339C87.3957 85.425 88.2825 85.0913 89.1942 84.8322C89.6475 84.6927 90.0959 84.5482 90.5493 84.4137L91.9193 84.05L92.6068 83.8707L93.2993 83.7163L94.6842 83.4074C95.6109 83.223 96.5475 83.0636 97.4841 82.9192C99.8006 82.5704 102.142 82.3562 104.484 82.3014C104.972 82.2914 105.465 82.2864 105.953 82.2864C106.242 82.2864 106.531 82.2914 106.82 82.2964C108.419 82.3213 110.023 82.411 111.613 82.5704C112.554 82.6651 113.496 82.7846 114.427 82.9241C115.364 83.0636 116.291 83.228 117.217 83.4074C119.076 83.776 120.914 84.2294 122.722 84.7874C124.531 85.3354 126.324 85.973 128.048 86.7602C124.66 85.0414 120.994 83.8956 117.287 83.0736C115.947 82.7747 114.597 82.5405 113.237 82.3512C112.709 82.2765 112.181 82.2117 111.653 82.1519C111.438 82.127 111.224 82.1071 111.01 82.0872C109.715 81.9626 108.414 81.8929 107.114 81.858C106.725 81.848 106.337 81.8431 105.943 81.8431C105.355 81.8381 104.773 81.848 104.19 81.868C103.069 81.9078 101.953 81.9826 100.842 82.0872C100.643 82.1071 100.438 82.127 100.239 82.147L98.8192 82.3163L98.6847 82.3363L97.4093 82.5355L96.7069 82.6451L96.0044 82.7846L94.6045 83.0686L93.2196 83.4074L92.5271 83.5768L91.8446 83.776L90.4745 84.1746C90.0212 84.3191 89.5728 84.4735 89.1245 84.623C88.2177 84.9119 87.3409 85.2806 86.4542 85.6243C86.0058 85.7887 85.5773 85.993 85.1439 86.1823L83.8486 86.7602Z" fill="#7D8C9C"/>
<path d="M485.298 125.326C536.134 125.326 577.344 119.209 577.344 111.663C577.344 104.117 536.134 98 485.298 98C434.462 98 393.252 104.117 393.252 111.663C393.252 119.209 434.462 125.326 485.298 125.326Z" fill="#00CDCD" fill-opacity="0.4"/>
<path d="M475.07 57.3145H417.019V64.6253H475.07V57.3145Z" fill="#32B8DD"/>
<path d="M446.037 61.9276C462.068 61.9276 475.063 59.9291 475.063 57.4638C475.063 54.9985 462.068 53 446.037 53C430.007 53 417.012 54.9985 417.012 57.4638C417.012 59.9291 430.007 61.9276 446.037 61.9276Z" fill="#8DCBEB"/>
<path d="M473.445 57.465C473.445 58.6185 469.769 59.6575 463.965 60.3596C459.158 60.94 452.888 61.2911 446.046 61.2911C439.196 61.2911 432.926 60.94 428.119 60.3596C422.315 59.6575 418.646 58.6257 418.646 57.465C418.646 56.3329 422.193 55.3083 427.825 54.6133C432.668 54.0114 439.053 53.646 446.046 53.646C453.039 53.646 459.423 54.0114 464.266 54.6133C469.898 55.3083 473.445 56.3329 473.445 57.465Z" fill="#3B6FB8"/>
<path d="M446.038 118.956C389.843 118.956 417.013 64.6304 417.013 64.6304H475.064C475.064 64.6304 502.241 118.956 446.038 118.956Z" fill="#32B8DD"/>
<path d="M446.039 118.956C402.196 118.956 409.096 85.8962 414.248 71.3512C419.12 68.8792 424.393 67.2313 429.724 66.0491C432.397 65.4544 435.105 65.0316 437.828 64.7235C438.136 64.6877 438.444 64.659 438.752 64.6304H453.376C453.663 64.659 453.956 64.6877 454.243 64.7164L456.285 64.96L458.313 65.2752L459.323 65.4329L460.333 65.6335L462.347 66.0419L464.338 66.5291L465.334 66.7727L466.316 67.0593L468.286 67.6325C468.938 67.8403 469.583 68.0624 470.228 68.2774C471.532 68.693 472.793 69.2232 474.069 69.7176C474.713 69.954 475.33 70.2478 475.953 70.52L477.823 71.3584C482.982 85.8891 489.882 118.956 446.039 118.956Z" fill="#8DCBEB"/>
<path d="M477.828 71.355L475.922 70.6098C475.284 70.3662 474.661 70.0868 474.016 69.879C472.727 69.4347 471.451 68.9547 470.14 68.5821C469.488 68.3815 468.843 68.1737 468.191 67.9802L466.221 67.4572L465.232 67.1992L464.236 66.9771L462.244 66.5329C460.911 66.2678 459.564 66.0385 458.217 65.8307C454.886 65.3292 451.518 65.0211 448.15 64.9423C447.448 64.9279 446.739 64.9208 446.037 64.9208C445.621 64.9208 445.206 64.9279 444.79 64.9351C442.49 64.9709 440.183 65.0999 437.897 65.3292C436.543 65.4653 435.189 65.6373 433.849 65.8379C432.502 66.0385 431.169 66.275 429.837 66.5329C427.164 67.0631 424.52 67.7151 421.919 68.5176C419.318 69.3058 416.739 70.2229 414.26 71.355C419.132 68.883 424.405 67.2351 429.736 66.0528C431.664 65.6229 433.605 65.2862 435.561 65.0139C436.321 64.9064 437.08 64.8133 437.84 64.7273C438.148 64.6915 438.456 64.6628 438.764 64.6342C440.627 64.455 442.497 64.3547 444.367 64.3046C444.926 64.2902 445.485 64.2831 446.051 64.2831C446.897 64.2759 447.735 64.2902 448.573 64.3189C450.185 64.3762 451.79 64.4837 453.388 64.6342C453.675 64.6628 453.968 64.6915 454.255 64.7201L456.297 64.9638L456.491 64.9924L458.325 65.279L459.335 65.4366L460.345 65.6373L462.359 66.0457L464.351 66.5329L465.347 66.7765L466.328 67.0631L468.299 67.6363C468.951 67.8441 469.595 68.0662 470.24 68.2812C471.544 68.6967 472.805 69.227 474.081 69.7213C474.726 69.9578 475.342 70.2516 475.965 70.5238L477.828 71.355Z" fill="#3B6FB8"/>
<path d="M472.293 102.949C472.293 109.969 466.197 115.66 446.073 115.66C425.948 115.66 419.853 109.969 419.853 102.949C419.853 98.059 425.547 93.8175 433.896 91.6881C434.454 91.5459 435.019 91.4141 435.599 91.2928C436.357 91.2407 437.116 91.1957 437.874 91.154C438.181 91.1367 438.489 91.1228 438.797 91.109C441.215 90.998 443.64 90.946 446.065 90.939C448.512 90.9286 450.959 90.998 453.391 91.109C453.677 91.1228 453.971 91.1367 454.257 91.1506L456.296 91.2685L456.489 91.2824C457.083 91.4072 457.662 91.5425 458.235 91.6847C466.591 93.8106 472.293 98.0556 472.293 102.949Z" fill="#F2FAFF"/>
<path d="M446.036 113.376C419.354 113.376 411.465 101.124 410.541 88.2627C409.58 102.915 415.492 118.958 446.036 118.958C476.581 118.958 482.492 102.908 481.532 88.2627C480.608 101.124 472.726 113.376 446.036 113.376Z" fill="#3B6FB8"/>
<path d="M432.794 65.9434L427.041 66.6625L432.794 91.8313L435.67 91.1122H437.828L432.794 65.9434Z" fill="#164587"/>
<path d="M457.963 65.2256L463.716 66.6638L457.963 91.8327L455.087 91.1135H452.929L457.963 65.2256Z" fill="#164587"/>
<path d="M432.793 73.857C436.628 71.6997 447.319 68.8233 459.4 74.5761" stroke="#45AECB" stroke-width="4.31466" stroke-linecap="round"/>
<path d="M435.67 82.6464C438.365 80.8096 448.614 78.2245 454.367 83.2586" stroke="#45AECB" stroke-width="4.31466" stroke-linecap="round"/>
<path d="M553.506 57.3145H495.455V64.6253H553.506V57.3145Z" fill="#32B8DD"/>
<path d="M524.474 61.9276C540.504 61.9276 553.499 59.9291 553.499 57.4638C553.499 54.9985 540.504 53 524.474 53C508.443 53 495.448 54.9985 495.448 57.4638C495.448 59.9291 508.443 61.9276 524.474 61.9276Z" fill="#8DCBEB"/>
<path d="M551.881 57.465C551.881 58.6185 548.206 59.6575 542.402 60.3596C537.594 60.94 531.325 61.2911 524.482 61.2911C517.632 61.2911 511.363 60.94 506.555 60.3596C500.752 59.6575 497.083 58.6257 497.083 57.465C497.083 56.3329 500.63 55.3083 506.261 54.6133C511.105 54.0114 517.489 53.646 524.482 53.646C531.475 53.646 537.859 54.0114 542.703 54.6133C548.335 55.3083 551.881 56.3329 551.881 57.465Z" fill="#3B6FB8"/>
<path d="M524.473 118.956C468.277 118.956 495.447 64.6304 495.447 64.6304H553.498C553.498 64.6304 580.675 118.956 524.473 118.956Z" fill="#32B8DD"/>
<path d="M524.473 118.956C480.631 118.956 487.531 85.8962 492.682 71.3512C497.554 68.8792 502.828 67.2313 508.159 66.0491C510.831 65.4544 513.54 65.0316 516.262 64.7235C516.57 64.6877 516.879 64.659 517.187 64.6304H531.811C532.097 64.659 532.391 64.6877 532.677 64.7164L534.72 64.96L536.747 65.2752L537.757 65.4329L538.768 65.6335L540.781 66.0419L542.773 66.5291L543.769 66.7727L544.751 67.0593L546.721 67.6325C547.373 67.8403 548.018 68.0624 548.663 68.2774C549.967 68.693 551.228 69.2232 552.503 69.7176C553.148 69.954 553.764 70.2478 554.388 70.52L556.258 71.3584C561.416 85.8891 568.316 118.956 524.473 118.956Z" fill="#8DCBEB"/>
<path d="M556.265 71.355L554.359 70.6098C553.721 70.3662 553.098 70.0868 552.453 69.879C551.163 69.4347 549.888 68.9547 548.576 68.5821C547.924 68.3815 547.28 68.1737 546.628 67.9802L544.657 67.4572L543.668 67.1992L542.672 66.9771L540.681 66.5329C539.348 66.2678 538.001 66.0385 536.654 65.8307C533.322 65.3292 529.955 65.0211 526.587 64.9423C525.885 64.9279 525.175 64.9208 524.473 64.9208C524.058 64.9208 523.642 64.9279 523.227 64.9351C520.927 64.9709 518.619 65.0999 516.334 65.3292C514.98 65.4653 513.625 65.6373 512.286 65.8379C510.938 66.0385 509.606 66.275 508.273 66.5329C505.601 67.0631 502.957 67.7151 500.356 68.5176C497.755 69.3058 495.175 70.2229 492.696 71.355C497.569 68.883 502.842 67.2351 508.173 66.0528C510.1 65.6229 512.042 65.2862 513.998 65.0139C514.757 64.9064 515.517 64.8133 516.276 64.7273C516.585 64.6915 516.893 64.6628 517.201 64.6342C519.064 64.455 520.934 64.3547 522.804 64.3046C523.363 64.2902 523.922 64.2831 524.488 64.2831C525.333 64.2759 526.171 64.2902 527.01 64.3189C528.622 64.3762 530.227 64.4837 531.825 64.6342C532.111 64.6628 532.405 64.6915 532.692 64.7201L534.734 64.9638L534.927 64.9924L536.761 65.279L537.772 65.4366L538.782 65.6373L540.795 66.0457L542.787 66.5329L543.783 66.7765L544.765 67.0631L546.735 67.6363C547.387 67.8441 548.032 68.0662 548.677 68.2812C549.981 68.6967 551.242 69.227 552.517 69.7213C553.162 69.9578 553.778 70.2516 554.402 70.5238L556.265 71.355Z" fill="#3B6FB8"/>
<path d="M550.729 102.949C550.729 109.969 544.634 115.66 524.509 115.66C504.384 115.66 498.289 109.969 498.289 102.949C498.289 98.059 503.984 93.8175 512.333 91.6881C512.891 91.5459 513.456 91.4141 514.035 91.2928C514.794 91.2407 515.552 91.1957 516.31 91.154C516.618 91.1367 516.926 91.1228 517.233 91.109C519.651 90.998 522.077 90.946 524.502 90.939C526.949 90.9286 529.395 90.998 531.828 91.109C532.114 91.1228 532.407 91.1367 532.693 91.1506L534.732 91.2685L534.925 91.2824C535.519 91.4072 536.099 91.5425 536.671 91.6847C545.027 93.8106 550.729 98.0556 550.729 102.949Z" fill="#F2FAFF"/>
<path d="M524.473 113.376C497.79 113.376 489.901 101.124 488.977 88.2627C488.017 102.915 493.928 118.958 524.473 118.958C555.017 118.958 560.928 102.908 559.968 88.2627C559.044 101.124 551.163 113.376 524.473 113.376Z" fill="#3B6FB8"/>
<path d="M511.232 65.9434L505.479 66.6625L511.232 91.8313L514.109 91.1122H516.266L511.232 65.9434Z" fill="#164587"/>
<path d="M536.4 65.2256L542.153 66.6638L536.4 91.8327L533.524 91.1135H531.367L536.4 65.2256Z" fill="#164587"/>
<path d="M511.233 73.857C515.069 71.6997 525.759 68.8233 537.84 74.5761" stroke="#45AECB" stroke-width="4.31466" stroke-linecap="round"/>
<path d="M514.108 82.6464C516.803 80.8096 527.052 78.2245 532.805 83.2586" stroke="#45AECB" stroke-width="4.31466" stroke-linecap="round"/>
<path d="M41.4473 102.021C40.8151 102.298 40.183 102.535 39.5509 102.812C38.8397 103.088 39.2348 104.194 39.9459 103.918C40.5781 103.641 41.2102 103.404 41.8424 103.128C42.514 102.812 42.1189 101.745 41.4473 102.021Z" fill="#C3DE52"/>
<path d="M70.2715 105.045C69.6393 105.321 69.0072 105.558 68.3751 105.835C67.6639 106.112 68.059 107.218 68.7702 106.941C69.4023 106.665 70.0344 106.428 70.6666 106.151C71.3382 105.835 70.9431 104.768 70.2715 105.045Z" fill="#C3DE52"/>
<path d="M48.2715 111.045C47.6393 111.321 47.0072 111.558 46.3751 111.835C45.6639 112.112 46.059 113.218 46.7702 112.941C47.4023 112.665 48.0344 112.428 48.6666 112.151C49.3382 111.835 48.9431 110.768 48.2715 111.045Z" fill="#C3DE52"/>
<path d="M34.6893 104.667C34.1757 104.825 33.7016 104.943 33.188 105.101C32.4768 105.299 32.7929 106.445 33.504 106.208L35.0054 105.773C35.7165 105.615 35.4005 104.469 34.6893 104.667Z" fill="#DA90BE"/>
<path d="M61.9022 110.022C61.3886 110.18 60.9145 110.299 60.4009 110.457C59.6897 110.654 60.0058 111.8 60.7169 111.563L62.2183 111.129C62.9294 110.971 62.6133 109.825 61.9022 110.022Z" fill="#DA90BE"/>
<path d="M50.0331 107.258C49.5195 107.416 48.9664 107.535 48.4133 107.614C48.0972 107.653 47.9392 108.048 48.0182 108.325C48.0972 108.641 48.4133 108.76 48.7293 108.72C49.2825 108.641 49.7961 108.522 50.3492 108.364C51.0603 108.167 50.7443 107.021 50.0331 107.258Z" fill="#348793"/>
<path d="M36.705 99.2776C36.5469 99.001 36.1519 98.922 35.9148 99.0801C35.6382 99.2381 35.5592 99.5937 35.7173 99.8702L36.3494 101.095C36.5074 101.372 36.9025 101.451 37.1396 101.293C37.4161 101.135 37.4952 100.779 37.3371 100.502C37.1396 100.107 36.942 99.6727 36.705 99.2776Z" fill="#348793"/>
<path d="M62.9179 106.278C62.7598 106.001 62.3648 105.922 62.1277 106.08C61.8511 106.238 61.7721 106.594 61.9302 106.87L62.5623 108.095C62.7203 108.372 63.1154 108.451 63.3525 108.293C63.629 108.135 63.708 107.779 63.55 107.502C63.3525 107.107 63.1549 106.673 62.9179 106.278Z" fill="#348793"/>
<path d="M38.9164 108.145L37.6521 109.962C37.2175 110.594 38.2447 111.187 38.6398 110.555L39.9041 108.737C40.3387 108.105 39.3509 107.513 38.9164 108.145Z" fill="#348793"/>
<path d="M44.3301 103.68V105.616C44.3301 106.366 45.5153 106.366 45.5153 105.616V103.68C45.5153 102.929 44.3301 102.929 44.3301 103.68Z" fill="#DA90BE"/>
<path d="M33.5049 107.948C32.9913 108.224 32.5567 108.58 32.1616 109.014C31.648 109.568 32.4777 110.397 32.9913 109.844C33.3074 109.489 33.7024 109.212 34.0975 108.975C34.7297 108.58 34.137 107.553 33.5049 107.948Z" fill="#F5C144"/>
<path d="M43.46 107.986C43.2625 107.749 42.9464 107.591 42.6698 107.788C42.4328 107.946 42.2747 108.341 42.4723 108.578C42.7093 108.894 42.8279 109.211 42.8674 109.566C42.9069 109.882 43.302 110.04 43.5785 109.961C43.8946 109.882 44.0526 109.566 43.9736 109.25C43.9341 108.776 43.7366 108.341 43.46 107.986Z" fill="#8DCBEB"/>
<path d="M39.7083 98.8617C39.9058 99.0592 40.3009 99.0987 40.538 98.8617C40.7355 98.6246 40.775 98.2691 40.538 98.032L39.6688 97.1628C39.4712 96.9653 39.0761 96.9258 38.8391 97.1628C38.6415 97.3999 38.602 97.7555 38.8391 97.9925L39.7083 98.8617Z" fill="#DA90BE"/>
<path d="M54.7696 108.572C54.8881 108.967 54.9671 109.323 55.0857 109.718C55.2832 110.429 56.429 110.152 56.1919 109.402C56.0734 109.007 55.9944 108.651 55.8758 108.256C55.6783 107.545 54.5721 107.861 54.7696 108.572Z" fill="#DA90BE"/>
<path d="M53.7424 105.53C54.177 105.372 54.6116 105.174 55.0857 105.016C55.3623 104.897 55.5994 104.621 55.4808 104.305C55.4018 104.028 55.0462 103.791 54.7697 103.91C54.3351 104.068 53.9005 104.265 53.4264 104.423C53.1498 104.542 52.9128 104.818 53.0313 105.134C53.1103 105.411 53.4264 105.648 53.7424 105.53Z" fill="#C3DE52"/>
<path d="M64.5294 98.773C64.0948 98.931 63.6602 99.1286 63.1861 99.2866C62.9096 99.4051 62.6725 99.6817 62.7911 99.9978C62.8701 100.274 63.2256 100.511 63.5022 100.393C63.9368 100.235 64.3714 100.037 64.8455 99.8792C65.1221 99.7607 65.3591 99.4841 65.2406 99.1681C65.1616 98.8915 64.806 98.6545 64.5294 98.773Z" fill="#DA90BE"/>
<path d="M61.5661 101.459C61.1315 101.38 60.6574 101.301 60.2228 101.183C59.9068 101.143 59.5907 101.262 59.5117 101.578C59.4327 101.854 59.6302 102.249 59.9068 102.289C60.3414 102.368 60.8155 102.447 61.2501 102.565C61.5661 102.605 61.8822 102.486 61.9612 102.17C62.0797 101.894 61.8822 101.538 61.5661 101.459Z" fill="#F5C144"/>
<path d="M64.1413 103.563C64.1413 103.918 64.1018 104.234 64.0228 104.55C63.8253 105.261 64.971 105.577 65.1291 104.866C65.2476 104.432 65.2871 103.997 65.2871 103.563C65.3266 102.812 64.1808 102.812 64.1413 103.563Z" fill="#C3DE52"/>
<path d="M59.1375 105.429C59.019 105.113 58.7424 104.916 58.4264 105.034C58.1498 105.113 57.9128 105.469 58.0313 105.745L58.4659 106.97C58.5844 107.286 58.861 107.484 59.177 107.365C59.4536 107.286 59.6907 106.931 59.5721 106.654C59.4141 106.22 59.2561 105.824 59.1375 105.429Z" fill="#8DCBEB"/>
<path d="M55.4199 113.001C54.7878 113.04 54.1951 113.08 53.563 113.119C52.8123 113.159 52.8123 114.344 53.563 114.304C54.1951 114.265 54.7878 114.225 55.4199 114.186C56.1706 114.107 56.1706 112.961 55.4199 113.001Z" fill="#F5C144"/>
<path d="M45.4199 99.0005C44.7878 99.04 44.1951 99.0795 43.563 99.119C42.8123 99.1585 42.8123 100.344 43.563 100.304C44.1951 100.265 44.7878 100.225 45.4199 100.186C46.1706 100.107 46.1706 98.961 45.4199 99.0005Z" fill="#F5C144"/>
<path d="M67.0095 110.293C66.7703 109.707 66.5438 109.158 66.3046 108.571C66.0277 107.872 64.9044 108.251 65.1813 108.949C65.4205 109.536 65.647 110.085 65.8862 110.671C66.2006 111.358 67.2864 110.992 67.0095 110.293Z" fill="#F5C144"/>
<path d="M49.6163 101.554C50.0509 101.791 50.4855 102.028 50.9596 102.266C51.6312 102.621 52.2239 101.594 51.5522 101.278C51.1176 101.041 50.683 100.804 50.2089 100.567C49.5373 100.172 48.9446 101.199 49.6163 101.554Z" fill="#8DCBEB"/>
<path d="M56.3027 97.705C56.9349 97.4285 57.567 97.1914 58.1991 96.9149C58.9103 96.6383 58.5152 95.5321 57.8041 95.8086C57.1719 96.0852 56.5398 96.3222 55.9076 96.5988C55.236 96.9149 55.6311 98.0211 56.3027 97.705Z" fill="#C3DE52"/>
<path d="M45.7169 97.4703C46.2305 97.3123 46.7836 97.1938 47.3367 97.1147C47.6528 97.0752 47.8108 96.6802 47.7318 96.4036C47.6528 96.0875 47.3367 95.969 47.0207 96.0085C46.4675 96.0875 45.9539 96.206 45.4008 96.3641C44.6896 96.6011 45.0057 97.7074 45.7169 97.4703Z" fill="#348793"/>
<path d="M53.1855 97.499L53.1855 95.5631C53.1855 94.8124 52.0003 94.8124 52.0003 95.5631L52.0003 97.499C52.0003 98.2497 53.1855 98.2497 53.1855 97.499Z" fill="#DA90BE"/>
<path d="M55.9929 101.165C55.7953 100.967 55.4003 100.928 55.1632 101.165C54.9657 101.402 54.9262 101.757 55.1632 101.994L56.0324 102.864C56.2299 103.061 56.625 103.101 56.8621 102.864C57.0596 102.626 57.0991 102.271 56.8621 102.034L55.9929 101.165Z" fill="#DA90BE"/>
<path d="M115.566 108.283C116.199 108.007 116.831 107.77 117.463 107.493C118.174 107.217 117.779 106.11 117.068 106.387C116.436 106.663 115.803 106.9 115.171 107.177C114.5 107.493 114.895 108.56 115.566 108.283Z" fill="#C3DE52"/>
<path d="M86.7422 105.26C87.3743 104.983 88.0065 104.746 88.6386 104.47C89.3498 104.193 88.9547 103.087 88.2435 103.363C87.6114 103.64 86.9792 103.877 86.3471 104.154C85.6755 104.47 86.0705 105.536 86.7422 105.26Z" fill="#C3DE52"/>
<path d="M108.742 99.2599C109.374 98.9833 110.006 98.7462 110.639 98.4697C111.35 98.1931 110.955 97.0869 110.244 97.3634C109.611 97.64 108.979 97.8771 108.347 98.1536C107.675 98.4697 108.071 99.5364 108.742 99.2599Z" fill="#C3DE52"/>
<path d="M122.324 105.638C122.838 105.48 123.312 105.361 123.826 105.203C124.537 105.006 124.221 103.86 123.51 104.097L122.008 104.532C121.297 104.69 121.613 105.835 122.324 105.638Z" fill="#DA90BE"/>
<path d="M95.1115 100.282C95.6251 100.124 96.0992 100.006 96.6128 99.8478C97.324 99.6502 97.0079 98.5045 96.2967 98.7415L94.7954 99.1761C94.0842 99.3341 94.4003 100.48 95.1115 100.282Z" fill="#DA90BE"/>
<path d="M106.981 103.046C107.494 102.888 108.047 102.77 108.6 102.691C108.916 102.651 109.075 102.256 108.995 101.98C108.916 101.664 108.6 101.545 108.284 101.585C107.731 101.664 107.218 101.782 106.664 101.94C105.953 102.138 106.269 103.284 106.981 103.046Z" fill="#348793"/>
<path d="M120.309 111.027C120.467 111.304 120.862 111.383 121.099 111.225C121.375 111.067 121.454 110.711 121.296 110.434L120.664 109.21C120.506 108.933 120.111 108.854 119.874 109.012C119.598 109.17 119.519 109.526 119.677 109.802C119.874 110.197 120.072 110.632 120.309 111.027Z" fill="#348793"/>
<path d="M94.0958 104.027C94.2538 104.304 94.6489 104.383 94.886 104.225C95.1625 104.067 95.2416 103.711 95.0835 103.434L94.4514 102.21C94.2933 101.933 93.8983 101.854 93.6612 102.012C93.3846 102.17 93.3056 102.526 93.4637 102.802C93.6612 103.197 93.8587 103.632 94.0958 104.027Z" fill="#348793"/>
<path d="M118.097 102.16L119.362 100.343C119.796 99.7104 118.769 99.1178 118.374 99.7499L117.11 101.567C116.675 102.199 117.663 102.792 118.097 102.16Z" fill="#348793"/>
<path d="M112.684 106.625L112.684 104.689C112.684 103.938 111.498 103.938 111.498 104.689L111.498 106.625C111.498 107.376 112.684 107.376 112.684 106.625Z" fill="#DA90BE"/>
<path d="M123.509 102.357C124.022 102.08 124.457 101.725 124.852 101.29C125.366 100.737 124.536 99.9074 124.022 100.461C123.706 100.816 123.311 101.093 122.916 101.33C122.284 101.725 122.877 102.752 123.509 102.357Z" fill="#F5C144"/>
<path d="M113.554 102.319C113.751 102.556 114.067 102.714 114.344 102.516C114.581 102.358 114.739 101.963 114.541 101.726C114.304 101.41 114.186 101.094 114.146 100.739C114.107 100.423 113.712 100.264 113.435 100.344C113.119 100.423 112.961 100.739 113.04 101.055C113.08 101.529 113.277 101.963 113.554 102.319Z" fill="#8DCBEB"/>
<path d="M117.305 111.443C117.108 111.245 116.713 111.206 116.476 111.443C116.278 111.68 116.239 112.036 116.476 112.273L117.345 113.142C117.542 113.339 117.938 113.379 118.175 113.142C118.372 112.905 118.412 112.549 118.175 112.312L117.305 111.443Z" fill="#DA90BE"/>
<path d="M102.244 101.733C102.126 101.338 102.047 100.982 101.928 100.587C101.73 99.8759 100.585 100.152 100.822 100.903C100.94 101.298 101.019 101.654 101.138 102.049C101.335 102.76 102.442 102.444 102.244 101.733Z" fill="#DA90BE"/>
<path d="M103.271 104.775C102.837 104.933 102.402 105.131 101.928 105.289C101.651 105.407 101.414 105.684 101.533 106C101.612 106.276 101.967 106.514 102.244 106.395C102.679 106.237 103.113 106.039 103.587 105.881C103.864 105.763 104.101 105.486 103.982 105.17C103.903 104.894 103.587 104.657 103.271 104.775Z" fill="#C3DE52"/>
<path d="M92.4843 111.532C92.9188 111.374 93.3534 111.176 93.8275 111.018C94.1041 110.9 94.3411 110.623 94.2226 110.307C94.1436 110.03 93.788 109.793 93.5115 109.912C93.0769 110.07 92.6423 110.267 92.1682 110.425C91.8916 110.544 91.6546 110.821 91.7731 111.137C91.8521 111.413 92.2077 111.65 92.4843 111.532Z" fill="#DA90BE"/>
<path d="M95.4475 108.846C95.8821 108.925 96.3562 109.004 96.7908 109.122C97.1069 109.162 97.423 109.043 97.502 108.727C97.581 108.45 97.3834 108.055 97.1069 108.016C96.6723 107.937 96.1982 107.858 95.7636 107.739C95.4475 107.7 95.1315 107.818 95.0525 108.134C94.9339 108.411 95.1315 108.766 95.4475 108.846Z" fill="#F5C144"/>
<path d="M92.8723 106.742C92.8723 106.387 92.9118 106.071 92.9909 105.754C93.1884 105.043 92.0427 104.727 91.8846 105.438C91.7661 105.873 91.7266 106.308 91.7266 106.742C91.6871 107.493 92.8328 107.493 92.8723 106.742Z" fill="#C3DE52"/>
<path d="M97.8761 104.875C97.9946 105.191 98.2712 105.389 98.5873 105.27C98.8639 105.191 99.1009 104.836 98.9824 104.559L98.5478 103.334C98.4292 103.018 98.1527 102.821 97.8366 102.939C97.5601 103.018 97.323 103.374 97.4415 103.651C97.5996 104.085 97.7576 104.48 97.8761 104.875Z" fill="#8DCBEB"/>
<path d="M101.594 97.3042C102.226 97.2647 102.819 97.2252 103.451 97.1857C104.201 97.1461 104.201 95.9609 103.451 96.0004C102.819 96.0399 102.226 96.0794 101.594 96.1189C100.843 96.1979 100.843 97.3437 101.594 97.3042Z" fill="#F5C144"/>
<path d="M111.594 111.304C112.226 111.265 112.819 111.225 113.451 111.186C114.201 111.146 114.201 109.961 113.451 110C112.819 110.04 112.226 110.079 111.594 110.119C110.843 110.198 110.843 111.344 111.594 111.304Z" fill="#F5C144"/>
<path d="M90.0042 100.011C90.2433 100.598 90.4699 101.147 90.709 101.733C90.986 102.432 92.1093 102.054 91.8323 101.355C91.5932 100.769 91.3666 100.22 91.1275 99.6332C90.8131 98.947 89.7272 99.3126 90.0042 100.011Z" fill="#F5C144"/>
<path d="M107.397 108.75C106.963 108.513 106.528 108.276 106.054 108.039C105.382 107.684 104.79 108.711 105.461 109.027C105.896 109.264 106.331 109.501 106.805 109.738C107.476 110.133 108.069 109.106 107.397 108.75Z" fill="#8DCBEB"/>
<path d="M100.711 112.6C100.079 112.876 99.4467 113.113 98.8145 113.39C98.1034 113.666 98.4985 114.773 99.2096 114.496C99.8418 114.22 100.474 113.982 101.106 113.706C101.778 113.39 101.383 112.284 100.711 112.6Z" fill="#C3DE52"/>
<path d="M111.297 112.834C110.783 112.992 110.23 113.111 109.677 113.19C109.361 113.229 109.203 113.625 109.282 113.901C109.361 114.217 109.677 114.336 109.993 114.296C110.546 114.217 111.06 114.099 111.613 113.941C112.324 113.704 112.008 112.597 111.297 112.834Z" fill="#348793"/>
<path d="M103.828 112.806L103.828 114.742C103.828 115.492 105.013 115.492 105.013 114.742L105.013 112.806C105.013 112.055 103.828 112.055 103.828 112.806Z" fill="#DA90BE"/>
<path d="M101.021 109.14C101.218 109.338 101.613 109.377 101.85 109.14C102.048 108.903 102.088 108.547 101.85 108.31L100.981 107.441C100.784 107.244 100.389 107.204 100.152 107.441C99.954 107.678 99.9145 108.034 100.152 108.271L101.021 109.14Z" fill="#DA90BE"/>
<path d="M710.857 84.5481C711.33 84.5481 711.714 84.0227 711.714 83.3746C711.714 82.7265 711.33 82.2012 710.857 82.2012C710.384 82.2012 710 82.7265 710 83.3746C710 84.0227 710.384 84.5481 710.857 84.5481Z" fill="#090B0A"/>
<path d="M734.572 84.5481C735.045 84.5481 735.429 84.0227 735.429 83.3746C735.429 82.7265 735.045 82.2012 734.572 82.2012C734.099 82.2012 733.715 82.7265 733.715 83.3746C733.715 84.0227 734.099 84.5481 734.572 84.5481Z" fill="#090B0A"/>
<defs>
<linearGradient id="paint0_linear_506_6357" x1="392.5" y1="0" x2="392.5" y2="140" gradientUnits="userSpaceOnUse">
<stop offset="0.168539" stop-color="#6ADB97" stop-opacity="0.2"/>
<stop offset="0.355006" stop-color="#6ADB97" stop-opacity="0.3"/>
<stop offset="0.64435" stop-color="#6ADB97" stop-opacity="0.9"/>
<stop offset="0.856535" stop-color="#10DEB9"/>
</linearGradient>
</defs>
</svg>
