<svg width="12" height="16" viewBox="0 0 12 16" fill="none" xmlns="http://www.w3.org/2000/svg">
<path d="M10.4694 5.62264H9.78042V4.24475C9.78042 3.33116 9.4175 2.45499 8.77149 1.80898C8.12548 1.16297 7.24931 0.800049 6.33571 0.800049C5.42212 0.800049 4.54595 1.16297 3.89994 1.80898C3.25393 2.45499 2.89101 3.33116 2.89101 4.24475V5.62264H2.20112C1.83599 5.62363 1.4861 5.76912 1.22791 6.02731C0.969724 6.28549 0.824236 6.63539 0.823242 7.00052V13.8899C0.824236 14.2551 0.969724 14.605 1.22791 14.8631C1.4861 15.1213 1.83599 15.2668 2.20112 15.2678H10.4694C10.8345 15.2668 11.1844 15.1213 11.4426 14.8631C11.7008 14.605 11.8462 14.2551 11.8472 13.8899V7.00052C11.8462 6.63539 11.7008 6.28549 11.4426 6.02731C11.1844 5.76912 10.8345 5.62363 10.4694 5.62264ZM6.33477 11.824C6.06225 11.824 5.79585 11.7432 5.56926 11.5918C5.34267 11.4404 5.16606 11.2252 5.06177 10.9735C4.95749 10.7217 4.9302 10.4446 4.98337 10.1774C5.03653 9.91007 5.16776 9.66456 5.36046 9.47186C5.55316 9.27916 5.79868 9.14793 6.06596 9.09476C6.33324 9.04159 6.61029 9.06888 6.86206 9.17317C7.11384 9.27746 7.32904 9.45406 7.48044 9.68066C7.63184 9.90725 7.71265 10.1736 7.71265 10.4462C7.71166 10.8113 7.56617 11.1612 7.30798 11.4194C7.0498 11.6776 6.6999 11.8231 6.33477 11.824ZM4.26795 5.62264V4.24475C4.29975 3.71816 4.53134 3.22357 4.91546 2.86195C5.29957 2.50034 5.80722 2.29897 6.33477 2.29897C6.86232 2.29897 7.36998 2.50034 7.75409 2.86195C8.1382 3.22357 8.3698 3.71816 8.4016 4.24475V5.62264H4.26795Z" fill="#C7CED4"/>
</svg>
