<svg width="722" height="349" viewBox="0 0 722 349" fill="none" xmlns="http://www.w3.org/2000/svg">
<path d="M672.59 137.271L713.938 167.463L667.117 188.176L672.59 137.271Z" fill="#B0F555"/>
<circle cx="321.949" cy="91.949" r="29.6517" stroke="#FFB624" stroke-width="14.5947"/>
<mask id="path-3-inside-1_184_8096" fill="white">
<path d="M195.893 58.0963C195.275 65.3617 192.875 72.3625 188.905 78.4786C184.935 84.5948 179.518 89.6375 173.134 93.1601C166.75 96.6828 159.596 98.5765 152.305 98.6737C145.014 98.7709 137.811 97.0685 131.336 93.7173C124.86 90.366 119.31 85.4695 115.179 79.4613C111.047 73.4531 108.462 66.5188 107.65 59.2725C106.839 52.0262 107.827 44.6916 110.527 37.9185C113.228 31.1454 117.557 25.1428 123.131 20.4424L134.564 34.0009C131.22 36.8212 128.622 40.4228 127.002 44.4866C125.382 48.5505 124.789 52.9512 125.276 57.299C125.762 61.6468 127.314 65.8074 129.793 69.4123C132.272 73.0172 135.601 75.9552 139.487 77.9659C143.372 79.9766 147.694 80.9981 152.068 80.9398C156.443 80.8814 160.735 79.7452 164.566 77.6316C168.397 75.518 171.647 72.4924 174.029 68.8227C176.41 65.153 177.851 60.9525 178.221 56.5933L195.893 58.0963Z"/>
</mask>
<path d="M195.893 58.0963C195.275 65.3617 192.875 72.3625 188.905 78.4786C184.935 84.5948 179.518 89.6375 173.134 93.1601C166.75 96.6828 159.596 98.5765 152.305 98.6737C145.014 98.7709 137.811 97.0685 131.336 93.7173C124.86 90.366 119.31 85.4695 115.179 79.4613C111.047 73.4531 108.462 66.5188 107.65 59.2725C106.839 52.0262 107.827 44.6916 110.527 37.9185C113.228 31.1454 117.557 25.1428 123.131 20.4424L134.564 34.0009C131.22 36.8212 128.622 40.4228 127.002 44.4866C125.382 48.5505 124.789 52.9512 125.276 57.299C125.762 61.6468 127.314 65.8074 129.793 69.4123C132.272 73.0172 135.601 75.9552 139.487 77.9659C143.372 79.9766 147.694 80.9981 152.068 80.9398C156.443 80.8814 160.735 79.7452 164.566 77.6316C168.397 75.518 171.647 72.4924 174.029 68.8227C176.41 65.153 177.851 60.9525 178.221 56.5933L195.893 58.0963Z" stroke="#FE6EAA" stroke-width="29.1895" mask="url(#path-3-inside-1_184_8096)"/>
<path d="M662.243 36.8218L681.482 59.0857L652.581 64.6148L662.243 36.8218Z" fill="#AD67E4"/>
<circle cx="310.868" cy="249.035" r="11.0847" fill="#AD67E4"/>
<g opacity="0.5">
<circle cx="54.8609" cy="312.606" r="12.4426" stroke="#4D8BFF" stroke-opacity="0.85" stroke-width="3.92925"/>
<circle cx="226.575" cy="98.4139" r="11.0847" fill="#12C4A6"/>
<mask id="path-8-inside-2_184_8096" fill="white">
<path d="M283.065 342.567C278.256 341.853 273.698 339.964 269.794 337.067C265.89 334.171 262.761 330.357 260.683 325.962C258.606 321.567 257.644 316.728 257.883 311.873C258.123 307.018 259.556 302.297 262.055 298.128C264.555 293.958 268.044 290.47 272.214 287.972C276.384 285.473 281.106 284.042 285.961 283.804C290.816 283.567 295.655 284.53 300.049 286.609C304.443 288.688 308.257 291.819 311.152 295.724L299.279 304.526C297.832 302.573 295.925 301.008 293.728 299.969C291.531 298.929 289.111 298.447 286.684 298.566C284.256 298.685 281.895 299.401 279.811 300.65C277.726 301.899 275.981 303.643 274.731 305.728C273.481 307.812 272.765 310.173 272.645 312.601C272.525 315.028 273.006 317.448 274.045 319.645C275.084 321.842 276.649 323.75 278.601 325.198C280.553 326.646 282.832 327.59 285.236 327.947L283.065 342.567Z"/>
</mask>
<path d="M283.065 342.567C278.256 341.853 273.698 339.964 269.794 337.067C265.89 334.171 262.761 330.357 260.683 325.962C258.606 321.567 257.644 316.728 257.883 311.873C258.123 307.018 259.556 302.297 262.055 298.128C264.555 293.958 268.044 290.47 272.214 287.972C276.384 285.473 281.106 284.042 285.961 283.804C290.816 283.567 295.655 284.53 300.049 286.609C304.443 288.688 308.257 291.819 311.152 295.724L299.279 304.526C297.832 302.573 295.925 301.008 293.728 299.969C291.531 298.929 289.111 298.447 286.684 298.566C284.256 298.685 281.895 299.401 279.811 300.65C277.726 301.899 275.981 303.643 274.731 305.728C273.481 307.812 272.765 310.173 272.645 312.601C272.525 315.028 273.006 317.448 274.045 319.645C275.084 321.842 276.649 323.75 278.601 325.198C280.553 326.646 282.832 327.59 285.236 327.947L283.065 342.567Z" stroke="#B45EEE" stroke-width="7.85849" mask="url(#path-8-inside-2_184_8096)"/>
</g>
<path d="M187.331 166.264L205.53 179.552L184.923 188.669L187.331 166.264Z" fill="#C4D0FB"/>
<path d="M228 138.019L267.03 115.486L267.03 160.553L228 138.019Z" fill="#F18A9C"/>
<path d="M142.356 274.84L142.356 303.007L117.963 288.924L142.356 274.84Z" fill="#C4D0FB"/>
<circle cx="115.262" cy="198.411" r="13.6428" stroke="#C9F2E9" stroke-width="5.239"/>
<mask id="path-13-inside-3_184_8096" fill="white">
<path d="M26.1044 91.0915C29.1252 92.1752 31.832 93.9871 33.9852 96.3668C36.1384 98.7465 37.6715 101.62 38.4487 104.734C39.2259 107.848 39.2232 111.105 38.4408 114.218C37.6585 117.33 36.1206 120.201 33.9634 122.577C31.8063 124.954 29.0964 126.761 26.0739 127.84C23.0513 128.918 19.8094 129.235 16.6353 128.761C13.4612 128.288 10.4529 127.039 7.87681 125.125C5.30072 123.211 3.2364 120.691 1.86669 117.789L8.92594 114.458C9.74776 116.199 10.9864 117.711 12.532 118.859C14.0777 120.007 15.8827 120.757 17.7871 121.041C19.6916 121.325 21.6367 121.135 23.4502 120.488C25.2638 119.841 26.8897 118.756 28.184 117.331C29.4783 115.905 30.401 114.182 30.8704 112.315C31.3398 110.447 31.3415 108.493 30.8752 106.625C30.4088 104.756 29.489 103.032 28.1971 101.604C26.9051 100.176 25.281 99.0892 23.4686 98.439L26.1044 91.0915Z"/>
</mask>
<path d="M26.1044 91.0915C29.1252 92.1752 31.832 93.9871 33.9852 96.3668C36.1384 98.7465 37.6715 101.62 38.4487 104.734C39.2259 107.848 39.2232 111.105 38.4408 114.218C37.6585 117.33 36.1206 120.201 33.9634 122.577C31.8063 124.954 29.0964 126.761 26.0739 127.84C23.0513 128.918 19.8094 129.235 16.6353 128.761C13.4612 128.288 10.4529 127.039 7.87681 125.125C5.30072 123.211 3.2364 120.691 1.86669 117.789L8.92594 114.458C9.74776 116.199 10.9864 117.711 12.532 118.859C14.0777 120.007 15.8827 120.757 17.7871 121.041C19.6916 121.325 21.6367 121.135 23.4502 120.488C25.2638 119.841 26.8897 118.756 28.184 117.331C29.4783 115.905 30.401 114.182 30.8704 112.315C31.3398 110.447 31.3415 108.493 30.8752 106.625C30.4088 104.756 29.489 103.032 28.1971 101.604C26.9051 100.176 25.281 99.0892 23.4686 98.439L26.1044 91.0915Z" stroke="#FFD6DD" stroke-width="10.478" mask="url(#path-13-inside-3_184_8096)"/>
<mask id="path-14-inside-4_184_8096" fill="white">
<path d="M274.925 207.605C274.544 205.5 274.687 203.333 275.344 201.297C276 199.261 277.148 197.417 278.687 195.931C280.225 194.444 282.107 193.36 284.165 192.774C286.222 192.188 288.393 192.119 290.484 192.573C292.575 193.026 294.521 193.988 296.152 195.374C297.782 196.759 299.045 198.525 299.83 200.516C300.615 202.506 300.896 204.659 300.65 206.785C300.404 208.91 299.637 210.942 298.418 212.7L293.072 208.993C293.682 208.114 294.065 207.098 294.188 206.036C294.311 204.973 294.171 203.897 293.778 202.901C293.386 201.906 292.754 201.023 291.939 200.33C291.124 199.638 290.151 199.156 289.105 198.93C288.06 198.703 286.974 198.738 285.946 199.031C284.917 199.323 283.976 199.866 283.207 200.609C282.437 201.352 281.863 202.274 281.535 203.292C281.207 204.31 281.135 205.394 281.326 206.446L274.925 207.605Z"/>
</mask>
<path d="M274.925 207.605C274.544 205.5 274.687 203.333 275.344 201.297C276 199.261 277.148 197.417 278.687 195.931C280.225 194.444 282.107 193.36 284.165 192.774C286.222 192.188 288.393 192.119 290.484 192.573C292.575 193.026 294.521 193.988 296.152 195.374C297.782 196.759 299.045 198.525 299.83 200.516C300.615 202.506 300.896 204.659 300.65 206.785C300.404 208.91 299.637 210.942 298.418 212.7L293.072 208.993C293.682 208.114 294.065 207.098 294.188 206.036C294.311 204.973 294.171 203.897 293.778 202.901C293.386 201.906 292.754 201.023 291.939 200.33C291.124 199.638 290.151 199.156 289.105 198.93C288.06 198.703 286.974 198.738 285.946 199.031C284.917 199.323 283.976 199.866 283.207 200.609C282.437 201.352 281.863 202.274 281.535 203.292C281.207 204.31 281.135 205.394 281.326 206.446L274.925 207.605Z" stroke="#C4D0FB" stroke-width="5.239" mask="url(#path-14-inside-4_184_8096)"/>
<circle cx="256.945" cy="280.215" r="13.6428" stroke="#C9F2E9" stroke-width="5.239"/>
<mask id="path-16-inside-5_184_8096" fill="white">
<path d="M32.1674 244.621C32.9376 242.625 34.1881 240.849 35.8083 239.452C37.4285 238.055 39.3682 237.079 41.4558 236.61C43.5433 236.141 45.7142 236.195 47.7762 236.766C49.8381 237.337 51.7274 238.407 53.2768 239.883C54.8262 241.358 55.9878 243.193 56.6587 245.224C57.3296 247.256 57.4892 249.421 57.1232 251.529C56.7573 253.637 55.8771 255.623 54.5606 257.309C53.2442 258.996 51.5322 260.331 49.5761 261.198L46.9406 255.251C47.9186 254.818 48.7747 254.15 49.4329 253.307C50.0911 252.463 50.5312 251.471 50.7142 250.417C50.8971 249.363 50.8174 248.28 50.4819 247.264C50.1464 246.248 49.5656 245.331 48.791 244.593C48.0163 243.856 47.0716 243.32 46.0406 243.035C45.0097 242.75 43.9242 242.723 42.8804 242.957C41.8367 243.191 40.8668 243.679 40.0567 244.378C39.2466 245.077 38.6213 245.964 38.2363 246.962L32.1674 244.621Z"/>
</mask>
<path d="M32.1674 244.621C32.9376 242.625 34.1881 240.849 35.8083 239.452C37.4285 238.055 39.3682 237.079 41.4558 236.61C43.5433 236.141 45.7142 236.195 47.7762 236.766C49.8381 237.337 51.7274 238.407 53.2768 239.883C54.8262 241.358 55.9878 243.193 56.6587 245.224C57.3296 247.256 57.4892 249.421 57.1232 251.529C56.7573 253.637 55.8771 255.623 54.5606 257.309C53.2442 258.996 51.5322 260.331 49.5761 261.198L46.9406 255.251C47.9186 254.818 48.7747 254.15 49.4329 253.307C50.0911 252.463 50.5312 251.471 50.7142 250.417C50.8971 249.363 50.8174 248.28 50.4819 247.264C50.1464 246.248 49.5656 245.331 48.791 244.593C48.0163 243.856 47.0716 243.32 46.0406 243.035C45.0097 242.75 43.9242 242.723 42.8804 242.957C41.8367 243.191 40.8668 243.679 40.0567 244.378C39.2466 245.077 38.6213 245.964 38.2363 246.962L32.1674 244.621Z" stroke="#FFD6DD" stroke-width="4" mask="url(#path-16-inside-5_184_8096)"/>
<circle cx="382.5" cy="184.5" r="8.5" fill="#849CF2"/>
<circle cx="14.6365" cy="192.4" r="4.8787" fill="#C4D0FB"/>
</svg>
