<svg width="104" height="21" viewBox="0 0 104 21" fill="none" xmlns="http://www.w3.org/2000/svg">
<path fill-rule="evenodd" clip-rule="evenodd" d="M93.6793 0.26614C93.274 -0.109025 92.6413 -0.0845932 92.2661 0.320709C91.891 0.726012 91.9154 1.35871 92.3207 1.73387L100.171 9L1 9C0.447715 9 0 9.44772 0 10C0 10.5523 0.447715 11 1 11L100.635 11L92.3407 18.2738C91.9254 18.6379 91.884 19.2697 92.2481 19.685C92.6123 20.1002 93.2441 20.1416 93.6593 19.7775L103.659 11.0083C103.872 10.8215 103.996 10.5531 104 10.2699C104.004 9.98658 103.887 9.71499 103.679 9.52255L93.6793 0.26614Z" fill="#818D9B"/>
</svg>
