<svg width="194" height="148" viewBox="0 0 194 148" fill="none" xmlns="http://www.w3.org/2000/svg">
<g opacity="0.5">
<path d="M14.8702 38.8511C14.8702 38.8511 13.3804 33.2161 16.0194 29.6717C18.6584 26.1272 27.4188 21.5351 25.492 16.7342C23.5664 11.9102 17.5184 11.5491 15.1899 14.0214C12.8614 16.4937 14.3067 18.9771 12.6893 19.356C11.0718 19.735 1.60545 20.539 2.09814 15.0767C2.59083 9.6144 8.36916 1.81054 16.4331 1.25767C24.4969 0.704799 35.3041 0.387326 38.0255 10.8334C40.7468 21.2794 36.9354 25.5501 31.3171 28.4996C25.6999 31.4259 28.6023 37.5049 26.5621 38.4407C24.5232 39.3535 15.1921 40.674 14.8702 38.8511Z" fill="#C4A2FC"/>
<path d="M13.2273 49.5315C13.6865 45.1558 16.1254 42.3419 20.0231 42.1974C23.9209 42.0529 27.2498 43.9397 28.4255 48.9331C29.3162 52.7307 24.4579 56.206 20.5601 56.3505C16.6636 56.4719 12.8406 53.4016 13.2273 49.5315Z" fill="#C4A2FC"/>
</g>
<g opacity="0.7">
<path opacity="0.7" d="M74.4318 109.196C74.4318 109.196 74.457 98.2723 80.9819 93.1794C87.5449 88.0756 105.752 84.0667 104.584 74.4338C103.416 64.8009 92.5272 61.1814 87.0913 64.4774C81.6555 67.7735 83.0806 73.0069 79.9537 72.8777C76.8377 72.7866 59.1532 69.6005 62.7321 60.0008C66.262 50.374 80.62 39.1523 95.5961 42.0888C110.61 45.0142 130.386 49.7401 130.305 69.9083C130.223 90.0765 121.161 95.9415 109.492 98.479C97.8228 101.017 100.155 113.404 95.9806 114.071C91.7789 114.787 74.1021 112.628 74.4318 109.196Z" fill="url(#paint0_linear_184_9478)"/>
</g>
<path d="M66.2646 127.616C69.2006 119.932 75.0484 116.064 82.2351 117.702C89.4217 119.339 94.5875 124.401 94.3309 133.95C94.1292 141.259 83.5452 145.131 76.3586 143.494C69.123 141.829 63.615 134.435 66.2646 127.616Z" fill="url(#paint1_linear_184_9478)"/>
<circle cx="143.314" cy="42.5073" r="8.8193" stroke="#C9F2E9" stroke-width="4.40965"/>
<circle cx="9.37051" cy="105.911" r="8.2681" stroke="#AADCD1" stroke-width="2.20483"/>
<path d="M180.064 125.203C173.671 125.203 168.488 120.021 168.488 113.628C168.488 107.235 173.671 102.053 180.064 102.053C186.456 102.053 191.639 107.235 191.639 113.628C191.639 120.021 186.456 125.203 180.064 125.203Z" stroke="#C9F2E9" stroke-width="4.40965"/>
<circle cx="34.501" cy="66.5" r="2.5" fill="#C4D0FB"/>
<circle cx="35.2771" cy="135.125" r="4.40965" transform="rotate(90 35.2771 135.125)" fill="#E1DCFF"/>
<circle cx="156.001" cy="128" r="5" transform="rotate(90 156.001 128)" fill="#9CE3FA"/>
<circle cx="168.837" cy="72.2876" r="4.40965" transform="rotate(90 168.837 72.2876)" fill="#D69CFA"/>
<path d="M179.88 17.1399C177.98 12.8037 173.837 9.18335 168.826 7.47641C167.67 7.0772 166.458 6.82942 165.247 6.70553C162.067 6.40269 158.736 7.04967 155.597 8.63272C151.481 10.6838 148.356 14.0013 147.007 17.718C145.411 22.1643 146.705 26.5556 150.642 30.0933C153.147 32.5161 153.794 35.1729 153.89 36.9762C153.918 37.4167 153.904 37.8296 153.89 38.2013C153.808 39.4953 153.505 40.335 153.505 40.3487C153.505 40.3625 153.505 40.39 153.505 40.4038C153.519 40.4176 153.532 40.4313 153.546 40.4451L160.14 42.6889L161.296 43.0881C161.31 43.0881 161.31 43.0881 161.324 43.0881C161.351 43.0881 161.379 43.0743 161.393 43.033C161.558 42.5788 161.75 42.152 161.984 41.7528C164.325 37.6644 169.721 36.2053 170.381 36.0401C174.539 35.0627 177.705 31.993 180.072 26.6244C181.366 23.6786 181.311 20.3886 179.88 17.1399ZM179.921 26.5831C177.581 31.8966 174.442 34.9526 170.34 35.9162C169.679 36.0814 164.27 37.5405 161.874 41.6427C161.64 42.0419 161.434 42.4824 161.255 42.9367L160.167 42.565L153.642 40.335C153.711 40.101 153.945 39.3301 154.014 38.2426C154.042 37.8572 154.042 37.4442 154.028 36.9899C153.932 35.1591 153.271 32.461 150.724 29.997C146.828 26.5005 145.548 22.1643 147.131 17.7869C148.439 14.1527 151.619 10.7939 155.638 8.78414C159.396 6.89825 163.416 6.34763 167.133 7.1598C167.683 7.28369 168.234 7.43511 168.785 7.61406C173.768 9.30724 177.87 12.9001 179.756 17.1949C181.16 20.4161 181.215 23.651 179.921 26.5831Z" fill="#002B34"/>
<g opacity="0.4">
<path opacity="0.4" d="M162.095 9.32321C161.724 9.10296 161.2 9.0066 160.622 9.03413C160.292 9.0479 159.948 9.10296 159.59 9.19932C158.323 9.54346 157.263 10.2868 156.754 11.1953C156.245 12.1039 156.327 13.1225 156.947 13.7007C156.961 13.7144 156.974 13.7282 156.988 13.742C157.25 13.976 157.58 14.0861 157.924 14.0861C158.337 14.0861 158.805 13.9209 159.259 13.6043C161.173 12.2691 163.651 12.4067 163.678 12.4067C163.692 12.4067 163.706 12.4067 163.72 12.3929C164.16 12.1727 164.38 11.8974 164.394 11.5808C164.408 10.9613 163.651 10.2317 162.095 9.32321ZM163.664 12.2553C163.417 12.2415 161.049 12.1865 159.177 13.4804C158.434 13.9898 157.704 14.0724 157.181 13.7007C157.14 13.6731 157.084 13.6319 157.043 13.5906C156.465 13.0675 156.41 12.1176 156.878 11.2779C157.374 10.4107 158.392 9.69488 159.617 9.35074C160.044 9.24061 160.443 9.18555 160.815 9.18555C160.843 9.18555 160.87 9.18555 160.898 9.18555C161.338 9.19932 161.724 9.28191 162.013 9.46086C163.857 10.5346 164.243 11.2091 164.229 11.5808C164.229 11.8286 164.036 12.0626 163.664 12.2553Z" fill="#002B34"/>
</g>
<path d="M165.705 7.58688C156.827 4.55844 146.668 10.2849 143.969 17.7872C142.276 22.4951 143.914 26.7899 147.576 30.0799C152.477 34.8015 150.453 40.4179 150.453 40.4179L158.203 43.0609C160.034 37.9676 166.435 36.2194 167.247 36.0267C171.102 35.1181 174.378 32.3375 176.883 26.6523C180.118 19.3427 174.584 10.6153 165.705 7.58688Z" fill="#FFDD2D"/>
<path d="M159.167 41.2037C159.167 41.2037 161.48 42.3875 159.924 44.8653C159.924 44.8653 160.998 47.2743 158.823 48.2242C158.823 48.2242 159.539 50.5919 157.529 51.9822C155.519 53.3587 145.815 49.1189 145.402 47.8525C144.975 46.5861 145.787 45.5399 146.737 45.5536C146.737 45.5536 145.883 44.2321 146.599 43.2135C147.315 42.181 148.017 42.1673 148.017 42.1673C148.017 42.1673 147.301 41.3551 147.755 39.8271C148.21 38.2716 150.646 36.9226 159.167 41.2037Z" fill="#8AE989"/>
<g opacity="0.4">
<path opacity="0.4" d="M160.585 12.3646C160.585 12.3646 158.079 12.2131 156.125 13.5759C154.156 14.9387 152.724 13.0391 153.716 11.2771C154.72 9.51508 157.653 8.66161 158.96 9.43249C160.268 10.1758 162.237 11.5386 160.585 12.3646Z" fill="white"/>
</g>
<path d="M158.795 48.39C158.767 48.39 158.74 48.3763 158.712 48.3487C158.698 48.3487 157.9 47.7155 156.579 47.0961C155.353 46.5179 153.44 45.8296 151.169 45.7883C151.072 45.7883 150.99 45.7057 150.99 45.6094C150.99 45.513 151.072 45.4304 151.169 45.4304C153.495 45.4717 155.477 46.1875 156.73 46.7795C158.093 47.4264 158.891 48.0459 158.919 48.0734C159.001 48.1285 159.001 48.2524 158.946 48.3212C158.919 48.3763 158.85 48.4038 158.795 48.39Z" fill="#002B34"/>
<path d="M159.897 45.0438C159.87 45.0438 159.856 45.03 159.828 45.0163C159.814 45.0025 158.686 44.2867 157.116 43.5847C155.685 42.9377 153.579 42.1943 151.707 42.2356C151.61 42.2356 151.528 42.1668 151.528 42.0704C151.528 41.9741 151.61 41.8915 151.707 41.8915C153.647 41.8502 155.809 42.6211 157.282 43.2818C158.865 43.9976 160.021 44.7272 160.035 44.7272C160.117 44.7823 160.145 44.8924 160.09 44.975C160.035 45.0163 159.966 45.0576 159.897 45.0438Z" fill="#002B34"/>
<path opacity="0.4" d="M154.971 38.2407V37.6693C155.242 37.0472 156.667 33.6637 157.638 30.3628C157.844 30.4276 158.051 30.4836 158.257 30.5329C158.082 31.2042 157.897 31.9786 157.694 32.8699L157.694 32.8699L157.693 32.8745C157.146 35.4009 156.762 37.8588 156.685 38.4059C156.667 38.4875 156.664 38.5432 156.664 38.581V38.9449L157.024 39.0024L157.368 39.0574L157.712 39.1125L158.206 39.1916V38.7189L158.206 38.7155C158.209 38.6948 158.214 38.6639 158.22 38.6232C158.232 38.5418 158.251 38.4232 158.275 38.2724C158.323 37.971 158.393 37.5418 158.482 37.0259C158.66 35.9938 158.914 34.6168 159.215 33.2206C159.425 32.2633 159.615 31.4677 159.792 30.7907C160.236 30.8213 160.667 30.8255 161.066 30.8027L161.066 30.8027L161.068 30.8026C161.874 30.7522 162.599 30.6005 163.191 30.3587C163.776 30.1195 164.266 29.7762 164.545 29.3182L164.546 29.3171C165.096 28.4062 164.926 27.3538 164.167 26.5937C163.341 25.7528 161.73 25.2683 160.363 26.0551C160.297 26.0922 160.187 26.1551 160.054 26.2774C159.924 26.3975 159.783 26.5646 159.631 26.8061C159.359 27.2388 159.04 27.9278 158.682 29.0568C158.468 29.0079 158.253 28.9483 158.041 28.8793C158.438 27.2796 158.671 25.7375 158.489 24.6751C158.374 23.9911 158.119 23.522 157.804 23.2107C157.489 22.9008 157.144 22.7765 156.893 22.7302L156.893 22.7302L156.892 22.7299C155.896 22.5489 154.838 23.2281 154.235 24.2218C153.421 25.5527 153.555 27.1086 154.525 28.3414C154.991 28.9359 155.574 29.4031 156.213 29.7561C155.256 33.065 153.75 36.603 153.539 37.0986C153.525 37.1315 153.517 37.151 153.515 37.1561L153.361 37.5407L153.741 37.7059L154.058 37.8436L154.374 37.9812L154.971 38.2407ZM156.566 24.2511C156.566 24.2511 156.567 24.2512 156.568 24.2512L156.571 24.2521L156.599 24.2574C156.654 24.2677 156.723 24.3071 156.799 24.438C156.875 24.571 156.929 24.7529 156.959 24.9384L156.959 24.9384L156.961 24.9517C157.038 25.3456 157.027 25.8906 156.938 26.5571C156.871 27.0603 156.762 27.6156 156.623 28.2009C156.287 27.9718 155.988 27.7006 155.731 27.3839C154.885 26.3193 155.366 25.3172 155.543 25.0218C155.694 24.7721 155.882 24.5725 156.07 24.4386C156.263 24.3014 156.429 24.251 156.54 24.251L156.566 24.2511ZM163.234 28.5088L163.234 28.5098C163.167 28.6241 162.954 28.7973 162.524 28.9536C162.115 29.1022 161.581 29.2096 160.986 29.2489L160.986 29.2489C160.751 29.2646 160.504 29.2707 160.25 29.2622C160.484 28.5628 160.683 28.1092 160.84 27.8183C161.025 27.478 161.134 27.3956 161.143 27.3887C161.144 27.3881 161.144 27.3881 161.143 27.3884C161.813 27.0057 162.651 27.2372 163.076 27.6737L163.076 27.6737L163.08 27.6775C163.151 27.7479 163.25 27.8716 163.299 28.0192C163.342 28.15 163.351 28.3097 163.234 28.5088Z" fill="white" stroke="white" stroke-width="0.853419"/>
<path opacity="0.5" fill-rule="evenodd" clip-rule="evenodd" d="M87.001 113.775C90.7388 114.239 94.2514 114.379 95.8393 114.108C97.412 113.857 98.0612 111.943 98.8833 109.518C100.244 105.506 102.077 100.098 109.351 98.5167C121.02 95.9792 130.082 90.1142 130.163 69.946C130.23 53.3296 116.818 47.1954 103.696 43.9141L98.5749 65.3424C101.547 67.1776 103.93 70.246 104.443 74.4715C105.102 79.905 99.5959 83.5492 93.4926 86.6098L87.001 113.775Z" fill="#10DEB9"/>
<defs>
<linearGradient id="paint0_linear_184_9478" x1="88.913" y1="41.0105" x2="108.892" y2="110.367" gradientUnits="userSpaceOnUse">
<stop offset="0.135417" stop-color="#10DEB9"/>
<stop offset="0.901042" stop-color="#6ADB97"/>
</linearGradient>
<linearGradient id="paint1_linear_184_9478" x1="75.9966" y1="117.708" x2="83.4576" y2="143.609" gradientUnits="userSpaceOnUse">
<stop offset="0.135417" stop-color="#10DEB9"/>
<stop offset="0.901042" stop-color="#6ADB97"/>
</linearGradient>
</defs>
</svg>
