<svg width="217" height="160" viewBox="0 0 217 160" fill="none" xmlns="http://www.w3.org/2000/svg">
<path d="M84.3714 14.4152L95.7038 22.6898L82.8716 28.3667L84.3714 14.4152Z" fill="#C4D0FB"/>
<path d="M149.028 17.2136L173.332 3.18168L173.332 31.2455L149.028 17.2136Z" fill="#FFD6DD"/>
<path d="M56.3652 82.0246L56.3652 99.5645L41.1752 90.7946L56.3652 82.0246Z" fill="#C4D0FB"/>
<circle cx="39.4939" cy="34.431" r="8.12666" stroke="#C9F2E9" stroke-width="4"/>
<mask id="path-5-inside-1_184_9522" fill="white">
<path d="M16.2554 0.713767C18.1364 1.38858 19.822 2.51687 21.1628 3.99871C22.5036 5.48055 23.4583 7.27019 23.9423 9.20911C24.4262 11.148 24.4245 13.1764 23.9373 15.1145C23.4502 17.0526 22.4925 18.8407 21.1492 20.3203C19.806 21.7999 18.1185 22.9254 16.2364 23.597C14.3542 24.2687 12.3355 24.4658 10.3589 24.171C8.38239 23.8761 6.50908 23.0983 4.90494 21.9065C3.30079 20.7148 2.01533 19.1457 1.1624 17.3385L5.55824 15.2639C6.06999 16.3482 6.84127 17.2897 7.80376 18.0047C8.76625 18.7198 9.89023 19.1865 11.0762 19.3634C12.2621 19.5403 13.4733 19.422 14.6026 19.019C15.7319 18.616 16.7444 17.9407 17.5503 17.053C18.3563 16.1652 18.9309 15.0924 19.2232 13.9295C19.5155 12.7666 19.5165 11.5496 19.2262 10.3863C18.9358 9.22291 18.363 8.14913 17.5585 7.26002C16.754 6.37092 15.7427 5.69394 14.614 5.28906L16.2554 0.713767Z"/>
</mask>
<path d="M16.2554 0.713767C18.1364 1.38858 19.822 2.51687 21.1628 3.99871C22.5036 5.48055 23.4583 7.27019 23.9423 9.20911C24.4262 11.148 24.4245 13.1764 23.9373 15.1145C23.4502 17.0526 22.4925 18.8407 21.1492 20.3203C19.806 21.7999 18.1185 22.9254 16.2364 23.597C14.3542 24.2687 12.3355 24.4658 10.3589 24.171C8.38239 23.8761 6.50908 23.0983 4.90494 21.9065C3.30079 20.7148 2.01533 19.1457 1.1624 17.3385L5.55824 15.2639C6.06999 16.3482 6.84127 17.2897 7.80376 18.0047C8.76625 18.7198 9.89023 19.1865 11.0762 19.3634C12.2621 19.5403 13.4733 19.422 14.6026 19.019C15.7319 18.616 16.7444 17.9407 17.5503 17.053C18.3563 16.1652 18.9309 15.0924 19.2232 13.9295C19.5155 12.7666 19.5165 11.5496 19.2262 10.3863C18.9358 9.22291 18.363 8.14913 17.5585 7.26002C16.754 6.37092 15.7427 5.69394 14.614 5.28906L16.2554 0.713767Z" stroke="#FFD6DD" stroke-width="8" mask="url(#path-5-inside-1_184_9522)"/>
<mask id="path-6-inside-2_184_9522" fill="white">
<path d="M171.197 73.268C170.96 71.9571 171.05 70.6078 171.458 69.3397C171.867 68.0717 172.582 66.9239 173.54 65.9982C174.498 65.0725 175.67 64.3973 176.951 64.0326C178.232 63.6678 179.584 63.6247 180.886 63.9071C182.188 64.1894 183.4 64.7885 184.415 65.6512C185.431 66.514 186.217 67.6138 186.706 68.8533C187.195 70.0927 187.37 71.4335 187.217 72.7569C187.063 74.0804 186.586 75.3455 185.827 76.4404L182.498 74.1324C182.878 73.5849 183.116 72.9524 183.193 72.2907C183.27 71.6289 183.182 70.9585 182.938 70.3388C182.693 69.7191 182.3 69.1692 181.792 68.7378C181.285 68.3064 180.679 68.0069 180.028 67.8657C179.377 67.7245 178.701 67.7461 178.06 67.9285C177.419 68.1109 176.834 68.4484 176.355 68.9113C175.876 69.3742 175.518 69.948 175.314 70.582C175.109 71.2161 175.065 71.8907 175.183 72.5462L171.197 73.268Z"/>
</mask>
<path d="M171.197 73.268C170.96 71.9571 171.05 70.6078 171.458 69.3397C171.867 68.0717 172.582 66.9239 173.54 65.9982C174.498 65.0725 175.67 64.3973 176.951 64.0326C178.232 63.6678 179.584 63.6247 180.886 63.9071C182.188 64.1894 183.4 64.7885 184.415 65.6512C185.431 66.514 186.217 67.6138 186.706 68.8533C187.195 70.0927 187.37 71.4335 187.217 72.7569C187.063 74.0804 186.586 75.3455 185.827 76.4404L182.498 74.1324C182.878 73.5849 183.116 72.9524 183.193 72.2907C183.27 71.6289 183.182 70.9585 182.938 70.3388C182.693 69.7191 182.3 69.1692 181.792 68.7378C181.285 68.3064 180.679 68.0069 180.028 67.8657C179.377 67.7245 178.701 67.7461 178.06 67.9285C177.419 68.1109 176.834 68.4484 176.355 68.9113C175.876 69.3742 175.518 69.948 175.314 70.582C175.109 71.2161 175.065 71.8907 175.183 72.5462L171.197 73.268Z" stroke="#C4D0FB" stroke-width="4" mask="url(#path-6-inside-2_184_9522)"/>
<circle cx="160.001" cy="118.482" r="8.12666" stroke="#C9F2E9" stroke-width="4"/>
<mask id="path-8-inside-3_184_9522" fill="white">
<path d="M25.5559 126.913C24.2381 126.717 22.9889 126.2 21.9189 125.406C20.849 124.612 19.9913 123.567 19.4219 122.362C18.8524 121.158 18.5889 119.831 18.6544 118.501C18.72 117.17 19.1128 115.876 19.7979 114.734C20.483 113.591 21.4393 112.635 22.5822 111.95C23.725 111.265 25.0191 110.873 26.3498 110.808C27.6804 110.743 29.0066 111.007 30.2109 111.577C31.4152 112.146 32.4603 113.005 33.2538 114.075L29.9999 116.487C29.6031 115.952 29.0806 115.523 28.4784 115.238C27.8763 114.953 27.2132 114.821 26.5479 114.854C25.8825 114.886 25.2355 115.083 24.6641 115.425C24.0926 115.767 23.6145 116.245 23.2719 116.817C22.9294 117.388 22.733 118.035 22.7002 118.7C22.6674 119.366 22.7992 120.029 23.0839 120.631C23.3686 121.233 23.7975 121.756 24.3324 122.153C24.8674 122.55 25.492 122.808 26.1509 122.906L25.5559 126.913Z"/>
</mask>
<path d="M25.5559 126.913C24.2381 126.717 22.9889 126.2 21.9189 125.406C20.849 124.612 19.9913 123.567 19.4219 122.362C18.8524 121.158 18.5889 119.831 18.6544 118.501C18.72 117.17 19.1128 115.876 19.7979 114.734C20.483 113.591 21.4393 112.635 22.5822 111.95C23.725 111.265 25.0191 110.873 26.3498 110.808C27.6804 110.743 29.0066 111.007 30.2109 111.577C31.4152 112.146 32.4603 113.005 33.2538 114.075L29.9999 116.487C29.6031 115.952 29.0806 115.523 28.4784 115.238C27.8763 114.953 27.2132 114.821 26.5479 114.854C25.8825 114.886 25.2355 115.083 24.6641 115.425C24.0926 115.767 23.6145 116.245 23.2719 116.817C22.9294 117.388 22.733 118.035 22.7002 118.7C22.6674 119.366 22.7992 120.029 23.0839 120.631C23.3686 121.233 23.7975 121.756 24.3324 122.153C24.8674 122.55 25.492 122.808 26.1509 122.906L25.5559 126.913Z" stroke="#FFD6DD" stroke-width="4" mask="url(#path-8-inside-3_184_9522)"/>
<circle cx="213.673" cy="47.5962" r="3.038" fill="#C4D0FB"/>
<circle cx="9.11417" cy="63.7997" r="3.038" fill="#C4D0FB"/>
<path d="M157.644 40.3784H144.906V34.8404C144.906 34.2312 144.408 33.7328 143.799 33.7328H72.912C72.3028 33.7328 71.8044 34.2312 71.8044 34.8404V40.3784H59.0669C57.4513 40.3784 55.9018 41.0202 54.7594 42.1627C53.6169 43.3051 52.9751 44.8546 52.9751 46.4702V66.9609C52.9751 78.2723 61.2821 87.6731 72.109 89.3899C74.2411 105.478 87.1724 118.16 103.371 119.918V134.483H76.2348C73.7842 134.483 71.8044 136.463 71.8044 138.914V143.386C71.8044 143.995 72.3028 144.493 72.912 144.493H143.799C144.408 144.493 144.906 143.995 144.906 143.386V138.914C144.906 136.463 142.926 134.483 140.476 134.483H113.34V119.918C129.538 118.16 142.469 105.478 144.602 89.3899C155.428 87.6731 163.735 78.2723 163.735 66.9609V46.4702C163.735 44.8546 163.094 43.3051 161.951 42.1627C160.809 41.0202 159.259 40.3784 157.644 40.3784ZM71.8044 79.0892C66.6679 77.4416 62.9435 72.6235 62.9435 66.9609V50.3468H71.8044V79.0892ZM153.767 66.9609C153.767 72.6374 150.043 77.4555 144.906 79.0892V50.3468H153.767V66.9609Z" fill="url(#paint0_angular_184_9522)"/>
<mask id="mask0_184_9522" style="mask-type:alpha" maskUnits="userSpaceOnUse" x="88" y="55" width="41" height="42">
<path fill-rule="evenodd" clip-rule="evenodd" d="M108.355 96.2019V96.202C107.505 96.202 106.659 96.1484 105.822 96.043C102.051 95.5676 98.4713 94.0376 95.5068 91.6047C94.3311 90.6398 93.2758 89.5523 92.3554 88.3663C90.4401 85.8984 89.1087 83.0038 88.4912 79.8999C87.5771 75.3042 88.2847 70.5337 90.4936 66.4013C92.7024 62.2689 96.2758 59.0302 100.605 57.237C104.934 55.4439 109.751 55.2072 114.235 56.5674C118.719 57.9276 122.592 60.8005 125.195 64.6965C126.954 67.3279 128.059 70.3161 128.45 73.4155C128.637 74.905 128.66 76.4202 128.511 77.9338C128.135 81.7504 126.686 85.3636 124.355 88.3663C123.838 89.0324 123.278 89.6684 122.677 90.2699L119.281 86.8742L116.081 83.6742L116.086 83.6695C117.87 81.8827 118.981 79.5328 119.228 77.0195C119.438 74.8899 119.017 72.7545 118.031 70.8742C117.852 70.5335 117.655 70.2011 117.44 69.8787C116.035 67.777 113.946 66.2273 111.527 65.4935C109.108 64.7598 106.51 64.8874 104.174 65.8547C101.839 66.822 99.9115 68.5691 98.7199 70.7984C97.5284 73.0276 97.1466 75.601 97.6398 78.0801C97.7154 78.4604 97.8109 78.8349 97.9255 79.2022C98.5578 81.2291 99.7701 83.0367 101.424 84.3942C103.378 85.9978 105.828 86.8742 108.355 86.8742V86.8855L112.997 91.6684L117.638 96.2019H108.569H108.355Z" fill="white"/>
</mask>
<g mask="url(#mask0_184_9522)">
<path fill-rule="evenodd" clip-rule="evenodd" d="M104.213 97.8897L132.997 69.6924L126.773 63.7966L93.8406 96.3517L104.213 97.8897Z" fill="white"/>
<path fill-rule="evenodd" clip-rule="evenodd" d="M109.525 103.966L138.06 75.7685L131.89 69.8727L99.2415 102.428L109.525 103.966Z" fill="white"/>
<path fill-rule="evenodd" clip-rule="evenodd" d="M95.5349 95.231L127.884 62.6466L122.214 56.5555L89.8649 89.1398L95.5349 95.231Z" fill="white"/>
<path fill-rule="evenodd" clip-rule="evenodd" d="M89.9691 89.7884L122.195 57.2561L113.821 53.6699L85.4016 82.3597L89.9691 89.7884Z" fill="white"/>
<path fill-rule="evenodd" clip-rule="evenodd" d="M85.4016 82.3621L114.094 53.6699L98.723 55.207L85.4016 69.8093V82.3621Z" fill="white"/>
</g>
<defs>
<radialGradient id="paint0_angular_184_9522" cx="0" cy="0" r="1" gradientUnits="userSpaceOnUse" gradientTransform="translate(108.355 89.113) rotate(-90) scale(23.2913)">
<stop stop-color="#FFE710"/>
<stop offset="1" stop-color="#FFBD20"/>
</radialGradient>
</defs>
</svg>
