<svg width="87" height="34" viewBox="0 0 87 34" fill="none" xmlns="http://www.w3.org/2000/svg">
<path d="M69 0L87 17L69 34L51 17L69 0ZM85.4272 17L69 1.48543L52.5728 17L69 32.5146L85.4272 17Z" fill="url(#paint0_linear_265_5356)"/>
<path d="M52 0L70 17L52 34L34 17L52 0ZM68.4271 17L52 1.48543L35.5728 17L52 32.5146L68.4271 17Z" fill="url(#paint1_linear_265_5356)"/>
<path d="M35 0L53 17L35 34L17 17L35 0ZM51.4272 17L35 1.48543L18.5729 17L35 32.5146L51.4272 17Z" fill="url(#paint2_linear_265_5356)"/>
<path d="M18 0L36 17L18 34L0 17L18 0ZM34.4272 17L18 1.48543L1.5728 17L18 32.5146L34.4272 17Z" fill="url(#paint3_linear_265_5356)"/>
<defs>
<linearGradient id="paint0_linear_265_5356" x1="69" y1="0" x2="69" y2="34" gradientUnits="userSpaceOnUse">
<stop offset="0.135417" stop-color="#10DEB9"/>
<stop offset="0.901042" stop-color="#6ADB97"/>
</linearGradient>
<linearGradient id="paint1_linear_265_5356" x1="52" y1="0" x2="52" y2="34" gradientUnits="userSpaceOnUse">
<stop offset="0.135417" stop-color="#10DEB9"/>
<stop offset="0.901042" stop-color="#6ADB97"/>
</linearGradient>
<linearGradient id="paint2_linear_265_5356" x1="35" y1="0" x2="35" y2="34" gradientUnits="userSpaceOnUse">
<stop offset="0.135417" stop-color="#10DEB9"/>
<stop offset="0.901042" stop-color="#6ADB97"/>
</linearGradient>
<linearGradient id="paint3_linear_265_5356" x1="18" y1="0" x2="18" y2="34" gradientUnits="userSpaceOnUse">
<stop offset="0.135417" stop-color="#10DEB9"/>
<stop offset="0.901042" stop-color="#6ADB97"/>
</linearGradient>
</defs>
</svg>
