<svg width="100" height="236" viewBox="0 0 100 236" fill="none" xmlns="http://www.w3.org/2000/svg">
<path fill-rule="evenodd" clip-rule="evenodd" d="M0.00220876 111.606C-0.0714547 113.742 1.69644 117.278 5.45327 122.36C7.58951 125.233 10.978 129.653 15.7662 135.546C15.9871 135.841 17.3868 135.178 19.965 133.484C22.5432 131.789 23.6481 130.832 23.5008 130.463C20.7753 126.191 17.6077 120.298 13.7772 112.858C10.978 107.333 8.98913 103.208 7.81051 100.409L6.63192 101.293C5.67429 102.029 4.86399 102.84 4.0537 103.65C1.40181 106.302 0.0758722 108.954 0.00220876 111.606Z" fill="#FFC19F"/>
<path fill-rule="evenodd" clip-rule="evenodd" d="M35.5079 90.4645C35.9499 88.4756 36.2446 87.4443 36.2446 87.3706C33.0034 87.3706 30.6461 87.3706 29.1729 87.4443C27.4786 87.5179 26.2263 87.6653 25.3424 87.9599C23.6481 88.9912 20.7753 90.9065 16.5765 93.7057C9.65209 98.4201 5.9689 100.851 5.60059 101.072C6.41088 102.398 8.10515 105.05 10.536 109.028C12.8196 112.637 14.5875 115.142 15.8398 116.541C17.3868 115.952 19.523 115.142 22.3222 114.11C24.8267 113.153 26.3 112.563 26.6683 112.416C29.0992 109.396 31.3828 104.461 33.5927 97.3888C34.2557 95.1789 34.8449 92.8954 35.5079 90.4645Z" fill="white"/>
<path fill-rule="evenodd" clip-rule="evenodd" d="M95.0279 112.636C94.365 111.679 93.6283 110.795 92.818 109.911L91.7867 108.879C90.0925 111.531 87.4406 115.288 83.9048 120.224C79.043 127.001 74.9178 132.304 71.6029 136.061C71.3083 136.356 72.3396 137.534 74.6231 139.597C76.9067 141.66 78.159 142.544 78.4537 142.249C84.0521 137.166 88.1035 133.336 90.6818 130.831C95.1752 126.485 97.5324 123.244 97.7534 121.108C97.9744 118.529 97.0905 115.656 95.0279 112.636Z" fill="#FFC19F"/>
<path fill-rule="evenodd" clip-rule="evenodd" d="M76.4655 94.221C75.6552 93.8527 74.4029 93.4107 72.635 92.8951C71.4564 92.6004 69.0992 91.9374 65.416 91.0535C65.416 91.1271 65.4897 92.2321 65.7106 94.2947C65.9316 96.8729 66.2263 99.2301 66.5946 101.514C67.6996 108.954 69.2465 114.331 71.1618 117.646C72.1194 118.309 75.5079 120.224 81.18 123.465C82.6532 122.287 84.7895 120.077 87.5887 116.909C90.6089 113.373 92.6715 111.016 93.7027 109.838C84.3475 101.219 78.6017 95.9889 76.4655 94.221Z" fill="white"/>
<path fill-rule="evenodd" clip-rule="evenodd" d="M45.2336 163.98C45.1599 168.989 45.3809 178.86 45.9702 193.445C46.5595 208.178 46.8542 217.017 46.7805 220.038C46.7805 220.774 44.5706 221.364 40.2245 221.879C35.8783 222.321 33.6684 222.247 33.5947 221.511C33.0054 215.618 31.4585 204.716 29.1013 188.952C26.6704 173.409 25.3445 164.716 25.0498 162.875L45.2336 163.98Z" fill="#FFC19F"/>
<path fill-rule="evenodd" clip-rule="evenodd" d="M47.8098 209.577L30.8672 210.166C31.0145 211.419 31.3828 214.365 31.9721 219.006C32.4878 222.91 32.7824 225.415 32.9298 226.446C32.9298 226.667 35.4343 226.593 40.2961 226.225C45.1579 225.857 47.6624 225.562 47.6624 225.267C47.8098 223.352 47.8835 220.405 47.8835 216.354C47.8098 212.45 47.8098 210.166 47.8098 209.577Z" fill="white"/>
<path fill-rule="evenodd" clip-rule="evenodd" d="M40.3703 216.795C36.8345 216.427 34.9929 216.427 34.9192 216.869C31.7517 218.858 26.8162 221.436 20.1129 224.604C15.1038 227.255 12.7465 229.613 13.0412 231.602C13.4831 234.253 17.7556 235.211 25.9323 234.474C29.3944 234.18 35.5822 233.222 44.3481 231.675C45.4531 231.454 46.4107 230.939 47.221 230.202C48.0313 229.318 48.4733 228.36 48.4733 227.255C48.4733 226.003 48.2523 224.235 47.8103 221.952C47.2947 219.594 47.0737 218.048 47.0737 217.311C46.558 217.385 44.3481 217.237 40.3703 216.795Z" fill="white"/>
<path fill-rule="evenodd" clip-rule="evenodd" d="M30.8685 219.816C31.6787 220.332 32.489 221.069 33.2993 222.173C34.1096 223.278 34.6989 224.31 35.1409 225.415C31.9734 225.783 29.5425 225.857 27.9219 225.562C25.7857 225.194 24.2388 224.162 23.2811 222.542C21.1449 223.794 18.1247 225.267 14.2942 227.035C11.5686 228.509 10.2427 230.129 10.3164 231.897C10.39 234.107 16.7987 234.844 29.5425 234.033C33.5203 233.812 37.8665 233.37 42.6546 232.928L48.6214 232.192C48.6214 231.16 48.5477 229.319 48.5477 226.667C48.5477 224.089 48.5477 222.321 48.474 221.363C48.4004 221.29 48.253 221.216 48.1057 221.216C47.9584 221.216 47.7374 221.29 47.5901 221.437C45.6748 222.542 43.0229 223.647 39.6344 224.678C38.6031 224.973 37.7191 225.194 36.9825 225.341C36.5405 224.015 35.8039 222.689 34.8463 221.363C33.815 219.964 32.8574 219.006 31.8261 218.343C31.6051 218.196 31.3841 218.196 31.1631 218.269C30.9421 218.343 30.7212 218.49 30.5738 218.711C30.4265 218.932 30.4265 219.153 30.5001 219.448C30.5001 219.522 30.6475 219.743 30.8685 219.816Z" fill="#104486"/>
<path fill-rule="evenodd" clip-rule="evenodd" d="M43.3908 233.076L48.6209 232.192C48.6209 231.603 48.6209 230.94 48.6209 230.203C41.8439 231.234 35.5825 231.971 29.7631 232.413C20.7761 233.15 14.2938 233.076 10.316 232.118C10.2423 232.266 10.2423 232.487 10.3896 232.781C10.4633 233.076 10.5369 233.297 10.6106 233.371C12.7468 235.36 19.7449 235.728 31.531 234.476C35.2142 234.181 39.192 233.665 43.3908 233.076Z" fill="#104486"/>
<path fill-rule="evenodd" clip-rule="evenodd" d="M67.0346 187.184C66.961 172.304 66.961 163.612 67.1083 161.254L47.6611 163.759C48.3241 168.989 49.3554 178.786 50.976 193.151C52.5966 208.252 53.5542 217.091 53.9225 219.669C53.9962 220.406 56.2798 220.774 60.6996 220.774C65.1194 220.774 67.3293 220.406 67.3293 219.669C67.1083 206.042 67.0346 195.213 67.0346 187.184Z" fill="#FFC19F"/>
<path fill-rule="evenodd" clip-rule="evenodd" d="M68.9504 209.576L52.0078 210.166C52.1551 211.492 52.5235 214.438 53.1128 219.005C53.6284 222.91 53.9231 225.414 54.0704 226.445C54.144 226.666 56.5749 226.593 61.4367 226.224C66.2985 225.856 68.8031 225.561 68.8031 225.267C68.9504 223.351 69.024 220.405 69.024 216.353C68.9504 212.449 68.8767 210.166 68.9504 209.576Z" fill="white"/>
<path fill-rule="evenodd" clip-rule="evenodd" d="M54.2902 217.311C54.2902 217.974 53.9955 219.521 53.5536 221.952C53.1116 224.236 52.8906 226.004 52.8906 227.256C52.8906 228.361 53.3326 229.392 54.2166 230.202C55.0269 231.013 55.9845 231.455 57.0894 231.676C65.8554 233.296 72.0431 234.18 75.5053 234.475C83.6819 235.138 87.9544 234.18 88.3964 231.602C88.6911 229.613 86.3338 227.256 81.3247 224.604C74.6214 221.436 69.6859 218.858 66.5184 216.869C66.4447 216.501 64.6031 216.427 61.0672 216.796C56.9421 217.238 54.7322 217.385 54.2902 217.311Z" fill="white"/>
<path fill-rule="evenodd" clip-rule="evenodd" d="M70.4962 219.818C70.7171 219.67 70.8645 219.449 70.9382 219.228C71.0118 218.934 70.9381 218.713 70.8645 218.492C70.7171 218.271 70.5699 218.123 70.3489 218.05C70.1279 217.976 69.9069 218.05 69.6859 218.123C68.6546 218.786 67.6233 219.744 66.6657 221.144C65.7081 222.47 64.9714 223.796 64.5294 225.121C63.7191 224.974 62.8352 224.753 61.8776 224.459C58.4891 223.427 55.8371 222.322 53.9219 221.217C53.7746 221.07 53.6273 220.996 53.4063 220.996C53.259 220.996 53.1116 220.996 53.038 221.144C52.9643 222.175 52.9643 223.943 52.9643 226.447C52.9643 229.173 52.9643 231.015 52.8906 231.972C59.2257 232.782 65.5607 233.445 71.9694 233.814C84.7132 234.624 91.1219 233.887 91.1956 231.678C91.2692 229.91 89.9434 228.289 87.2178 226.816C83.3873 225.122 80.4407 223.575 78.3045 222.322C77.3468 223.943 75.8 224.974 73.6637 225.342C72.0431 225.637 69.6122 225.637 66.4447 225.195C66.8866 224.09 67.476 223.059 68.2863 221.954C68.8756 221.144 69.6859 220.333 70.4962 219.818Z" fill="#104486"/>
<path fill-rule="evenodd" clip-rule="evenodd" d="M52.6719 232.193C58.123 233.151 63.8687 233.961 69.7618 234.624C81.6216 235.803 88.5459 235.434 90.6822 233.519C90.7558 233.445 90.8295 233.224 90.9032 232.93C90.9769 232.635 90.9769 232.414 90.9769 232.267C86.999 233.151 80.443 233.224 71.5297 232.561C65.7103 232.119 59.4489 231.383 52.6719 230.352C52.7455 230.941 52.7455 231.604 52.6719 232.193Z" fill="#104486"/>
<path fill-rule="evenodd" clip-rule="evenodd" d="M49.7963 88.4716C58.8569 89.5765 66.2233 90.9762 72.0427 92.6704C72.19 95.7643 72.2637 104.604 72.19 119.042C72.1164 129.355 72.3374 137.973 72.7793 144.971C73.295 146.666 74.6209 151.38 76.8308 159.188C78.4514 164.934 79.9983 170.164 81.4716 174.731C77.7148 177.236 72.4847 179.078 65.7813 180.33C63.8661 180.698 61.9508 180.993 59.9619 181.214C57.089 181.508 54.2162 181.729 51.196 181.877L47.0708 163.682L42.872 181.729C40.4411 181.582 38.0839 181.435 35.7266 181.14C31.6015 180.625 27.6973 179.962 24.0141 178.93C17.1634 177.162 11.786 174.731 7.88184 171.711C12.3016 158.525 15.9848 147.771 18.8577 139.447H18.9313C19.8153 133.48 20.773 127.219 21.8042 120.81C24.6771 103.057 26.666 91.9338 27.8447 87.3666C32.7801 86.9247 40.0728 87.2193 49.7963 88.4716ZM45.7449 100.773C46.2605 100.847 46.7761 100.921 47.2918 101.068L50.9013 109.171L59.7409 97.2375C60.4775 96.5009 61.0669 95.6906 61.5088 94.8066C62.0245 93.7754 62.2455 92.6704 62.3191 91.4918C62.3191 91.4181 62.2454 91.1971 62.1718 90.9761C62.0981 90.6815 62.0981 90.4605 62.0244 90.3868C52.2272 88.6189 44.0506 87.5876 37.4209 87.3666C37.2736 87.8823 37.0526 88.4716 36.9052 89.2082C36.8316 89.5765 36.7579 89.8712 36.6843 90.0922C36.5369 90.6078 36.4633 90.9025 36.4633 91.1235C36.4633 91.3445 36.4633 91.6391 36.4633 91.8601C36.5369 92.7441 36.7579 93.4807 37.0526 94.2173C37.1999 94.5857 37.3472 94.954 37.5682 95.2486L39.8518 107.992L45.7449 100.773Z" fill="white"/>
<path fill-rule="evenodd" clip-rule="evenodd" d="M45.7454 100.774L39.8524 108.141L37.5688 95.3969C37.3478 95.0286 37.2005 94.7339 37.0532 94.3656C36.7585 93.6289 36.5375 92.8187 36.4639 92.0084C36.4639 91.7874 36.4639 91.4927 36.4639 91.2717C36.4639 91.0507 36.5375 90.7561 36.6848 90.2404C36.7585 90.0194 36.8322 89.7248 36.9058 89.3565C37.0532 88.6198 37.2742 88.0305 37.4215 87.5149C44.0512 87.7359 52.2278 88.7672 62.025 90.5351C62.025 90.6087 62.0987 90.7561 62.1724 91.1244C62.246 91.3454 62.3197 91.5664 62.3197 91.64C62.3197 92.8187 62.0251 93.9236 61.5094 94.9549C61.0674 95.8389 60.4781 96.6492 59.7415 97.3858L50.9019 109.319L47.2924 101.216C46.703 100.922 46.1874 100.848 45.7454 100.774Z" fill="#104486"/>
<path fill-rule="evenodd" clip-rule="evenodd" d="M41.8433 96.1362C43.6113 97.4622 45.7475 98.2725 48.3994 98.4935C51.0512 98.7145 53.2612 98.2725 55.2501 97.2412C57.239 96.2099 58.2703 94.884 58.4176 93.1897L59.7435 77.6467L40.812 76.0261L39.4861 91.5691C39.3388 93.2634 40.0754 94.8103 41.8433 96.1362Z" fill="#FFC19F"/>
<path fill-rule="evenodd" clip-rule="evenodd" d="M73.0029 130.832C70.2037 129.654 68.2147 128.917 66.9625 128.622C64.8262 128.181 62.027 128.254 58.4912 128.77C57.8282 129.064 57.6809 129.506 57.9019 129.948C58.1229 130.317 58.4912 130.611 59.0068 130.832C59.5225 131.053 60.7011 131.127 62.469 131.201C64.2369 131.274 65.4155 131.495 66.0048 131.79L66.1522 131.937C64.6789 131.864 62.911 132.085 60.922 132.527C59.8171 132.748 58.2702 133.116 56.2813 133.632C55.7656 135.326 56.5759 136.062 58.7121 135.989C61.8797 135.547 64.3843 135.252 66.2995 135.179C65.1946 135.4 63.7949 135.768 61.9533 136.283C60.4064 136.725 59.2278 137.02 58.4175 137.094C57.4599 137.83 57.1652 138.493 57.3862 139.083C57.6072 139.598 58.3439 139.893 59.5225 139.819C60.0381 139.819 61.2904 139.598 63.1319 139.304C65.1209 139.009 66.6678 138.788 67.8464 138.714C67.9201 138.788 66.8151 139.23 64.3842 140.114C61.8797 141.145 60.4801 142.029 60.1118 142.619C60.1854 143.061 60.5537 143.429 61.2167 143.576C61.9533 143.797 62.8373 143.723 63.8686 143.355C64.6789 143.061 65.3419 142.84 65.8575 142.619C66.8151 142.25 67.9201 142.029 69.025 141.808C69.9826 141.956 70.9403 142.398 72.0452 142.987C72.6346 143.282 73.2975 143.723 74.0342 144.165C75.4338 144.681 76.7597 144.239 78.012 142.84C78.9696 141.735 79.4852 140.777 79.6326 139.893C79.7799 138.641 79.0432 136.946 77.4963 134.884C75.8757 132.821 74.4025 131.495 73.0029 130.832Z" fill="#FFC19F"/>
<path fill-rule="evenodd" clip-rule="evenodd" d="M22.248 133.632C22.5427 133.263 22.469 132.821 22.1744 132.232C21.8797 131.716 21.3641 131.201 20.6275 130.685C21.6588 131.274 22.469 131.348 22.9847 130.98C23.4266 130.685 23.6477 130.169 23.4267 129.433C23.2793 128.696 22.8373 127.96 22.1744 127.223C21.5114 126.486 20.7748 125.971 19.9645 125.602C19.1542 125.308 18.5649 125.234 18.0492 125.529C17.6073 125.823 17.4599 126.339 17.6072 127.076C17.7546 127.812 18.1229 128.549 18.8595 129.285C19.1542 129.58 19.4488 129.875 19.8171 130.169C18.9332 129.727 18.0492 129.506 17.2389 129.433C16.4286 129.433 15.8393 129.58 15.5447 130.022C15.25 130.317 15.25 130.759 15.5447 131.274C15.8393 131.79 16.2813 132.232 16.8706 132.748C15.9866 132.748 15.3974 132.969 15.1027 133.411C14.8817 133.779 14.9554 134.221 15.3237 134.81C15.692 135.326 16.2077 135.768 16.9443 136.21C16.4287 136.21 15.9866 136.284 15.6183 136.431C15.25 136.578 14.9553 136.873 14.8817 137.167C14.7344 137.609 14.808 138.051 15.1764 138.493C15.5447 138.935 16.134 139.304 16.8706 139.525C17.6072 139.746 18.2702 139.746 18.9332 139.598C19.5961 139.451 19.9645 139.156 20.1118 138.714C20.1855 138.42 20.1854 138.125 20.0381 137.757C19.8908 137.462 19.5962 137.167 19.2278 136.873C20.3328 136.946 20.9958 136.799 21.3641 136.284C21.5114 135.989 21.5851 135.694 21.3641 135.326C21.2168 134.958 20.9221 134.589 20.4801 134.221C21.3641 134.221 21.9534 134.074 22.248 133.632Z" fill="#FFC19F"/>
<path fill-rule="evenodd" clip-rule="evenodd" d="M94.4394 109.028L90.7562 105.86L76.6865 121.845L80.3697 125.087L94.4394 109.028Z" fill="#E2E2E2"/>
<path fill-rule="evenodd" clip-rule="evenodd" d="M20.7015 115.51L8.39967 98.0515L4.42188 100.924L16.7236 118.309L20.7015 115.51Z" fill="#E2E2E2"/>
<path fill-rule="evenodd" clip-rule="evenodd" d="M44.5688 114.333C45.0845 113.891 45.7474 113.67 46.4841 113.744C47.2207 113.818 47.7363 114.112 48.1047 114.554C48.6203 115.144 48.7676 115.733 48.694 116.469C48.6203 117.206 48.3993 117.795 47.8837 118.237C47.368 118.679 46.7787 118.9 46.0421 118.827C45.3791 118.753 44.7898 118.458 44.2742 117.943C43.8322 117.427 43.6112 116.764 43.6849 116.101C43.7585 115.438 43.9795 114.849 44.5688 114.333Z" fill="#104486"/>
<path fill-rule="evenodd" clip-rule="evenodd" d="M47.2174 134.516C46.7017 135.031 46.1124 135.252 45.3758 135.179C44.6392 135.179 44.0498 134.884 43.6079 134.295C43.1659 133.779 43.0186 133.19 43.0186 132.453C43.0922 131.716 43.3869 131.127 43.9025 130.759C44.4182 130.317 45.0075 130.096 45.7441 130.169C46.4071 130.169 46.9964 130.464 47.4384 130.98C47.954 131.495 48.175 132.085 48.1013 132.821C48.0277 133.558 47.733 134.147 47.2174 134.516Z" fill="#104486"/>
<path fill-rule="evenodd" clip-rule="evenodd" d="M42.136 149.03C42.136 148.367 42.4307 147.778 42.9463 147.336C43.462 146.894 44.1249 146.673 44.7879 146.746C45.4509 146.746 46.0402 147.041 46.4821 147.557C46.9241 148.146 47.1451 148.735 47.1451 149.398C47.0715 150.135 46.7768 150.724 46.2612 151.166C45.7455 151.608 45.1562 151.829 44.4196 151.755C43.6829 151.682 43.0936 151.387 42.578 150.872C42.2097 150.356 41.9887 149.767 42.136 149.03Z" fill="#104486"/>
<path fill-rule="evenodd" clip-rule="evenodd" d="M55.8379 118.604L56.4272 114.111L68.729 116.32L68.2133 120.888L55.8379 118.604Z" fill="#104486"/>
<path fill-rule="evenodd" clip-rule="evenodd" d="M55.7284 88.77C53.4448 90.0959 51.3086 90.7589 49.246 90.7589C47.1835 90.7589 45.5628 90.4642 44.3842 89.8749C42.7636 89.0646 41.8797 87.8124 41.7324 86.0444L39.5225 67.7022L61.3268 65.9343L62.5791 82.1403C60.5165 85.0868 58.233 87.2967 55.7284 88.77Z" fill="#FB9D7D"/>
<path fill-rule="evenodd" clip-rule="evenodd" d="M2.83929 87.444C4.2389 86.7073 5.71216 85.9707 7.2591 85.0131L9.17433 83.9081C7.03809 84.6448 4.75453 85.3814 2.32364 86.118C1.80799 84.5711 1.58699 82.8032 1.80799 80.8143L2.24995 78.3097C3.79688 78.457 6.3751 78.0151 9.98461 77.0574C13.9624 75.9525 16.7616 74.7739 18.4559 73.3743C22.7284 76.0998 24.8646 77.7941 24.8646 78.5307C24.128 80.6669 23.6123 83.2452 23.244 86.2654C22.9494 88.9172 22.8021 92.3058 22.8021 96.4309L17.8666 96.2099C18.1613 94.5893 18.6033 92.8951 19.0452 90.9798L19.6345 88.6963L18.6032 90.9798C17.7929 92.8214 17.13 94.5157 16.5407 96.0626L14.7727 95.9153L16.7617 90.9798L15.804 92.3794C15.0674 93.558 14.3307 94.663 13.6678 95.7679C12.0472 95.547 10.9423 95.2523 10.4266 94.884C6.74344 92.9687 4.2389 90.4642 2.83929 87.444Z" fill="#1993FF"/>
<path fill-rule="evenodd" clip-rule="evenodd" d="M12.7091 73.1519C12.4881 71.6786 12.8565 70.3527 13.7404 69.174C14.6244 67.9954 15.803 67.3325 17.2763 67.1115C18.7495 66.8905 20.0755 67.2588 21.1804 68.1428C22.359 69.0267 23.022 70.2053 23.243 71.6786C23.3167 71.9733 23.243 72.4889 23.1693 73.2255C24.0533 72.7099 25.0846 72.4889 26.0422 72.5626C27.0735 72.6362 28.0311 73.0045 28.9151 73.6675C30.0937 74.5515 30.7567 75.7301 30.9776 77.2034C31.1986 78.6766 30.8303 79.9289 29.9464 81.1075C29.0624 82.2861 27.8838 82.9491 26.4106 83.1701C24.9373 83.3911 23.6113 83.0228 22.4327 82.1388C21.6224 81.5495 21.1068 80.7392 20.7385 79.8552C20.4438 78.9713 20.2965 78.0137 20.5175 77.056C19.9282 77.3507 19.3389 77.5717 18.6759 77.719C17.2026 77.94 15.8767 77.5717 14.6981 76.6877C13.5931 75.8038 12.9301 74.6251 12.7091 73.1519Z" fill="white"/>
<path fill-rule="evenodd" clip-rule="evenodd" d="M72.745 76.8359C73.7763 76.1729 75.3969 75.2889 77.5331 74.184C80.185 72.858 81.8056 72.2687 82.3213 72.4897C84.2365 74.2576 86.6673 75.9519 89.6139 77.5725C92.2658 79.0458 95.728 80.74 100 82.508L97.5696 87.5171C96.0226 86.4858 94.402 85.3072 92.7078 84.0549L90.5715 82.508L92.4868 84.5705C94.0337 86.1911 95.507 87.6644 96.9066 88.9903C96.6119 89.5796 96.3173 90.1689 95.949 90.7583C94.9914 89.8006 93.96 88.7693 92.9287 87.7381L91.7501 86.4858L92.7814 88.1064C93.6654 89.4323 94.4757 90.6109 95.3597 91.8632C94.4757 93.3365 93.6654 94.3678 93.0025 94.8834C89.2456 97.7563 85.5624 99.2295 81.8792 99.3769C81.7319 97.6089 81.5846 95.6937 81.3636 93.7048L80.9953 91.2739L80.848 93.7048C80.7007 95.6937 80.4796 97.6089 80.2587 99.3769C78.4171 99.2295 76.5018 98.6402 74.5129 97.609L72.082 95.9884C72.8187 94.5888 73.2606 91.7159 73.4816 87.3697C73.6289 82.8763 73.4079 79.3404 72.745 76.8359Z" fill="#1993FF"/>
<path fill-rule="evenodd" clip-rule="evenodd" d="M79.9647 69.4695C81.1433 68.8065 82.322 68.7328 83.5743 69.1011C84.8265 69.4695 85.7842 70.2061 86.4471 71.3847C87.1101 72.5633 87.1838 73.7419 86.8155 74.9942C86.4471 76.2465 85.7105 77.2041 84.5319 77.7934C83.7216 78.2354 82.9113 78.3827 82.0273 78.3827C81.1434 78.3091 80.4067 78.0881 79.6701 77.5724C79.7437 78.2354 79.6701 78.8247 79.5228 79.2667C79.1545 80.519 78.4178 81.4766 77.2392 82.1396C76.0606 82.8025 74.882 82.9499 73.556 82.5815C72.3038 82.2132 71.3461 81.4766 70.7568 80.298C70.0938 79.1194 70.0202 77.9407 70.3885 76.6885C70.7568 75.4362 71.4935 74.4786 72.6721 73.8156C73.8507 73.1526 75.0293 73.079 76.2816 73.4473C76.6499 73.5946 77.0182 73.8156 77.5339 74.1102C77.4602 73.1526 77.6075 72.3423 78.0495 71.4584C78.4915 70.5744 79.1544 69.9114 79.9647 69.4695Z" fill="white"/>
<path fill-rule="evenodd" clip-rule="evenodd" d="M11.8999 51.4972C13.4468 48.698 15.9513 47.0038 19.4872 46.4881C22.1391 46.1198 24.4963 47.0774 26.7062 49.361C28.8424 51.6445 30.1684 54.6647 30.6103 58.2743C31.0523 62.2521 30.905 65.4933 30.1684 67.8505C29.2844 70.6497 27.5901 72.1966 25.0856 72.565C22.36 72.9333 19.5608 72.0493 16.7616 69.9131C13.8151 67.6295 11.8998 64.683 11.0895 60.9998C10.1319 57.3166 10.4266 54.1491 11.8999 51.4972Z" fill="#F4B18C"/>
<path fill-rule="evenodd" clip-rule="evenodd" d="M79.596 7.0775C88.5093 12.3076 93.4448 20.1159 94.4761 30.5761C95.1391 37.5005 94.255 43.9092 91.7505 49.8759C89.4669 55.4007 86.0048 60.1888 81.364 64.3876C76.9442 68.2918 71.8614 71.312 66.1156 73.4482C60.4435 75.5108 54.6978 76.5421 48.8047 76.4684C43.059 76.3948 37.7552 75.1425 32.8934 72.7116C28.1053 70.3544 23.9802 66.9659 20.5916 62.6197C17.1295 58.1999 14.6249 53.1171 13.078 47.3714C11.4574 41.331 11.0154 34.9223 11.6047 28.0716C12.3413 19.9686 15.9509 13.2652 22.3596 8.10879C29.2103 2.51037 37.9762 -0.141514 48.6574 0.00581285C61.6221 0.226803 71.935 2.58403 79.596 7.0775Z" fill="#1993FF"/>
<path fill-rule="evenodd" clip-rule="evenodd" d="M60.3693 12.6032C63.7578 12.8242 66.6307 13.3398 68.8406 14.0764C73.997 15.697 77.7539 19.3065 80.1848 24.8313C80.7004 26.0099 80.8477 29.1038 80.7004 34.1129C80.5531 38.9747 80.1848 44.3521 79.5218 50.3188C77.9012 65.1988 75.986 73.9648 73.7761 76.6167C71.1242 79.7842 66.7044 82.5098 60.664 84.7933C54.2553 87.1505 48.3622 88.1082 43.0584 87.5189C39.0806 87.0769 34.7344 85.7509 30.0937 83.4674C24.7162 80.8892 21.1804 78.0899 19.4125 74.9961C17.3499 71.3866 15.8766 62.9889 14.9926 49.7295C14.6243 44.4994 14.477 39.7113 14.5506 35.3652C14.5506 31.019 14.7716 28.2935 15.1399 27.1885C17.4972 20.5588 21.7697 16.2127 28.1047 14.2238C30.7566 13.3398 34.0715 12.8241 38.0493 12.5295C40.7748 12.3822 44.679 12.3085 49.8354 12.3822C54.6236 12.3085 58.1594 12.4558 60.3693 12.6032Z" fill="#FFC19F"/>
<path fill-rule="evenodd" clip-rule="evenodd" d="M91.1612 52.8231C92.9291 55.8433 93.2237 59.4528 92.1188 63.5043C91.0875 67.3348 88.8776 70.4286 85.5627 72.7859C82.3952 74.9958 79.3014 75.9534 76.2812 75.4378C74.8816 75.2168 73.8503 73.8172 73.261 71.1653C72.6717 68.6607 72.598 65.7878 73.04 62.5467C73.5556 59.0845 74.5132 56.1379 75.9128 53.707C77.5334 50.9815 79.596 49.3609 82.1006 48.9189C86.2257 48.2559 89.246 49.5082 91.1612 52.8231Z" fill="#FFC19F"/>
<path fill-rule="evenodd" clip-rule="evenodd" d="M85.6353 63.0603C85.4144 64.7546 84.4567 66.1542 82.9097 67.2592C81.3628 68.3641 79.8896 68.7324 78.4163 68.2168C77.827 67.9958 77.9007 65.9332 78.6373 62.0291C79.4476 58.1249 80.2579 56.136 81.0682 56.136C82.5414 56.136 83.7201 56.8726 84.604 58.3459C85.5617 59.8192 85.93 61.3661 85.6353 63.0603Z" fill="#E0956C"/>
<path fill-rule="evenodd" clip-rule="evenodd" d="M90.646 29.6186C89.8357 29.9133 89.0991 30.3552 88.3625 30.9446C87.7732 31.4602 86.9628 31.8285 85.9315 32.0495C86.0789 34.7014 86.3736 38.0162 86.8156 41.8467C87.0365 44.2776 86.8155 45.3826 86.1526 45.0143C84.753 47.8135 84.3846 51.0547 85.1949 54.8852C85.7842 57.758 86.6682 59.8206 87.6995 61.1466C82.0274 61.0729 78.5652 57.9054 77.313 51.7176C76.5027 47.7398 76.65 41.6258 77.6813 33.3018C71.4935 33.9648 65.6005 33.4491 59.9284 31.6812C53.3724 29.6186 46.89 25.8618 40.4813 20.4107C39.229 19.3794 37.9767 18.4954 36.6507 17.6851C38.7133 21.5156 40.7023 24.5358 42.6175 26.7457C44.9011 29.324 47.6266 31.4602 50.7205 33.0071C44.3854 33.3018 38.566 30.7972 33.3359 25.6408C30.9787 23.0626 29.2844 21.2947 28.3268 20.337C26.7799 18.7164 25.5276 17.9798 24.6436 17.9798C23.686 18.0535 21.8444 19.4531 19.1925 22.1786C16.6879 24.7568 15.2147 26.5248 14.92 27.3351C14.6254 28.219 14.5517 31.3129 14.7727 36.6903C15.0674 43.2463 15.2147 47.4452 15.141 49.3604C14.9937 52.4543 14.3307 54.7378 13.0784 56.2111C11.6052 57.9054 9.46893 58.421 6.66972 57.6844C8.36398 56.5058 9.46893 54.9588 9.98458 53.0436C10.4266 51.2757 10.5739 48.5501 10.2056 44.9406C9.3953 46.3402 8.806 47.1505 8.36402 47.2978C7.55372 47.6662 6.08044 47.5188 3.79688 46.9295C5.71212 46.0456 6.89073 44.5723 7.33271 42.5834C7.48004 41.8467 7.70104 40.5945 7.84836 38.7529C8.06935 36.4693 8.29032 34.6277 8.51131 33.2281C8.80596 27.9244 10.2056 22.9889 12.6365 18.3481C15.4357 13.0443 19.2662 8.84553 24.3489 5.75167C28.3268 3.32078 33.7779 1.77385 40.7022 1.11088C49.9838 0.300578 59.6337 1.62652 69.6519 5.16236C72.7458 6.4883 75.2504 8.47722 77.313 11.1291C78.5652 12.8234 79.9648 15.3279 81.4381 18.6428C82.985 22.0313 84.1637 24.3149 84.974 25.4935C86.3736 27.777 88.2888 29.103 90.646 29.6186Z" fill="#1993FF"/>
<path fill-rule="evenodd" clip-rule="evenodd" d="M71.8605 66.4902C70.8292 67.0795 69.577 67.3741 68.1774 67.3741C66.7041 67.3741 65.5255 67.0795 64.4942 66.4902C63.4629 65.9009 62.9473 65.1642 62.9473 64.3539C62.9473 63.5436 63.4629 62.807 64.4942 62.2177C65.5255 61.6284 66.7777 61.3337 68.1774 61.3337C69.577 61.3337 70.8292 61.6284 71.8605 62.2177C72.8918 62.807 73.4075 63.5436 73.4075 64.3539C73.4075 65.2379 72.8918 65.9009 71.8605 66.4902Z" fill="#FF7DBC"/>
<path fill-rule="evenodd" clip-rule="evenodd" d="M57.0552 67.0419C57.4235 69.9884 56.0976 72.6403 52.9301 75.1448C49.7626 77.5757 46.2267 78.7543 42.3225 78.5334H42.1752C38.6394 78.386 35.5455 76.9128 33.041 74.1136C30.5364 71.4617 29.5051 68.6625 29.9471 65.8632C30.1681 64.5373 31.273 63.8007 33.3356 63.727C34.6615 63.6533 37.4608 63.727 41.8069 64.0217L44.0168 64.0953C49.9835 64.39 53.0037 64.5373 53.0774 64.5373C55.5819 64.9056 56.9079 65.7159 57.0552 67.0419Z" fill="#701608"/>
<path fill-rule="evenodd" clip-rule="evenodd" d="M50.2056 76.8379C49.469 77.2062 48.7324 77.5008 48.1431 77.7218L47.9957 77.7955C46.0805 78.4585 44.1652 78.6795 42.3236 78.6058H42.1763C41.2923 78.5321 40.4084 78.4585 39.5244 78.1638C38.0512 77.7955 36.6516 77.0589 35.252 76.1012C36.2832 75.2909 37.4618 74.628 38.7141 74.186C40.04 73.744 41.366 73.5967 42.7656 73.5967C44.1652 73.6703 45.5648 73.965 46.8171 74.4806C48.143 75.1436 49.248 75.8802 50.2056 76.8379Z" fill="#DD6B5B"/>
<path fill-rule="evenodd" clip-rule="evenodd" d="M42.7657 67.9994C40.2611 67.9257 38.1249 67.4101 36.2833 66.5998C34.4417 65.7895 33.4104 64.8319 33.1895 63.7269V63.5796L41.8081 63.8006C43.6497 63.8742 47.3328 64.0216 52.6366 64.3899L52.563 64.5372C52.2683 65.6422 51.1634 66.4525 49.2481 67.1154C47.4802 67.8521 45.2703 68.0731 42.7657 67.9994Z" fill="white"/>
<path fill-rule="evenodd" clip-rule="evenodd" d="M45.2695 60.4839C45.0485 60.4839 44.9748 60.3366 44.9012 60.1156C44.8275 59.4527 44.5329 58.937 44.0909 58.495C43.6489 58.053 43.0596 57.8321 42.3229 57.8321C41.5863 57.8321 40.997 57.9794 40.4814 58.3477C39.9657 58.716 39.6711 59.2317 39.5237 59.8946C39.5237 59.9683 39.4501 60.1156 39.3764 60.1893C39.3027 60.2629 39.2291 60.2629 39.0817 60.2629C39.0081 60.2629 38.8608 60.1893 38.8608 60.1156C38.7871 60.042 38.7871 59.9683 38.7871 59.821C38.9344 59.0107 39.3027 58.3477 39.9657 57.8321C40.6287 57.3164 41.3653 57.0954 42.3229 57.1691C43.2069 57.2427 43.9435 57.4637 44.5328 58.053C45.1222 58.5687 45.4905 59.3053 45.6378 60.1156C45.6378 60.1893 45.6378 60.3366 45.5642 60.4103C45.4905 60.4103 45.4168 60.4839 45.2695 60.4839Z" fill="#C4735B"/>
<path fill-rule="evenodd" clip-rule="evenodd" d="M18.4538 59.7117C19.264 59.2697 20.2953 59.1224 21.4003 59.1961C22.5052 59.3434 23.4629 59.638 24.1995 60.301C24.9362 60.8903 25.2308 61.5533 25.1571 62.2899C25.0835 63.0266 24.6415 63.6159 23.7575 64.0579C22.9472 64.4998 21.9159 64.6472 20.811 64.4998C19.706 64.4262 18.8221 64.0579 18.0854 63.4685C17.3488 62.8792 16.9805 62.2163 17.0542 61.4796C17.2015 60.743 17.6435 60.1537 18.4538 59.7117Z" fill="#FF7DBC"/>
<path fill-rule="evenodd" clip-rule="evenodd" d="M57.0541 34.4062C59.706 33.4485 62.7999 33.3012 66.1884 33.8905C69.6506 34.4798 72.2288 35.7321 73.9231 37.5737C74.1441 37.7947 74.2177 38.0893 74.2177 38.384C74.2177 38.6786 74.0704 38.8996 73.9231 39.1206C73.7021 39.3416 73.4074 39.4889 73.1128 39.4153C72.8181 39.4153 72.5971 39.2679 72.3761 39.0469C71.1238 37.7947 68.9139 36.837 65.7464 36.2477C62.5052 35.6584 59.8534 35.7321 57.7171 36.5424C57.4225 36.6897 57.2015 36.6161 56.9068 36.4687C56.6858 36.3214 56.4648 36.1004 56.3911 35.8058C56.3175 35.5111 56.3175 35.2165 56.4648 34.9955C56.5385 34.6271 56.7595 34.4798 57.0541 34.4062Z" fill="#770404"/>
<path fill-rule="evenodd" clip-rule="evenodd" d="M31.6404 36.3212C29.7252 35.5846 27.6626 35.3636 25.5263 35.5846C23.3901 35.8056 21.6959 36.5422 20.3699 37.6472C20.1489 37.7945 19.9279 37.9418 19.7069 37.8681C19.4123 37.8681 19.1913 37.7208 18.9703 37.4998C18.7493 37.2788 18.6756 37.0579 18.7493 36.7632C18.7493 36.4685 18.8966 36.2476 19.1176 36.0266C20.6646 34.627 22.7271 33.8167 25.2317 33.4483C27.7362 33.1537 30.1671 33.4483 32.4507 34.2586C32.7453 34.406 32.8927 34.5533 33.04 34.8479C33.1874 35.1426 33.1874 35.3636 33.04 35.6582C32.9664 35.9529 32.7453 36.1002 32.4507 36.2476C32.156 36.3949 31.9351 36.3949 31.6404 36.3212Z" fill="#770404"/>
<path fill-rule="evenodd" clip-rule="evenodd" d="M31.7152 44.7936C33.0411 45.8985 33.7778 47.3718 33.8515 49.1397C33.9988 50.9076 33.4832 52.3809 32.3045 53.7069C31.1996 55.0328 29.7263 55.7694 27.9584 55.8431C26.1905 55.9904 24.7172 55.4748 23.3912 54.2962C22.0653 53.1912 21.3287 51.7179 21.255 49.95C21.1077 48.1821 21.6233 46.7088 22.8019 45.3829C23.9806 44.057 25.3802 43.3203 27.1481 43.2467C28.916 43.173 30.3893 43.6886 31.7152 44.7936Z" fill="#63190D"/>
<path fill-rule="evenodd" clip-rule="evenodd" d="M24.8628 44.0576C25.3784 44.0576 25.7468 44.1313 26.1151 44.4996C26.4834 44.7943 26.7044 45.2362 26.7044 45.6782C26.7044 46.1939 26.6307 46.5622 26.2624 46.9305C25.9678 47.2988 25.5258 47.5198 25.0838 47.5198C24.5681 47.5198 24.1998 47.4461 23.8315 47.0778C23.4632 46.7832 23.2422 46.3412 23.2422 45.8992C23.2422 45.3836 23.3159 45.0152 23.6842 44.6469C23.9788 44.2786 24.3471 44.0576 24.8628 44.0576Z" fill="#FEFFFE"/>
<path fill-rule="evenodd" clip-rule="evenodd" d="M65.0844 45.5302C66.4103 46.6351 67.1469 48.1084 67.2206 49.8763C67.3679 51.6442 66.8523 53.1175 65.6737 54.4434C64.5687 55.7694 63.0954 56.506 61.3275 56.5797C59.5596 56.727 58.0863 56.2114 56.7604 55.0327C55.4344 53.9278 54.6978 52.4545 54.6242 50.6866C54.4768 48.9187 54.9925 47.4454 56.1711 46.1195C57.3497 44.7935 58.7493 44.0569 60.5172 43.9832C62.2115 43.9096 63.7584 44.4252 65.0844 45.5302Z" fill="#63190D"/>
<path fill-rule="evenodd" clip-rule="evenodd" d="M58.1587 44.7942C58.6743 44.7942 59.0427 44.8679 59.411 45.2362C59.7793 45.5308 60.0003 45.9728 60.0003 46.4148C60.0003 46.9304 59.9266 47.2987 59.5583 47.6671C59.2637 48.0354 58.8217 48.2564 58.3797 48.2564C57.864 48.2564 57.4957 48.1827 57.1274 47.8144C56.7591 47.5197 56.5381 47.0778 56.5381 46.6358C56.5381 46.1201 56.6118 45.7518 56.9801 45.3835C57.2747 45.0152 57.7167 44.7942 58.1587 44.7942Z" fill="#FEFFFE"/>
</svg>
