<svg width="258" height="32" viewBox="0 0 258 32" fill="none" xmlns="http://www.w3.org/2000/svg">
<path d="M9.15206 18.7875C14.856 18.7875 18.3364 14.8882 18.3364 10.0866C18.3364 5.285 14.856 1.35347 9.15206 1.35347C3.44814 1.35347 0 5.285 0 10.0866C0 14.8882 3.44814 18.7875 9.15206 18.7875ZM24.7492 31.001C25.3615 31.001 25.5227 30.8399 25.5227 30.1631V28.1007C25.5227 27.424 25.3293 27.2628 24.717 27.2628L10.6989 27.5206V21.5589C10.6989 20.9144 10.4733 20.6888 9.79658 20.6888H7.54079C6.86405 20.6888 6.63847 20.9144 6.63847 21.5589V30.4532C6.63847 31.0977 6.86405 31.3233 7.54079 31.3233L24.7492 31.001ZM9.15206 15.0493C5.89728 15.0493 4.06042 12.8258 4.06042 10.0866C4.06042 7.31521 5.89728 5.09164 9.15206 5.09164C12.4713 5.09164 14.2759 7.28298 14.2759 10.0866C14.2759 12.8258 12.4713 15.0493 9.15206 15.0493ZM22.139 19.6898C22.139 20.3343 22.3646 20.5599 23.0413 20.5599H25.2971C25.9738 20.5599 26.1994 20.3343 26.1994 19.6898V2.86808C26.1994 2.22356 25.9738 1.99799 25.2971 1.99799H23.0413C22.3646 1.99799 22.139 2.22356 22.139 2.86808V19.6898Z" fill="#192A3E"/>
<path d="M40.1065 32C45.746 32 48.2596 29.1641 48.2596 25.8127C48.2596 22.4612 45.746 19.6254 40.1065 19.6254C34.467 19.6254 31.9534 22.4612 31.9534 25.8127C31.9534 29.1641 34.4992 32 40.1065 32ZM29.4721 4.54381C29.4721 5.18832 29.6976 5.4139 30.3744 5.4139L46.5838 5.15609L46.3905 10.57C46.3583 11.2145 46.5516 11.4401 47.2283 11.4401H49.4841C50.1609 11.4401 50.4187 11.2145 50.4509 10.57L50.7409 2.22356C50.7732 1.57905 50.5154 1.35347 49.8386 1.35347L30.3744 1.67573C29.6976 1.67573 29.4721 1.90131 29.4721 2.54582V4.54381ZM30.1488 13.8892C29.5365 13.8892 29.3431 14.0504 29.3431 14.7271V16.7251C29.3431 17.4663 29.5687 17.6274 30.1166 17.6274L50.0964 17.3051C50.6443 17.3051 50.8698 17.144 50.8698 16.4028V14.4048C50.8698 13.7281 50.6765 13.567 50.0642 13.567L41.1055 13.7281V9.34542C41.1055 8.70091 40.8799 8.47533 40.2032 8.47533H37.9474C37.2706 8.47533 37.0451 8.70091 37.0451 9.34542V13.7925L30.1488 13.8892ZM40.1065 28.5841C37.3995 28.5841 36.175 27.3595 36.175 25.8127C36.175 24.2659 37.3995 23.0413 40.1065 23.0413C42.8134 23.0413 44.038 24.2659 44.038 25.8127C44.038 27.3595 42.8134 28.5841 40.1065 28.5841Z" fill="#192A3E"/>
<path d="M54.6221 2.32024C54.0098 2.32024 53.8165 2.48137 53.8165 3.15811V5.15609C53.8165 5.89728 54.042 6.05841 54.5899 6.05841L60.3905 5.96173V13.3736C60.3905 14.147 60.2938 14.4371 59.8749 15.0493L53.5587 23.2991C53.2686 23.6858 53.3009 24.0081 53.6876 24.2981L55.7178 25.8127C56.1367 26.1672 56.3301 26.1349 56.6845 25.716L62.4207 18.2075L68.0602 25.2971C68.4146 25.716 68.608 25.7482 69.0269 25.3938L70.9927 23.8147C71.3794 23.5247 71.4116 23.2024 71.1216 22.8157L64.9665 15.0493C64.4831 14.4371 64.4509 14.147 64.4509 13.3736V5.86506L70.1871 5.73615C70.7349 5.73615 70.9605 5.57503 70.9605 4.83384V2.83585C70.9605 2.15911 70.7671 1.99799 70.1548 1.99799L54.6221 2.32024ZM74.5697 24.2014C74.5697 24.8459 74.7953 25.0715 75.4721 25.0715H77.7278C78.4046 25.0715 78.6302 24.8459 78.6302 24.2014V3.51259C78.6302 2.86808 78.4046 2.6425 77.7278 2.6425H75.4721C74.7953 2.6425 74.5697 2.86808 74.5697 3.51259V24.2014Z" fill="#192A3E"/>
<path d="M92.536 32C98.1755 32 100.689 29.3253 100.689 25.9738C100.689 22.6224 98.1755 19.9476 92.536 19.9476C86.8965 19.9476 84.3829 22.6224 84.3829 25.9738C84.3829 29.3253 86.9287 32 92.536 32ZM82.8039 1.67573C82.1271 1.67573 81.8693 1.90131 81.9016 2.54582L82.1916 11.3756C82.2238 12.0201 82.4172 12.2457 83.0939 12.2457L101.978 11.9235C102.655 11.9235 102.88 11.6979 102.88 11.0534V9.05539C102.88 8.41088 102.655 8.1853 101.978 8.1853L86.1553 8.47533L85.962 2.54582C85.9298 1.90131 85.7364 1.67573 85.0597 1.67573H82.8039ZM82.5783 14.5337C81.966 14.5337 81.7727 14.6949 81.7727 15.3716V17.3696C81.7727 18.1108 81.9982 18.2719 82.5461 18.2719L102.526 17.9496C103.074 17.9496 103.299 17.7885 103.299 17.0473V15.0493C103.299 14.3726 103.106 14.2115 102.494 14.2115L82.5783 14.5337ZM92.536 28.5841C89.8291 28.5841 88.6045 27.5206 88.6045 25.9738C88.6045 24.427 89.8291 23.3635 92.536 23.3635C95.243 23.3635 96.4675 24.427 96.4675 25.9738C96.4675 27.5206 95.243 28.5841 92.536 28.5841Z" fill="#192A3E"/>
<path d="M124.583 2.86808C124.583 2.22356 124.358 1.99799 123.681 1.99799H121.425C120.748 1.99799 120.523 2.22356 120.523 2.86808V13.3736C120.523 14.147 120.426 14.4371 120.007 15.0493L114.013 23.2991C113.723 23.6858 113.788 24.0081 114.142 24.2981L116.172 25.8127C116.591 26.1672 116.849 26.1349 117.139 25.716L122.553 18.2719L127.87 25.2971C128.225 25.716 128.418 25.7482 128.837 25.3938L130.867 23.8792C131.254 23.5891 131.286 23.2669 130.996 22.8802L125.099 15.0493C124.615 14.4371 124.583 14.147 124.583 13.3736V2.86808ZM140.212 15.565C140.825 15.5327 141.018 15.4038 141.018 14.7271V12.6647C141.018 11.9879 140.825 11.7946 140.212 11.8268L137.796 11.9235V3.51259C137.796 2.86808 137.57 2.6425 136.893 2.6425H134.637C133.961 2.6425 133.735 2.86808 133.735 3.51259V24.2014C133.735 24.8459 133.961 25.0715 134.637 25.0715H136.893C137.57 25.0715 137.796 24.8459 137.796 24.2014V15.6616L140.212 15.565Z" fill="#192A3E"/>
<path d="M144.323 14.856C143.711 14.856 143.517 15.0171 143.517 15.6939V17.6918C143.517 18.433 143.743 18.5942 144.291 18.5942L164.271 18.2719C164.818 18.2719 165.044 18.1108 165.044 17.3696V15.3716C165.044 14.6949 164.851 14.5337 164.238 14.5337L160.919 14.5982V11.3112C162.434 10.1833 163.239 8.60423 163.239 6.54179C163.239 2.28802 159.695 0 154.281 0C148.899 0 145.322 2.28802 145.322 6.54179C145.322 8.60423 146.128 10.1833 147.642 11.3112V14.8238L144.323 14.856ZM154.281 32C159.92 32 162.434 29.3253 162.434 25.9738C162.434 22.6224 159.92 19.9476 154.281 19.9476C148.641 19.9476 146.128 22.6224 146.128 25.9738C146.128 29.3253 148.673 32 154.281 32ZM154.281 9.66767C151.219 9.66767 149.672 8.37865 149.672 6.54179C149.672 4.70493 151.219 3.41591 154.281 3.41591C157.342 3.41591 158.889 4.70493 158.889 6.54179C158.889 8.37865 157.342 9.66767 154.281 9.66767ZM154.281 28.5841C151.574 28.5841 150.349 27.5206 150.349 25.9738C150.349 24.427 151.574 23.3635 154.281 23.3635C156.988 23.3635 158.212 24.427 158.212 25.9738C158.212 27.5206 156.988 28.5841 154.281 28.5841ZM154.281 13.0836C155.183 13.0836 156.053 13.0191 156.859 12.8902V14.6626L151.703 14.7593V12.8902C152.508 13.0191 153.346 13.0836 154.281 13.0836Z" fill="#192A3E"/>
<path d="M191.355 22.8479C191.355 22.2034 191.129 21.9456 190.453 21.9778L180.495 22.2356L180.269 5.99396L191.129 5.73615C191.806 5.73615 192.032 5.51057 192.032 4.86606V2.86808C192.032 2.22356 191.806 1.99799 191.129 1.99799L177.079 2.32024C176.402 2.32024 176.177 2.54582 176.177 3.19033L176.499 25.1682C176.499 25.8127 176.725 26.0705 177.401 26.0383L190.453 25.716C191.129 25.6838 191.355 25.4904 191.355 24.8459V22.8479ZM201.957 15.565C202.569 15.5327 202.763 15.4038 202.763 14.7271V12.6647C202.763 11.9879 202.569 11.7946 201.957 11.8268L199.54 11.9235V3.51259C199.54 2.86808 199.315 2.6425 198.638 2.6425H196.382C195.705 2.6425 195.48 2.86808 195.48 3.51259V24.2014C195.48 24.8459 195.705 25.0715 196.382 25.0715H198.638C199.315 25.0715 199.54 24.8459 199.54 24.2014V15.6616L201.957 15.565Z" fill="#192A3E"/>
<path d="M227.272 31.001C227.949 31.001 228.142 30.7754 228.174 30.1309L228.465 20.5599C228.497 19.9154 228.239 19.6898 227.562 19.6898L211.804 20.0121C211.127 20.0121 210.869 20.2377 210.902 20.8822L211.192 30.4532C211.224 31.0977 211.417 31.3233 212.094 31.3233L227.272 31.001ZM205.617 1.99799C205.004 1.99799 204.811 2.15911 204.811 2.83585V4.83384C204.811 5.57503 205.037 5.73615 205.584 5.73615L211.385 5.63948V8.73313C211.385 9.50655 211.417 9.92548 210.869 10.4089L204.746 15.2427C204.36 15.565 204.36 15.9194 204.746 16.3061L206.39 17.9496C206.809 18.3686 207.035 18.4008 207.518 18.0463L213.447 13.3414L219.474 17.6274C219.957 17.9819 220.247 17.9819 220.601 17.5629L222.084 15.7905C222.438 15.3716 222.471 15.1138 222.052 14.7593L215.961 10.4411C215.349 10.0222 215.445 9.53877 215.445 8.76536V5.5428L221.182 5.4139C221.729 5.4139 221.955 5.25277 221.955 4.51158V2.5136C221.955 1.83686 221.762 1.67573 221.149 1.67573L205.617 1.99799ZM225.564 16.7895C225.564 17.434 225.79 17.6596 226.467 17.6596H228.722C229.399 17.6596 229.625 17.434 229.625 16.7895V2.86808C229.625 2.22356 229.399 1.99799 228.722 1.99799H226.467C225.79 1.99799 225.564 2.22356 225.564 2.86808V16.7895ZM215.026 23.6858L224.307 23.4924L224.178 27.3273L215.155 27.5206L215.026 23.6858Z" fill="#192A3E"/>
<path d="M242.95 2.86808C242.95 2.22356 242.725 1.99799 242.048 1.99799H239.792C239.116 1.99799 238.89 2.22356 238.89 2.86808V13.3736C238.89 14.147 238.793 14.4371 238.374 15.0493L232.058 23.2991C231.768 23.6858 231.8 24.0081 232.187 24.2981L234.217 25.8127C234.636 26.1672 234.83 26.1349 235.184 25.716L240.92 18.2075L246.56 25.2971C246.914 25.716 247.108 25.7482 247.526 25.3938L249.492 23.8147C249.879 23.5247 249.911 23.2024 249.621 22.8157L243.466 15.0493C242.983 14.4371 242.95 14.147 242.95 13.3736V2.86808ZM247.591 10.9889C246.979 10.9889 246.785 11.1501 246.785 11.8268V13.8892C246.785 14.566 246.979 14.7271 247.591 14.7271L253.069 14.5982V24.2014C253.069 24.8459 253.295 25.0715 253.972 25.0715H256.227C256.904 25.0715 257.13 24.8459 257.13 24.2014V3.51259C257.13 2.86808 256.904 2.6425 256.227 2.6425H253.972C253.295 2.6425 253.069 2.86808 253.069 3.51259V10.86L247.591 10.9889Z" fill="#192A3E"/>
</svg>
