<svg width="942" height="600" viewBox="0 0 942 600" fill="none" xmlns="http://www.w3.org/2000/svg">
<path d="M7 582V18H940V582H7ZM7.85975 18.7524V581.398H939.14V18.7524H7.85975Z" fill="url(#paint0_linear_265_5322)"/>
<path d="M43.623 88.6684V49.3433H87.2983V50.0909H44.4828V88.6684H43.623Z" fill="url(#paint1_linear_265_5322)"/>
<path d="M44.1397 47.6992C45.5153 47.6992 46.547 48.5964 46.547 49.7926C46.547 50.9888 45.5153 51.8859 44.1397 51.8859C42.7641 51.8859 41.7324 50.9888 41.7324 49.7926C41.7324 48.5964 42.7641 47.6992 44.1397 47.6992Z" fill="url(#paint2_linear_265_5322)"/>
<path d="M17 526.125V70.8204H51.5619V58.8584H32.3035V39.8687H54.829V56.0174H70.8203V30H870.387V32.841H74.0874V59.0079H54.829V73.8109H20.2671V526.125H17ZM35.5706 42.7097V56.0174H51.5619V42.7097H35.5706Z" fill="url(#paint3_linear_265_5322)"/>
<path d="M856.604 50.0909V49.3433H900.279V88.6684H899.419V50.0909H856.604Z" fill="url(#paint4_linear_265_5322)"/>
<path d="M899.761 47.6992C898.385 47.6992 897.354 48.5964 897.354 49.7926C897.354 50.9888 898.385 51.8859 899.761 51.8859C901.136 51.8859 902.168 50.9888 902.168 49.7926C902.168 48.5964 901.136 47.6992 899.761 47.6992Z" fill="url(#paint5_linear_265_5322)"/>
<path d="M69.5898 33.195V30.354H872.596V56.521H888.587V40.2227H911.113V59.3619H891.854V71.324H926.416V526.479H923.149V74.1649H888.587V59.3619H869.329V33.195H69.5898ZM891.854 43.0637V56.3714H907.846V43.0637H891.854Z" fill="url(#paint6_linear_265_5322)"/>
<path d="M43.623 549.805V510.479H44.4828V549.057H87.2983V549.805H43.623Z" fill="url(#paint7_linear_265_5322)"/>
<path d="M44.1397 551.449C45.5153 551.449 46.547 550.552 46.547 549.355C46.547 548.159 45.5153 547.262 44.1397 547.262C42.7641 547.262 41.7324 548.159 41.7324 549.355C41.7324 550.552 42.7641 551.449 44.1397 551.449Z" fill="url(#paint8_linear_265_5322)"/>
<path d="M17.4883 527.824V524.983H55.3173V539.786H74.5756V565.953H874.315V568.794H71.3086V542.627H55.3173V558.775H32.7918V539.786H52.0502V527.824H17.4883ZM36.0589 542.627V555.934H52.0502V542.627H36.0589Z" fill="url(#paint9_linear_265_5322)"/>
<path d="M859.871 549.805V549.057H902.687V510.479H903.546V549.805H859.871Z" fill="url(#paint10_linear_265_5322)"/>
<path d="M903.028 551.449C901.653 551.449 900.621 550.552 900.621 549.355C900.621 548.159 901.653 547.262 903.028 547.262C904.404 547.262 905.436 548.159 905.436 549.355C905.436 550.552 904.404 551.449 903.028 551.449Z" fill="url(#paint11_linear_265_5322)"/>
<path d="M72.8574 568.794V565.953H872.596V539.786H891.855V524.983H926.417V527.824H895.122V539.786H914.38V558.925H891.855V542.776H875.863V568.943H72.8574V568.794ZM895.122 542.627V555.934H911.113V542.627H895.122Z" fill="url(#paint12_linear_265_5322)"/>
<path d="M462 555H461V600H462V555Z" fill="url(#paint13_linear_265_5322)"/>
<path d="M474 552H473V600H474V552Z" fill="url(#paint14_linear_265_5322)"/>
<path d="M486 555H485V600H486V555Z" fill="url(#paint15_linear_265_5322)"/>
<path d="M486 0H485V48H486V0Z" fill="url(#paint16_linear_265_5322)"/>
<path d="M474 0H473V48H474V0Z" fill="url(#paint17_linear_265_5322)"/>
<path d="M462 0H461V48H462V0Z" fill="url(#paint18_linear_265_5322)"/>
<rect x="3.5" y="15.5" width="935" height="569" stroke="url(#paint19_linear_265_5322)" stroke-width="7"/>
<defs>
<linearGradient id="paint0_linear_265_5322" x1="473.5" y1="18" x2="473.5" y2="582" gradientUnits="userSpaceOnUse">
<stop offset="0.135417" stop-color="#10DEB9"/>
<stop offset="0.901042" stop-color="#6ADB97"/>
</linearGradient>
<linearGradient id="paint1_linear_265_5322" x1="65.4607" y1="49.3433" x2="65.4607" y2="88.6684" gradientUnits="userSpaceOnUse">
<stop offset="0.135417" stop-color="#10DEB9"/>
<stop offset="0.901042" stop-color="#6ADB97"/>
</linearGradient>
<linearGradient id="paint2_linear_265_5322" x1="44.1397" y1="47.6992" x2="44.1397" y2="51.8859" gradientUnits="userSpaceOnUse">
<stop offset="0.135417" stop-color="#10DEB9"/>
<stop offset="0.901042" stop-color="#6ADB97"/>
</linearGradient>
<linearGradient id="paint3_linear_265_5322" x1="443.694" y1="30" x2="443.694" y2="526.125" gradientUnits="userSpaceOnUse">
<stop offset="0.135417" stop-color="#10DEB9"/>
<stop offset="0.901042" stop-color="#6ADB97"/>
</linearGradient>
<linearGradient id="paint4_linear_265_5322" x1="878.441" y1="49.3433" x2="878.441" y2="88.6684" gradientUnits="userSpaceOnUse">
<stop offset="0.135417" stop-color="#10DEB9"/>
<stop offset="0.901042" stop-color="#6ADB97"/>
</linearGradient>
<linearGradient id="paint5_linear_265_5322" x1="899.761" y1="47.6992" x2="899.761" y2="51.8859" gradientUnits="userSpaceOnUse">
<stop offset="0.135417" stop-color="#10DEB9"/>
<stop offset="0.901042" stop-color="#6ADB97"/>
</linearGradient>
<linearGradient id="paint6_linear_265_5322" x1="498.003" y1="30.354" x2="498.003" y2="526.479" gradientUnits="userSpaceOnUse">
<stop offset="0.135417" stop-color="#10DEB9"/>
<stop offset="0.901042" stop-color="#6ADB97"/>
</linearGradient>
<linearGradient id="paint7_linear_265_5322" x1="65.4607" y1="510.479" x2="65.4607" y2="549.805" gradientUnits="userSpaceOnUse">
<stop offset="0.135417" stop-color="#10DEB9"/>
<stop offset="0.901042" stop-color="#6ADB97"/>
</linearGradient>
<linearGradient id="paint8_linear_265_5322" x1="44.1397" y1="547.262" x2="44.1397" y2="551.449" gradientUnits="userSpaceOnUse">
<stop offset="0.135417" stop-color="#10DEB9"/>
<stop offset="0.901042" stop-color="#6ADB97"/>
</linearGradient>
<linearGradient id="paint9_linear_265_5322" x1="445.901" y1="524.983" x2="445.901" y2="568.794" gradientUnits="userSpaceOnUse">
<stop offset="0.135417" stop-color="#10DEB9"/>
<stop offset="0.901042" stop-color="#6ADB97"/>
</linearGradient>
<linearGradient id="paint10_linear_265_5322" x1="881.709" y1="510.479" x2="881.709" y2="549.805" gradientUnits="userSpaceOnUse">
<stop offset="0.135417" stop-color="#10DEB9"/>
<stop offset="0.901042" stop-color="#6ADB97"/>
</linearGradient>
<linearGradient id="paint11_linear_265_5322" x1="903.028" y1="547.262" x2="903.028" y2="551.449" gradientUnits="userSpaceOnUse">
<stop offset="0.135417" stop-color="#10DEB9"/>
<stop offset="0.901042" stop-color="#6ADB97"/>
</linearGradient>
<linearGradient id="paint12_linear_265_5322" x1="499.637" y1="524.983" x2="499.637" y2="568.943" gradientUnits="userSpaceOnUse">
<stop offset="0.135417" stop-color="#10DEB9"/>
<stop offset="0.901042" stop-color="#6ADB97"/>
</linearGradient>
<linearGradient id="paint13_linear_265_5322" x1="461.5" y1="555" x2="461.5" y2="600" gradientUnits="userSpaceOnUse">
<stop offset="0.135417" stop-color="#10DEB9"/>
<stop offset="0.901042" stop-color="#6ADB97"/>
</linearGradient>
<linearGradient id="paint14_linear_265_5322" x1="473.5" y1="552" x2="473.5" y2="600" gradientUnits="userSpaceOnUse">
<stop offset="0.135417" stop-color="#10DEB9"/>
<stop offset="0.901042" stop-color="#6ADB97"/>
</linearGradient>
<linearGradient id="paint15_linear_265_5322" x1="485.5" y1="555" x2="485.5" y2="600" gradientUnits="userSpaceOnUse">
<stop offset="0.135417" stop-color="#10DEB9"/>
<stop offset="0.901042" stop-color="#6ADB97"/>
</linearGradient>
<linearGradient id="paint16_linear_265_5322" x1="485.5" y1="0" x2="485.5" y2="48" gradientUnits="userSpaceOnUse">
<stop offset="0.135417" stop-color="#10DEB9"/>
<stop offset="0.901042" stop-color="#6ADB97"/>
</linearGradient>
<linearGradient id="paint17_linear_265_5322" x1="473.5" y1="0" x2="473.5" y2="48" gradientUnits="userSpaceOnUse">
<stop offset="0.135417" stop-color="#10DEB9"/>
<stop offset="0.901042" stop-color="#6ADB97"/>
</linearGradient>
<linearGradient id="paint18_linear_265_5322" x1="461.5" y1="0" x2="461.5" y2="48" gradientUnits="userSpaceOnUse">
<stop offset="0.135417" stop-color="#10DEB9"/>
<stop offset="0.901042" stop-color="#6ADB97"/>
</linearGradient>
<linearGradient id="paint19_linear_265_5322" x1="471" y1="12" x2="471" y2="588" gradientUnits="userSpaceOnUse">
<stop offset="0.135417" stop-color="#10DEB9"/>
<stop offset="0.901042" stop-color="#6ADB97"/>
</linearGradient>
</defs>
</svg>
