<svg width="648" height="287" viewBox="0 0 648 287" fill="none" xmlns="http://www.w3.org/2000/svg">
<path d="M80 12H116" stroke="#10DEB9"/>
<path d="M80 110H116" stroke="#10DEB9"/>
<path d="M80 208H116" stroke="#10DEB9"/>
<rect y="1" width="80.8738" height="22.7458" rx="6.31827" fill="#10DEB9"/>
<rect y="99" width="80.8738" height="22.7458" rx="6.31827" fill="#10DEB9"/>
<rect y="197" width="80.8738" height="22.7458" rx="6.31827" fill="#10DEB9"/>
<path d="M23.2515 17.932V12.808H26.3595V17.932H27.7455V12.808H30.7275V11.632H28.5435C28.8095 10.246 28.9355 8.832 28.9355 7.502V5.85H20.3675V7.068H27.5495V7.824C27.5495 9.056 27.4375 10.274 27.1575 11.632H18.8835V12.808H21.8655V17.932H23.2515ZM35.4097 9.98C35.5077 10.19 35.7877 10.456 36.2077 10.806C36.8797 11.366 37.5097 11.842 38.2377 12.346L39.0217 11.338C38.1957 10.792 37.4397 10.246 36.7817 9.644C36.1657 9.084 36.0537 8.608 36.0537 7.74V7.614H38.6997V6.424H36.0537V4.898H34.6537V6.424H31.8397V7.614H34.6537V7.796C34.6537 8.79 34.4157 9.322 33.7297 9.994C33.2257 10.484 32.3717 11.128 31.4757 11.758L32.2877 12.752C33.0717 12.206 33.8557 11.59 34.4577 11.072C34.9057 10.694 35.3117 10.218 35.3957 9.98H35.4097ZM33.3237 14.614H40.4357V18.086H41.8217V13.424H33.3237V14.614ZM41.8217 12.752V5.052H40.4497V12.752H41.8217ZM52.1079 12.332L52.4019 10.232H53.9559V9.014H52.5699L52.9619 6.27H51.8279L51.4499 9.014H49.6299L50.0079 6.27H48.8879L48.5099 9.014H46.9139V10.232H48.3279L48.0339 12.332H46.4799V13.55H47.8659L47.4739 16.364H48.6079L48.9859 13.55H50.8199L50.4279 16.364H51.5479L51.9399 13.55H53.5219V12.332H52.1079ZM50.9879 12.332H49.1539L49.4479 10.232H51.2819L50.9879 12.332ZM59.9695 16.364V6.27H58.8075L55.5595 8.174L56.2175 9.294L58.5835 7.894V16.364H59.9695Z" fill="#444444"/>
<path d="M22.2515 115.932V110.808H25.3595V115.932H26.7455V110.808H29.7275V109.632H27.5435C27.8095 108.246 27.9355 106.832 27.9355 105.502V103.85H19.3675V105.068H26.5495V105.824C26.5495 107.056 26.4375 108.274 26.1575 109.632H17.8835V110.808H20.8655V115.932H22.2515ZM34.4097 107.98C34.5077 108.19 34.7877 108.456 35.2077 108.806C35.8797 109.366 36.5097 109.842 37.2377 110.346L38.0217 109.338C37.1957 108.792 36.4397 108.246 35.7817 107.644C35.1657 107.084 35.0537 106.608 35.0537 105.74V105.614H37.6997V104.424H35.0537V102.898H33.6537V104.424H30.8397V105.614H33.6537V105.796C33.6537 106.79 33.4157 107.322 32.7297 107.994C32.2257 108.484 31.3717 109.128 30.4757 109.758L31.2877 110.752C32.0717 110.206 32.8557 109.59 33.4577 109.072C33.9057 108.694 34.3117 108.218 34.3957 107.98H34.4097ZM32.3237 112.614H39.4357V116.086H40.8217V111.424H32.3237V112.614ZM40.8217 110.752V103.052H39.4497V110.752H40.8217ZM51.1079 110.332L51.4019 108.232H52.9559V107.014H51.5699L51.9619 104.27H50.8279L50.4499 107.014H48.6299L49.0079 104.27H47.8879L47.5099 107.014H45.9139V108.232H47.3279L47.0339 110.332H45.4799V111.55H46.8659L46.4739 114.364H47.6079L47.9859 111.55H49.8199L49.4279 114.364H50.5479L50.9399 111.55H52.5219V110.332H51.1079ZM49.9879 110.332H48.1539L48.4479 108.232H50.2819L49.9879 110.332ZM53.9155 113.202V114.364H60.6915V113.16H55.6235L58.7735 109.8C59.6835 108.834 60.3275 107.882 60.3275 106.79V106.65C60.3275 105.18 59.2215 104.116 57.1775 104.116C55.3155 104.116 54.4195 105.278 53.9435 106.146L55.0075 106.832C55.6655 105.656 56.4635 105.362 57.2055 105.362C58.2555 105.362 58.9415 105.852 58.9415 106.65V106.762C58.9415 107.294 58.8295 107.854 57.6815 109.114L53.9155 113.202Z" fill="#444444"/>
<path d="M22.2515 213.932V208.808H25.3595V213.932H26.7455V208.808H29.7275V207.632H27.5435C27.8095 206.246 27.9355 204.832 27.9355 203.502V201.85H19.3675V203.068H26.5495V203.824C26.5495 205.056 26.4375 206.274 26.1575 207.632H17.8835V208.808H20.8655V213.932H22.2515ZM34.4097 205.98C34.5077 206.19 34.7877 206.456 35.2077 206.806C35.8797 207.366 36.5097 207.842 37.2377 208.346L38.0217 207.338C37.1957 206.792 36.4397 206.246 35.7817 205.644C35.1657 205.084 35.0537 204.608 35.0537 203.74V203.614H37.6997V202.424H35.0537V200.898H33.6537V202.424H30.8397V203.614H33.6537V203.796C33.6537 204.79 33.4157 205.322 32.7297 205.994C32.2257 206.484 31.3717 207.128 30.4757 207.758L31.2877 208.752C32.0717 208.206 32.8557 207.59 33.4577 207.072C33.9057 206.694 34.3117 206.218 34.3957 205.98H34.4097ZM32.3237 210.614H39.4357V214.086H40.8217V209.424H32.3237V210.614ZM40.8217 208.752V201.052H39.4497V208.752H40.8217ZM51.1079 208.332L51.4019 206.232H52.9559V205.014H51.5699L51.9619 202.27H50.8279L50.4499 205.014H48.6299L49.0079 202.27H47.8879L47.5099 205.014H45.9139V206.232H47.3279L47.0339 208.332H45.4799V209.55H46.8659L46.4739 212.364H47.6079L47.9859 209.55H49.8199L49.4279 212.364H50.5479L50.9399 209.55H52.5219V208.332H51.1079ZM49.9879 208.332H48.1539L48.4479 206.232H50.2819L49.9879 208.332ZM55.0635 204.356C55.6095 203.642 56.1975 203.348 57.0235 203.348C57.9335 203.348 58.6895 203.796 58.6895 204.678V204.79C58.6895 205.658 58.2555 206.498 56.9955 206.498H55.8055V207.702H57.0515C58.2275 207.702 59.1375 208.094 59.1375 209.424V209.606C59.1375 210.516 58.4655 211.258 56.9955 211.258C56.1275 211.258 55.4275 211.006 54.4475 210.292L53.7615 211.398C54.7135 212.154 55.8195 212.518 56.9955 212.518C59.4735 212.518 60.5235 211.076 60.5235 209.592V209.382C60.5235 208.22 59.8375 207.296 58.4795 207.058C59.7255 206.61 60.0615 205.574 60.0615 204.776V204.636C60.0615 203.124 58.8715 202.116 57.0095 202.116C55.4975 202.116 54.6575 202.788 54.0695 203.628L55.0635 204.356Z" fill="#444444"/>
<rect x="121.5" y="1.5" width="526" height="89" rx="9.5" fill="white" stroke="#DADADA"/>
<rect x="121.5" y="99.5" width="526" height="89" rx="9.5" fill="white" stroke="#DADADA"/>
<rect x="121.5" y="197.5" width="526" height="89" rx="9.5" fill="white" stroke="#DADADA"/>
<path d="M223.256 108.736V110.112H231.56V111.408C231.56 111.792 231.544 112.176 231.544 112.544L223.016 112.64L223.048 113.984L231.48 113.84C231.4 114.912 231.256 115.984 231.016 117.136L232.6 117.328C232.968 115.488 233.144 113.888 233.144 110.848V108.736H223.256ZM227.992 118.928V115.504H226.408V118.928H221.512V120.272H235.048V118.928H227.992ZM235.755 118.928V120.272H249.291V118.928H235.755ZM237.419 108.88V110.256H245.627V111.616C245.627 113.6 245.451 115.44 245.051 117.52L246.635 117.712C247.019 115.696 247.211 113.92 247.211 111.056V108.88H237.419ZM262.301 122.24V107.488H260.717V122.24H262.301ZM251.181 108.704V118.288H253.757C256.205 118.288 257.549 118.208 259.421 117.872L259.245 116.496C257.613 116.784 255.965 116.896 254.205 116.896H252.781V108.704H251.181ZM278.064 112.944H275.792V107.488H274.208V122.24H275.792V114.32H278.064V112.944ZM265.376 118.992C271.216 115.456 271.408 114.576 271.408 111.664V108.864H264.832V110.224H269.84V111.648C269.84 113.92 269.648 114.736 264.544 117.728L265.376 118.992ZM294.898 122.336V121.024H286.898V119.584H294.482V115.568H285.266V116.88H292.93V118.304H285.346V122.336H294.898ZM286.242 107.76C283.81 107.76 282.578 109.424 282.578 110.816V111.424C282.578 112.816 283.81 114.48 286.242 114.48C288.674 114.48 289.906 112.816 289.906 111.424V110.816C289.906 109.424 288.674 107.76 286.242 107.76ZM294.482 114.8V107.488H292.93V109.152H290.61V110.48H292.93V111.952H290.61V113.28H292.93V114.8H294.482ZM286.242 113.12C284.882 113.12 284.098 112.224 284.098 111.36V110.88C284.098 110.016 284.882 109.136 286.242 109.136C287.602 109.136 288.386 110.016 288.386 110.88V111.36C288.386 112.224 287.602 113.12 286.242 113.12ZM308.629 122.24V107.488H307.045V122.24H308.629ZM300.869 108.48C298.709 108.48 297.141 109.936 297.141 112.768V114.432C297.141 117.248 298.709 118.704 300.869 118.704C303.029 118.704 304.597 117.248 304.597 114.432V112.768C304.597 109.952 303.029 108.48 300.869 108.48ZM300.869 117.28C299.717 117.28 298.661 116.464 298.661 114.208V112.992C298.661 110.736 299.717 109.92 300.869 109.92C302.005 109.92 303.077 110.736 303.077 112.992V114.208C303.077 116.464 302.021 117.28 300.869 117.28ZM320.007 113.056V116.592H316.103L321.415 108.88H319.671L314.247 116.752V117.936H320.007V120.416H321.575V117.936H323.207V116.592H321.575V113.056H320.007ZM332.221 113.744C332.221 110.512 330.861 108.704 328.141 108.704C325.453 108.704 324.061 110.512 324.061 113.744V115.536C324.061 118.768 325.405 120.592 328.141 120.592C330.909 120.592 332.221 118.8 332.221 115.536V113.744ZM330.605 115.552C330.605 118.4 329.549 119.12 328.141 119.12C326.797 119.12 325.677 118.384 325.677 115.552V113.728C325.677 110.928 326.797 110.176 328.141 110.176C329.549 110.176 330.605 110.912 330.605 113.728V115.552ZM345.026 114.32H336.626V110.064H344.85V108.72H335.042V115.664H339.186V118.928H333.218V120.272H346.754V118.928H340.786V115.664H345.026V114.32ZM354.981 108.816H348.197V118.352H350.293C352.693 118.352 354.597 118.224 356.501 117.888L356.293 116.56C354.501 116.832 352.709 116.976 350.629 116.976H349.781V110.192H354.981V108.816ZM361.285 112.816H359.013V107.488H357.429V122.24H359.013V114.192H361.285V112.816ZM362.631 121.072H364.455V119.232H362.631V121.072Z" fill="#777777"/>
<path d="M223.256 136.736V138.112H231.56V139.408C231.56 139.792 231.544 140.176 231.544 140.544L223.016 140.64L223.048 141.984L231.48 141.84C231.4 142.912 231.256 143.984 231.016 145.136L232.6 145.328C232.968 143.488 233.144 141.888 233.144 138.848V136.736H223.256ZM227.992 146.928V143.504H226.408V146.928H221.512V148.272H235.048V146.928H227.992ZM235.755 146.928V148.272H249.291V146.928H235.755ZM237.419 136.88V138.256H245.627V139.616C245.627 141.6 245.451 143.44 245.051 145.52L246.635 145.712C247.019 143.696 247.211 141.92 247.211 139.056V136.88H237.419ZM262.301 150.24V135.488H260.717V150.24H262.301ZM251.181 136.704V146.288H253.757C256.205 146.288 257.549 146.208 259.421 145.872L259.245 144.496C257.613 144.784 255.965 144.896 254.205 144.896H252.781V136.704H251.181ZM269.232 143.584C271.648 143.584 273.152 142.016 273.152 140.368V139.632C273.152 137.984 271.648 136.416 269.232 136.416C266.816 136.416 265.312 137.984 265.312 139.632V140.368C265.312 142.016 266.816 143.584 269.232 143.584ZM269.232 142.208C267.888 142.208 266.832 141.312 266.832 140.272V139.728C266.832 138.64 267.888 137.792 269.232 137.792C270.576 137.792 271.632 138.64 271.632 139.728V140.272C271.632 141.312 270.576 142.208 269.232 142.208ZM274.16 145.456C271.504 145.712 268.816 145.808 264.592 145.792V147.168C268.784 147.168 271.6 147.056 274.304 146.784L274.16 145.456ZM276.64 150.24V135.488H275.072V150.24H276.64ZM282.162 146.928V148.272H295.698V146.928H282.162ZM288.946 141.072C289.122 141.44 289.778 142 290.818 142.656C291.778 143.264 292.946 143.936 294.13 144.608L294.898 143.376C293.634 142.688 292.706 142.16 291.698 141.504C289.97 140.368 289.73 139.712 289.73 138.144V136.528H288.13V138.144C288.13 139.712 287.794 140.4 286.338 141.392C285.266 142.112 284.258 142.688 282.978 143.392L283.762 144.64C285.09 143.904 286.114 143.28 287.042 142.688C288.114 142 288.77 141.44 288.93 141.072H288.946ZM300.597 146.32C302.853 146.32 304.661 146.272 306.213 146.096L306.101 144.816C305.413 144.896 304.709 144.944 304.037 144.976V138.176H305.573V136.88H296.965V138.176H298.501V145.024H296.805V146.32H300.597ZM308.789 150.24V135.488H307.205V150.24H308.789ZM300.053 138.176H302.485V145.024H300.053V138.176ZM322.919 150.24V135.488H321.335V140.512H318.071V136.816H311.511V138.16H316.503V140.448L311.207 140.544L311.255 141.872L316.391 141.728C316.039 142.848 314.887 143.904 311.239 145.92L312.007 147.184C316.343 144.752 317.575 143.488 317.927 141.904H321.335V150.24H322.919ZM328.49 136.592C326.362 136.592 325.242 138.016 325.242 140.832V142.4C325.242 145.216 326.362 146.64 328.49 146.64C330.618 146.64 331.738 145.216 331.738 142.4V142.256H333.258V149.52H334.81V135.792H333.258V140.88H331.738V140.832C331.738 138.016 330.618 136.592 328.49 136.592ZM337.738 135.488H336.186V150.24H337.738V135.488ZM328.49 145.248C327.306 145.248 326.746 144.384 326.746 142.224V141.008C326.746 138.848 327.306 138 328.49 138C329.674 138 330.234 138.848 330.234 141.008V142.224C330.234 144.384 329.674 145.248 328.49 145.248ZM350.364 146.928V144.24C352.7 144 354.54 142.688 354.54 140.672V139.904C354.54 137.68 352.284 136.288 349.58 136.288C346.876 136.288 344.62 137.68 344.62 139.904V140.672C344.62 142.688 346.444 144 348.78 144.24V146.928H342.812V148.272H356.348V146.928H350.364ZM349.58 137.664C351.42 137.664 352.988 138.56 352.988 139.984V140.592C352.988 142.016 351.42 142.912 349.58 142.912C347.74 142.912 346.172 142.016 346.172 140.592V139.984C346.172 138.56 347.74 137.664 349.58 137.664ZM368.974 142.976V141.648H360.526V140.272H368.622V136.24H358.894V137.568H367.054V138.944H358.958V142.976H368.974ZM367.182 150.24V145.664H370.59V144.32H357.054V145.664H360.462V150.24H362.046V145.664H365.598V150.24H367.182ZM385.121 140.944H382.849V135.488H381.265V150.24H382.849V142.32H385.121V140.944ZM372.433 146.992C378.273 143.456 378.465 142.576 378.465 139.664V136.864H371.889V138.224H376.897V139.648C376.897 141.92 376.705 142.736 371.601 145.728L372.433 146.992ZM401.284 150.336V149.024H393.364V147.648H400.868V143.696H391.732V145.008H399.316V146.368H391.812V150.336H401.284ZM396.724 142.416V135.92H395.172V138.048H391.524V135.92H389.972V142.416H396.724ZM402.964 138.48H400.868V135.488H399.3V142.928H400.868V139.856H402.964V138.48ZM391.524 139.344H395.172V141.104H391.524V139.344ZM406.838 147.92C406.838 149.488 408.63 150.656 411.446 150.656C414.262 150.656 416.054 149.472 416.054 147.92V147.28C416.054 145.728 414.262 144.544 411.446 144.544C408.63 144.544 406.838 145.712 406.838 147.28V147.92ZM414.438 138.832H412.934V135.68H411.43V143.776H412.934V140.192H414.438V144.352H415.958V135.488H414.438V138.832ZM407.158 140.928C407.238 141.168 407.558 141.504 407.958 141.904C408.39 142.336 409.03 142.944 409.75 143.552L410.742 142.496C409.974 141.872 409.238 141.248 408.726 140.656C407.99 139.808 407.878 139.152 407.878 138.192V136.24H406.342V138.288C406.342 139.296 406.246 139.824 405.558 140.672C405.142 141.2 404.214 142.064 403.222 142.944L404.23 144.016C405.126 143.232 406.038 142.368 406.454 141.888C406.726 141.584 407.078 141.184 407.142 140.928H407.158ZM414.502 147.824C414.502 148.608 413.254 149.36 411.446 149.36C409.638 149.36 408.39 148.608 408.39 147.808V147.376C408.39 146.592 409.638 145.84 411.446 145.84C413.254 145.84 414.502 146.592 414.502 147.376V147.824ZM428.729 139.056H427.289V135.68H425.785V144.016H427.289V140.416H428.729V144.24H430.249V135.488H428.729V139.056ZM426.985 144.88V145.824C426.985 146.704 426.889 146.912 426.329 147.552C426.025 147.888 425.657 148.176 425.145 148.624C424.633 148.176 424.265 147.888 423.961 147.552C423.401 146.912 423.305 146.704 423.305 145.824V144.88H421.769V145.824C421.769 146.656 421.673 146.928 421.033 147.536C420.489 148.048 419.769 148.624 418.937 149.232L419.801 150.32C420.569 149.744 421.385 149.072 421.801 148.704C422.233 148.32 422.441 148.096 422.537 147.92C422.633 148.112 422.809 148.32 423.161 148.672C423.689 149.184 424.425 149.792 425.145 150.336C425.865 149.792 426.601 149.184 427.129 148.672C427.481 148.32 427.657 148.112 427.753 147.92C427.849 148.096 428.057 148.32 428.489 148.704C428.905 149.072 429.721 149.744 430.489 150.32L431.353 149.232C430.521 148.624 429.801 148.048 429.257 147.536C428.617 146.928 428.521 146.656 428.521 145.824V144.88H426.985ZM421.385 143.888C423.289 143.888 424.457 142.864 424.457 141.728V141.136C424.457 139.984 423.289 138.976 421.385 138.976C419.481 138.976 418.313 139.984 418.313 141.136V141.728C418.313 142.864 419.481 143.888 421.385 143.888ZM417.801 137.152V138.48H424.681V137.152H422.153V135.472H420.617V137.152H417.801ZM421.385 140.208C422.361 140.208 423.049 140.656 423.049 141.28V141.584C423.049 142.208 422.361 142.656 421.385 142.656C420.409 142.656 419.721 142.208 419.721 141.584V141.28C419.721 140.656 420.409 140.208 421.385 140.208ZM439.467 136.816H432.683V146.352H434.779C437.179 146.352 439.083 146.224 440.987 145.888L440.779 144.56C438.987 144.832 437.195 144.976 435.115 144.976H434.267V138.192H439.467V136.816ZM445.771 140.816H443.499V135.488H441.915V150.24H443.499V142.192H445.771V140.816ZM447.118 149.072H448.942V147.232H447.118V149.072Z" fill="#777777"/>
<path d="M223.256 163.736V165.112H231.56V166.408C231.56 166.792 231.544 167.176 231.544 167.544L223.016 167.64L223.048 168.984L231.48 168.84C231.4 169.912 231.256 170.984 231.016 172.136L232.6 172.328C232.968 170.488 233.144 168.888 233.144 165.848V163.736H223.256ZM227.992 173.928V170.504H226.408V173.928H221.512V175.272H235.048V173.928H227.992ZM235.755 173.928V175.272H249.291V173.928H235.755ZM237.419 163.88V165.256H245.627V166.616C245.627 168.6 245.451 170.44 245.051 172.52L246.635 172.712C247.019 170.696 247.211 168.92 247.211 166.056V163.88H237.419ZM262.301 177.24V162.488H260.717V177.24H262.301ZM251.181 163.704V173.288H253.757C256.205 173.288 257.549 173.208 259.421 172.872L259.245 171.496C257.613 171.784 255.965 171.896 254.205 171.896H252.781V163.704H251.181ZM278.064 167.944H275.792V162.488H274.208V177.24H275.792V169.32H278.064V167.944ZM265.376 173.992C271.216 170.456 271.408 169.576 271.408 166.664V163.864H264.832V165.224H269.84V166.648C269.84 168.92 269.648 169.736 264.544 172.728L265.376 173.992ZM294.898 170.104C294.898 173.592 292.386 176.136 288.93 176.136C285.474 176.136 282.962 173.592 282.962 170.104C282.962 166.616 285.474 164.072 288.93 164.072C292.386 164.072 294.898 166.616 294.898 170.104ZM295.922 170.104C295.922 166.088 292.946 163.096 288.93 163.096C284.882 163.096 281.938 166.088 281.938 170.104C281.938 174.152 284.882 177.112 288.93 177.112C292.946 177.112 295.922 174.152 295.922 170.104ZM291.842 167.032H290.306L289.026 169.272L287.794 167.032H286.098L288.114 170.152L286.018 173.512H287.602L288.93 171.08L290.226 173.512H291.906L289.842 170.152L291.842 167.032ZM307.781 173.352V163.704H306.229V167.16H302.405V163.704H300.853V173.352H307.781ZM313.909 167.8H311.637V162.488H310.053V177.24H311.637V169.176H313.909V167.8ZM302.405 168.52H306.229V171.992H302.405V168.52ZM326.551 177.24V162.488H324.967V177.24H326.551ZM318.791 163.48C316.631 163.48 315.063 164.936 315.063 167.768V169.432C315.063 172.248 316.631 173.704 318.791 173.704C320.951 173.704 322.519 172.248 322.519 169.432V167.768C322.519 164.952 320.951 163.48 318.791 163.48ZM318.791 172.28C317.639 172.28 316.583 171.464 316.583 169.208V167.992C316.583 165.736 317.639 164.92 318.791 164.92C319.927 164.92 320.999 165.736 320.999 167.992V169.208C320.999 171.464 319.943 172.28 318.791 172.28ZM335.818 169.176V163.672H329.482V165.032H334.25V167.848H329.53V173.64H332.122C334.778 173.64 336.234 173.528 337.722 173.304L337.546 171.96C335.882 172.2 334.634 172.28 332.506 172.28H331.098V169.176H335.818ZM340.97 177.24V162.488H339.386V167.544H336.842V168.936H339.386V177.24H340.97ZM342.812 173.928V175.272H356.348V173.928H342.812ZM349.596 168.072C349.772 168.44 350.428 169 351.468 169.656C352.428 170.264 353.596 170.936 354.78 171.608L355.548 170.376C354.284 169.688 353.356 169.16 352.348 168.504C350.62 167.368 350.38 166.712 350.38 165.144V163.528H348.78V165.144C348.78 166.712 348.444 167.4 346.988 168.392C345.916 169.112 344.908 169.688 343.628 170.392L344.412 171.64C345.74 170.904 346.764 170.28 347.692 169.688C348.764 169 349.42 168.44 349.58 168.072H349.596ZM360.654 163.592C358.526 163.592 357.406 165.016 357.406 167.832V169.4C357.406 172.216 358.526 173.64 360.654 173.64C362.782 173.64 363.902 172.216 363.902 169.4V169.256H365.422V176.52H366.974V162.792H365.422V167.88H363.902V167.832C363.902 165.016 362.782 163.592 360.654 163.592ZM369.902 162.488H368.35V177.24H369.902V162.488ZM360.654 172.248C359.47 172.248 358.91 171.384 358.91 169.224V168.008C358.91 165.848 359.47 165 360.654 165C361.838 165 362.398 165.848 362.398 168.008V169.224C362.398 171.384 361.838 172.248 360.654 172.248ZM387.713 177.336V176.024H379.713V174.616H387.297V170.632H378.081V171.944H385.745V173.336H378.161V177.336H387.713ZM387.297 169.896V162.488H385.729V165.56H382.353C382.369 165.416 382.369 165.256 382.369 165.08V163.128H376.081V164.456H380.817V165C380.817 166.664 380.001 167.368 375.473 169.096L376.017 170.376C379.585 169.048 381.297 168.2 381.985 166.904H385.729V169.896H387.297ZM392.516 170.424C394.852 170.424 396.26 170.376 398.036 170.168L397.892 168.856C395.924 169.08 394.436 169.08 392.676 169.08H391.652V167.432H396.276V163.16H390.084V164.504H394.708V166.12H390.084V170.424H392.516ZM398.596 171.592V172.728C398.596 173.608 398.516 173.88 397.94 174.52C397.636 174.856 397.268 175.176 396.756 175.624C396.244 175.176 395.876 174.856 395.572 174.52C394.996 173.88 394.916 173.608 394.916 172.728V171.592H393.38V172.728C393.38 173.56 393.3 173.88 392.644 174.488C392.1 175 391.38 175.624 390.548 176.232L391.412 177.32C392.18 176.744 392.996 176.04 393.412 175.672C393.844 175.288 394.052 175.016 394.148 174.84C394.244 175.032 394.42 175.288 394.772 175.64C395.3 176.152 396.036 176.776 396.756 177.336C397.476 176.776 398.212 176.152 398.74 175.64C399.092 175.288 399.268 175.032 399.364 174.84C399.46 175.016 399.668 175.288 400.1 175.672C400.516 176.04 401.332 176.744 402.1 177.32L402.964 176.232C402.132 175.624 401.412 175 400.868 174.488C400.212 173.88 400.132 173.56 400.132 172.728V171.592H398.596ZM401.54 170.792V162.488H399.988V164.28H397.332V165.64H399.988V166.808H397.332V168.168H399.988V170.792H401.54ZM410.982 163.816H404.198V173.352H406.294C408.694 173.352 410.598 173.224 412.502 172.888L412.294 171.56C410.502 171.832 408.71 171.976 406.63 171.976H405.782V165.192H410.982V163.816ZM417.286 167.816H415.014V162.488H413.43V177.24H415.014V169.192H417.286V167.816ZM418.633 176.072H420.457V174.232H418.633V176.072Z" fill="#777777"/>
<path d="M153.344 109.832V121H151.104V109.832H153.344ZM162.133 109.832V111.64H157.477V114.504H161.045V116.28H157.477V121H155.237V109.832H162.133Z" fill="#10DEB9"/>
<path d="M223.256 206.736V208.112H231.56V209.408C231.56 209.792 231.544 210.176 231.544 210.544L223.016 210.64L223.048 211.984L231.48 211.84C231.4 212.912 231.256 213.984 231.016 215.136L232.6 215.328C232.968 213.488 233.144 211.888 233.144 208.848V206.736H223.256ZM227.992 216.928V213.504H226.408V216.928H221.512V218.272H235.048V216.928H227.992ZM235.755 216.928V218.272H249.291V216.928H235.755ZM237.419 206.88V208.256H245.627V209.616C245.627 211.6 245.451 213.44 245.051 215.52L246.635 215.712C247.019 213.696 247.211 211.92 247.211 209.056V206.88H237.419ZM262.301 220.24V205.488H260.717V220.24H262.301ZM251.181 206.704V216.288H253.757C256.205 216.288 257.549 216.208 259.421 215.872L259.245 214.496C257.613 214.784 255.965 214.896 254.205 214.896H252.781V206.704H251.181ZM278.064 210.944H275.792V205.488H274.208V220.24H275.792V212.32H278.064V210.944ZM265.376 216.992C271.216 213.456 271.408 212.576 271.408 209.664V206.864H264.832V208.224H269.84V209.648C269.84 211.92 269.648 212.736 264.544 215.728L265.376 216.992ZM294.898 213.104C294.898 216.592 292.386 219.136 288.93 219.136C285.474 219.136 282.962 216.592 282.962 213.104C282.962 209.616 285.474 207.072 288.93 207.072C292.386 207.072 294.898 209.616 294.898 213.104ZM295.922 213.104C295.922 209.088 292.946 206.096 288.93 206.096C284.882 206.096 281.938 209.088 281.938 213.104C281.938 217.152 284.882 220.112 288.93 220.112C292.946 220.112 295.922 217.152 295.922 213.104ZM291.842 210.032H290.306L289.026 212.272L287.794 210.032H286.098L288.114 213.152L286.018 216.512H287.602L288.93 214.08L290.226 216.512H291.906L289.842 213.152L291.842 210.032ZM307.781 216.352V206.704H306.229V210.16H302.405V206.704H300.853V216.352H307.781ZM313.909 210.8H311.637V205.488H310.053V220.24H311.637V212.176H313.909V210.8ZM302.405 211.52H306.229V214.992H302.405V211.52ZM326.551 220.24V205.488H324.967V220.24H326.551ZM318.791 206.48C316.631 206.48 315.063 207.936 315.063 210.768V212.432C315.063 215.248 316.631 216.704 318.791 216.704C320.951 216.704 322.519 215.248 322.519 212.432V210.768C322.519 207.952 320.951 206.48 318.791 206.48ZM318.791 215.28C317.639 215.28 316.583 214.464 316.583 212.208V210.992C316.583 208.736 317.639 207.92 318.791 207.92C319.927 207.92 320.999 208.736 320.999 210.992V212.208C320.999 214.464 319.943 215.28 318.791 215.28ZM335.818 212.176V206.672H329.482V208.032H334.25V210.848H329.53V216.64H332.122C334.778 216.64 336.234 216.528 337.722 216.304L337.546 214.96C335.882 215.2 334.634 215.28 332.506 215.28H331.098V212.176H335.818ZM340.97 220.24V205.488H339.386V210.544H336.842V211.936H339.386V220.24H340.97ZM342.812 216.928V218.272H356.348V216.928H342.812ZM349.596 211.072C349.772 211.44 350.428 212 351.468 212.656C352.428 213.264 353.596 213.936 354.78 214.608L355.548 213.376C354.284 212.688 353.356 212.16 352.348 211.504C350.62 210.368 350.38 209.712 350.38 208.144V206.528H348.78V208.144C348.78 209.712 348.444 210.4 346.988 211.392C345.916 212.112 344.908 212.688 343.628 213.392L344.412 214.64C345.74 213.904 346.764 213.28 347.692 212.688C348.764 212 349.42 211.44 349.58 211.072H349.596ZM360.654 206.592C358.526 206.592 357.406 208.016 357.406 210.832V212.4C357.406 215.216 358.526 216.64 360.654 216.64C362.782 216.64 363.902 215.216 363.902 212.4V212.256H365.422V219.52H366.974V205.792H365.422V210.88H363.902V210.832C363.902 208.016 362.782 206.592 360.654 206.592ZM369.902 205.488H368.35V220.24H369.902V205.488ZM360.654 215.248C359.47 215.248 358.91 214.384 358.91 212.224V211.008C358.91 208.848 359.47 208 360.654 208C361.838 208 362.398 208.848 362.398 211.008V212.224C362.398 214.384 361.838 215.248 360.654 215.248ZM387.713 220.336V219.024H379.713V217.616H387.297V213.632H378.081V214.944H385.745V216.336H378.161V220.336H387.713ZM387.297 212.896V205.488H385.729V208.56H382.353C382.369 208.416 382.369 208.256 382.369 208.08V206.128H376.081V207.456H380.817V208C380.817 209.664 380.001 210.368 375.473 212.096L376.017 213.376C379.585 212.048 381.297 211.2 381.985 209.904H385.729V212.896H387.297ZM392.516 213.424C394.852 213.424 396.26 213.376 398.036 213.168L397.892 211.856C395.924 212.08 394.436 212.08 392.676 212.08H391.652V210.432H396.276V206.16H390.084V207.504H394.708V209.12H390.084V213.424H392.516ZM398.596 214.592V215.728C398.596 216.608 398.516 216.88 397.94 217.52C397.636 217.856 397.268 218.176 396.756 218.624C396.244 218.176 395.876 217.856 395.572 217.52C394.996 216.88 394.916 216.608 394.916 215.728V214.592H393.38V215.728C393.38 216.56 393.3 216.88 392.644 217.488C392.1 218 391.38 218.624 390.548 219.232L391.412 220.32C392.18 219.744 392.996 219.04 393.412 218.672C393.844 218.288 394.052 218.016 394.148 217.84C394.244 218.032 394.42 218.288 394.772 218.64C395.3 219.152 396.036 219.776 396.756 220.336C397.476 219.776 398.212 219.152 398.74 218.64C399.092 218.288 399.268 218.032 399.364 217.84C399.46 218.016 399.668 218.288 400.1 218.672C400.516 219.04 401.332 219.744 402.1 220.32L402.964 219.232C402.132 218.624 401.412 218 400.868 217.488C400.212 216.88 400.132 216.56 400.132 215.728V214.592H398.596ZM401.54 213.792V205.488H399.988V207.28H397.332V208.64H399.988V209.808H397.332V211.168H399.988V213.792H401.54ZM410.982 206.816H404.198V216.352H406.294C408.694 216.352 410.598 216.224 412.502 215.888L412.294 214.56C410.502 214.832 408.71 214.976 406.63 214.976H405.782V208.192H410.982V206.816ZM417.286 210.816H415.014V205.488H413.43V220.24H415.014V212.192H417.286V210.816ZM418.633 219.072H420.457V217.232H418.633V219.072Z" fill="#777777"/>
<path d="M157.952 146.872H153.504L152.768 149H150.416L154.432 137.816H157.04L161.056 149H158.688L157.952 146.872ZM157.344 145.08L155.728 140.408L154.112 145.08H157.344ZM171.789 149H169.549L164.477 141.336V149H162.237V137.816H164.477L169.549 145.496V137.816H171.789V149ZM177.587 137.832C178.76 137.832 179.789 138.061 180.675 138.52C181.571 138.979 182.259 139.635 182.739 140.488C183.229 141.331 183.475 142.312 183.475 143.432C183.475 144.552 183.229 145.533 182.739 146.376C182.259 147.208 181.571 147.853 180.675 148.312C179.789 148.771 178.76 149 177.587 149H173.683V137.832H177.587ZM177.507 147.096C178.68 147.096 179.587 146.776 180.227 146.136C180.867 145.496 181.187 144.595 181.187 143.432C181.187 142.269 180.867 141.363 180.227 140.712C179.587 140.051 178.68 139.72 177.507 139.72H175.923V147.096H177.507Z" fill="#10DEB9"/>
<path d="M158.704 164.832V166.64H155.728V176H153.488V166.64H150.512V164.832H158.704ZM169.282 164.832V176H167.042V171.248H162.258V176H160.018V164.832H162.258V169.424H167.042V164.832H169.282ZM173.407 166.64V169.44H177.167V171.216H173.407V174.176H177.647V176H171.167V164.816H177.647V166.64H173.407ZM188.915 176H186.675L181.603 168.336V176H179.363V164.816H181.603L186.675 172.496V164.816H188.915V176Z" fill="#10DEB9"/>
<path d="M234.248 241.104C234.248 244.592 231.736 247.136 228.28 247.136C224.824 247.136 222.312 244.592 222.312 241.104C222.312 237.616 224.824 235.072 228.28 235.072C231.736 235.072 234.248 237.616 234.248 241.104ZM235.272 241.104C235.272 237.088 232.296 234.096 228.28 234.096C224.232 234.096 221.288 237.088 221.288 241.104C221.288 245.152 224.232 248.112 228.28 248.112C232.296 248.112 235.272 245.152 235.272 241.104ZM227.736 244.4C228.36 244.4 228.696 244.304 229.032 244.096C229.224 243.968 229.448 243.776 229.56 243.52H229.576V244.304H230.872V239.712C230.872 238.384 229.8 237.632 228.312 237.632C227.224 237.632 226.424 238.032 225.784 238.48L226.456 239.488C226.984 239.12 227.544 238.848 228.296 238.848C229.224 238.848 229.512 239.184 229.512 240.016V240.272H227.976C226.2 240.272 225.544 241.072 225.544 242.224V242.544C225.544 243.696 226.376 244.4 227.736 244.4ZM229.512 241.776C229.512 242.272 229.48 242.528 229.192 242.784C228.856 243.072 228.472 243.216 227.864 243.216C227.272 243.216 226.888 242.976 226.888 242.48V242.32C226.888 241.728 227.192 241.44 228.008 241.44H229.512V241.776ZM245.835 241.152V234.256H244.331V236.512H241.499V234.256H239.995V241.152H245.835ZM250.459 236.976H248.971V233.68H247.467V242.096H248.971V238.336H250.459V242.128H251.979V233.488H250.459V236.976ZM242.299 244.256H250.395V248.384H251.979V242.896H242.299V244.256ZM241.499 237.808H244.331V239.824H241.499V237.808ZM258.221 243.12H256.637V248.08H266.205V246.704H258.221V243.12ZM265.853 243.984V233.488H264.285V243.984H265.853ZM258.301 238.96C258.397 239.2 258.733 239.536 259.213 239.936C259.981 240.576 260.765 241.232 261.581 241.856L262.509 240.752C261.565 240.064 260.621 239.312 259.869 238.624C259.101 237.92 259.037 237.392 259.037 236.4V234.176H257.437V236.464C257.437 237.584 257.213 238.192 256.397 239.008C255.837 239.568 254.813 240.432 253.789 241.216L254.733 242.336C255.581 241.664 256.557 240.848 257.213 240.24C257.709 239.792 258.205 239.232 258.285 238.96H258.301ZM279.936 248.336V247.04H271.408V245.904H279.504V242.256H269.776V243.552H277.952V244.64H269.856V248.336H279.936ZM267.92 239.92V241.232H281.456V239.92H267.92ZM274.688 233.568C271.76 233.568 269.968 234.608 269.968 236.112V236.496C269.968 238 271.76 239.04 274.688 239.04C277.616 239.04 279.408 238 279.408 236.496V236.112C279.408 234.608 277.616 233.568 274.688 233.568ZM274.688 237.728C272.672 237.728 271.52 237.152 271.52 236.464V236.144C271.52 235.456 272.672 234.88 274.688 234.88C276.704 234.88 277.856 235.456 277.856 236.144V236.464C277.856 237.152 276.704 237.728 274.688 237.728ZM299.65 238.816H297.378V233.488H295.794V248.24H297.378V240.192H299.65V238.816ZM290.226 240.832C290.354 241.152 290.738 241.6 291.186 242.08C291.794 242.736 292.514 243.456 293.618 244.48L294.642 243.392C293.682 242.544 292.978 241.872 292.29 241.12C291.314 240.032 291.01 239.376 291.01 238.112V234.56H289.41V238.112C289.41 239.248 289.154 239.968 288.178 241.072C287.458 241.872 286.626 242.688 285.65 243.552L286.69 244.624C287.778 243.632 288.626 242.784 289.282 242.064C289.794 241.504 290.066 241.184 290.21 240.832H290.226ZM306.853 233.68C304.053 233.68 302.117 234.672 302.117 236.352V236.8C302.117 237.696 302.645 238.384 303.573 238.848V240.784H300.085V242.128H313.621V240.784H310.149V238.832C311.061 238.384 311.589 237.68 311.589 236.8V236.352C311.589 234.672 309.653 233.68 306.853 233.68ZM306.853 248.656C309.893 248.656 311.509 247.312 311.509 246.016V245.472C311.509 244.176 309.893 242.832 306.853 242.832C303.813 242.832 302.197 244.176 302.197 245.472V246.016C302.197 247.328 303.813 248.656 306.853 248.656ZM306.853 238.16C304.997 238.16 303.669 237.584 303.669 236.736V236.416C303.669 235.568 304.997 234.992 306.853 234.992C308.709 234.992 310.037 235.568 310.037 236.416V236.736C310.037 237.584 308.709 238.16 306.853 238.16ZM306.853 244.128C308.773 244.128 309.941 244.912 309.941 245.6V245.888C309.941 246.576 308.773 247.36 306.853 247.36C304.933 247.36 303.765 246.576 303.765 245.888V245.6C303.765 244.912 304.933 244.128 306.853 244.128ZM306.853 239.472C307.477 239.472 308.053 239.424 308.581 239.328V240.784H305.141V239.344C305.653 239.44 306.229 239.472 306.853 239.472ZM318.743 242.944C321.031 242.944 322.183 241.6 322.183 240.224V239.744C322.183 238.368 321.031 237.024 318.743 237.024C316.455 237.024 315.303 238.352 315.303 239.744V240.224C315.303 241.6 316.455 242.944 318.743 242.944ZM328.071 237.872H325.975V233.488H324.407V244.192H325.975V239.248H328.071V237.872ZM318.551 244H316.967V248.08H326.375V246.704H318.551V244ZM322.967 235.12H319.527V233.344H317.959V235.12H314.503V236.464H322.967V235.12ZM318.743 241.68C317.447 241.68 316.807 240.928 316.807 240.144V239.824C316.807 239.04 317.431 238.288 318.743 238.288C320.055 238.288 320.679 239.04 320.679 239.824V240.144C320.679 240.928 320.039 241.68 318.743 241.68ZM336.09 234.816H329.306V244.352H331.402C333.802 244.352 335.706 244.224 337.61 243.888L337.402 242.56C335.61 242.832 333.818 242.976 331.738 242.976H330.89V236.192H336.09V234.816ZM342.394 238.816H340.122V233.488H338.538V248.24H340.122V240.192H342.394V238.816ZM343.74 247.072H345.564V245.232H343.74V247.072Z" fill="#777777"/>
<path d="M223.256 262.736V264.112H231.56V265.408C231.56 265.792 231.544 266.176 231.544 266.544L223.016 266.64L223.048 267.984L231.48 267.84C231.4 268.912 231.256 269.984 231.016 271.136L232.6 271.328C232.968 269.488 233.144 267.888 233.144 264.848V262.736H223.256ZM227.992 272.928V269.504H226.408V272.928H221.512V274.272H235.048V272.928H227.992ZM235.755 272.928V274.272H249.291V272.928H235.755ZM237.419 262.88V264.256H245.627V265.616C245.627 267.6 245.451 269.44 245.051 271.52L246.635 271.712C247.019 269.696 247.211 267.92 247.211 265.056V262.88H237.419ZM262.301 276.24V261.488H260.717V276.24H262.301ZM251.181 262.704V272.288H253.757C256.205 272.288 257.549 272.208 259.421 271.872L259.245 270.496C257.613 270.784 255.965 270.896 254.205 270.896H252.781V262.704H251.181ZM270.688 273.84C270.688 275.392 272.352 276.656 275.136 276.656C277.92 276.656 279.584 275.392 279.584 273.84V273.2C279.584 271.648 277.92 270.384 275.136 270.384C272.352 270.384 270.688 271.648 270.688 273.2V273.84ZM272.224 266.576C272.32 266.816 272.656 267.168 273.136 267.568C273.904 268.208 274.64 268.832 275.472 269.456L276.4 268.352C275.456 267.664 274.544 266.928 273.792 266.24C273.024 265.536 272.96 265.008 272.96 264.016V262.144H271.36V264.08C271.36 265.2 271.136 265.808 270.32 266.624C269.76 267.184 268.768 268.032 267.744 268.816L268.688 269.936C269.536 269.264 270.48 268.464 271.136 267.856C271.632 267.408 272.128 266.848 272.208 266.576H272.224ZM278.032 273.744C278.032 274.528 276.912 275.36 275.136 275.36C273.36 275.36 272.24 274.528 272.24 273.744V273.296C272.24 272.512 273.36 271.68 275.136 271.68C276.912 271.68 278.032 272.512 278.032 273.296V273.744ZM281.616 265.056H279.52V261.488H277.952V270.192H279.52V266.432H281.616V265.056ZM295.026 261.488H293.474V266.736H291.73V261.792H290.178V275.52H291.73V268.112H293.474V276.24H295.026V261.488ZM288.418 262.784H282.77V272.416H284.866C286.514 272.416 287.714 272.368 289.378 272.128L289.218 270.8C287.714 271.008 286.626 271.04 285.186 271.04H284.354V268.064H288.178V266.752H284.354V264.144H288.418V262.784ZM310.229 266.944H307.957V261.488H306.373V276.24H307.957V268.32H310.229V266.944ZM297.541 272.992C303.381 269.456 303.573 268.576 303.573 265.664V262.864H296.997V264.224H302.005V265.648C302.005 267.92 301.813 268.736 296.709 271.728L297.541 272.992ZM319.271 269.216C319.399 269.536 319.799 269.984 320.247 270.464C320.855 271.12 321.527 271.792 322.615 272.784L323.655 271.712C322.711 270.88 322.039 270.256 321.351 269.504C320.215 268.272 320.039 267.792 320.039 266.528V265.008H323.207V263.632H320.039V261.536H318.439V263.632H315.143V265.008H318.439V266.528C318.439 267.712 318.263 268.32 317.207 269.488C316.487 270.288 315.703 271.072 314.743 271.936L315.783 273.008C316.855 272.016 317.655 271.2 318.311 270.48C318.823 269.92 319.111 269.568 319.255 269.216H319.271ZM326.695 276.24V261.488H325.111V276.24H326.695ZM332.426 270.4V272.928H328.57V274.272H342.106V272.928H338.378V270.4H340.49V269.056H332.042V267.184H340.138V262.656H330.41V264H338.57V265.84H330.474V270.4H332.426ZM333.978 270.4H336.826V272.928H333.978V270.4ZM352.588 269.04C351.18 269.168 349.996 269.248 348.572 269.296V267.392H351.372V266.08H345.772V263.488H351.324V262.176H344.268V267.392H347.004V269.344C345.932 269.36 344.684 269.36 343.164 269.36V270.72C348.092 270.72 350.172 270.608 352.716 270.352L352.588 269.04ZM347.052 271.84H345.468V276.096H355.436V274.736H347.052V271.84ZM355.132 272.528V261.488H353.564V272.528H355.132ZM364.574 262.816H357.79V272.352H359.886C362.286 272.352 364.19 272.224 366.094 271.888L365.886 270.56C364.094 270.832 362.302 270.976 360.222 270.976H359.374V264.192H364.574V262.816ZM370.878 266.816H368.606V261.488H367.022V276.24H368.606V268.192H370.878V266.816ZM372.225 275.072H374.049V273.232H372.225V275.072Z" fill="#777777"/>
<path d="M153.344 207.832V219H151.104V207.832H153.344ZM162.133 207.832V209.64H157.477V212.504H161.045V214.28H157.477V219H155.237V207.832H162.133Z" fill="#10DEB9"/>
<path d="M157.952 244.872H153.504L152.768 247H150.416L154.432 235.816H157.04L161.056 247H158.688L157.952 244.872ZM157.344 243.08L155.728 238.408L154.112 243.08H157.344ZM171.789 247H169.549L164.477 239.336V247H162.237V235.816H164.477L169.549 243.496V235.816H171.789V247ZM177.587 235.832C178.76 235.832 179.789 236.061 180.675 236.52C181.571 236.979 182.259 237.635 182.739 238.488C183.229 239.331 183.475 240.312 183.475 241.432C183.475 242.552 183.229 243.533 182.739 244.376C182.259 245.208 181.571 245.853 180.675 246.312C179.789 246.771 178.76 247 177.587 247H173.683V235.832H177.587ZM177.507 245.096C178.68 245.096 179.587 244.776 180.227 244.136C180.867 243.496 181.187 242.595 181.187 241.432C181.187 240.269 180.867 239.363 180.227 238.712C179.587 238.051 178.68 237.72 177.507 237.72H175.923V245.096H177.507Z" fill="#10DEB9"/>
<path d="M158.704 263.832V265.64H155.728V275H153.488V265.64H150.512V263.832H158.704ZM169.282 263.832V275H167.042V270.248H162.258V275H160.018V263.832H162.258V268.424H167.042V263.832H169.282ZM173.407 265.64V268.44H177.167V270.216H173.407V273.176H177.647V275H171.167V263.816H177.647V265.64H173.407ZM188.915 275H186.675L181.603 267.336V275H179.363V263.816H181.603L186.675 271.496V263.816H188.915V275Z" fill="#10DEB9"/>
<path d="M153.344 11.832V23H151.104V11.832H153.344ZM162.133 11.832V13.64H157.477V16.504H161.045V18.28H157.477V23H155.237V11.832H162.133Z" fill="#10DEB9"/>
<path d="M223.256 10.736V12.112H231.56V13.408C231.56 13.792 231.544 14.176 231.544 14.544L223.016 14.64L223.048 15.984L231.48 15.84C231.4 16.912 231.256 17.984 231.016 19.136L232.6 19.328C232.968 17.488 233.144 15.888 233.144 12.848V10.736H223.256ZM227.992 20.928V17.504H226.408V20.928H221.512V22.272H235.048V20.928H227.992ZM235.755 20.928V22.272H249.291V20.928H235.755ZM237.419 10.88V12.256H245.627V13.616C245.627 15.6 245.451 17.44 245.051 19.52L246.635 19.712C247.019 17.696 247.211 15.92 247.211 13.056V10.88H237.419ZM262.301 24.24V9.488H260.717V24.24H262.301ZM251.181 10.704V20.288H253.757C256.205 20.288 257.549 20.208 259.421 19.872L259.245 18.496C257.613 18.784 255.965 18.896 254.205 18.896H252.781V10.704H251.181ZM269.232 17.584C271.648 17.584 273.152 16.016 273.152 14.368V13.632C273.152 11.984 271.648 10.416 269.232 10.416C266.816 10.416 265.312 11.984 265.312 13.632V14.368C265.312 16.016 266.816 17.584 269.232 17.584ZM269.232 16.208C267.888 16.208 266.832 15.312 266.832 14.272V13.728C266.832 12.64 267.888 11.792 269.232 11.792C270.576 11.792 271.632 12.64 271.632 13.728V14.272C271.632 15.312 270.576 16.208 269.232 16.208ZM274.16 19.456C271.504 19.712 268.816 19.808 264.592 19.792V21.168C268.784 21.168 271.6 21.056 274.304 20.784L274.16 19.456ZM276.64 24.24V9.488H275.072V24.24H276.64ZM293.762 19.152H284.098V24.224H293.762V19.152ZM292.194 22.896H285.666V20.48H292.194V22.896ZM282.162 16.48V17.824H295.698V16.48H282.162ZM288.93 9.696C286.13 9.696 284.194 10.704 284.194 12.384V12.832C284.194 14.512 286.13 15.52 288.93 15.52C291.73 15.52 293.666 14.512 293.666 12.832V12.384C293.666 10.704 291.73 9.696 288.93 9.696ZM288.93 14.208C287.074 14.208 285.746 13.632 285.746 12.768V12.448C285.746 11.584 287.074 11.008 288.93 11.008C290.786 11.008 292.114 11.584 292.114 12.448V12.768C292.114 13.632 290.786 14.208 288.93 14.208ZM299.669 21.856C299.669 23.408 301.365 24.656 304.197 24.656C307.029 24.656 308.725 23.408 308.725 21.856V21.216C308.725 19.664 307.029 18.416 304.197 18.416C301.365 18.416 299.669 19.664 299.669 21.216V21.856ZM300.933 14.624C301.029 14.864 301.365 15.216 301.845 15.616C302.613 16.256 303.349 16.864 304.181 17.488L305.109 16.384C304.165 15.696 303.253 14.976 302.501 14.288C301.733 13.584 301.669 13.056 301.669 12.064V10.144H300.069V12.128C300.069 13.248 299.845 13.856 299.029 14.672C298.469 15.232 297.477 16.08 296.453 16.864L297.397 17.984C298.245 17.312 299.189 16.512 299.845 15.904C300.341 15.456 300.837 14.896 300.917 14.624H300.933ZM308.661 18.208V9.488H307.093V12.672H304.133V14.032H307.093V18.208H308.661ZM307.173 21.76C307.173 22.544 306.021 23.36 304.197 23.36C302.373 23.36 301.221 22.544 301.221 21.76V21.312C301.221 20.528 302.373 19.712 304.197 19.712C306.021 19.712 307.173 20.528 307.173 21.312V21.76ZM314.247 10.592C312.119 10.592 310.999 12.016 310.999 14.832V16.4C310.999 19.216 312.119 20.64 314.247 20.64C316.375 20.64 317.495 19.216 317.495 16.4V16.256H319.015V23.52H320.567V9.792H319.015V14.88H317.495V14.832C317.495 12.016 316.375 10.592 314.247 10.592ZM323.495 9.488H321.943V24.24H323.495V9.488ZM314.247 19.248C313.063 19.248 312.503 18.384 312.503 16.224V15.008C312.503 12.848 313.063 12 314.247 12C315.431 12 315.991 12.848 315.991 15.008V16.224C315.991 18.384 315.431 19.248 314.247 19.248ZM337.226 24.24V9.488H335.642V14.048H332.506V15.44H335.642V24.24H337.226ZM329.354 16.832C329.482 17.152 329.866 17.6 330.314 18.08C330.922 18.736 331.642 19.456 332.746 20.48L333.77 19.392C332.81 18.544 332.106 17.872 331.418 17.12C330.442 16.032 330.138 15.376 330.138 14.112V10.56H328.538V14.112C328.538 15.248 328.282 15.968 327.306 17.072C326.586 17.872 325.754 18.688 324.778 19.552L325.818 20.624C326.906 19.632 327.754 18.784 328.41 18.064C328.922 17.504 329.194 17.184 329.338 16.832H329.354ZM345.18 9.632H343.948L342.748 13.28H344.508L345.18 9.632ZM350.639 17.216C350.767 17.536 351.167 17.984 351.615 18.464C352.223 19.12 352.895 19.792 353.983 20.784L355.023 19.712C354.079 18.88 353.407 18.256 352.719 17.504C351.583 16.272 351.407 15.792 351.407 14.528V13.008H354.575V11.632H351.407V9.536H349.807V11.632H346.511V13.008H349.807V14.528C349.807 15.712 349.631 16.32 348.575 17.488C347.855 18.288 347.071 19.072 346.111 19.936L347.151 21.008C348.223 20.016 349.023 19.2 349.679 18.48C350.191 17.92 350.479 17.568 350.623 17.216H350.639ZM358.063 24.24V9.488H356.479V24.24H358.063ZM364.802 14.8C364.914 15.04 365.234 15.344 365.714 15.744C366.482 16.384 367.202 16.928 368.034 17.504L368.93 16.352C367.986 15.728 367.122 15.104 366.37 14.416C365.666 13.776 365.538 13.232 365.538 12.208V11.712H368.498V10.352H360.802V11.712H363.938V12.272C363.938 13.44 363.666 14.048 362.882 14.816C362.306 15.376 361.33 16.112 360.306 16.832L361.234 17.968C362.13 17.344 363.026 16.64 363.714 16.048C364.226 15.616 364.69 15.072 364.786 14.8H364.802ZM362.45 20.192H370.578V24.384H372.162V18.832H362.45V20.192ZM372.162 18.064V9.488H370.594V18.064H372.162ZM376.196 14.192L376.356 10.256H374.628L374.788 14.192H376.196ZM387.965 14.816C388.141 15.184 388.797 15.744 389.837 16.4C390.797 17.008 391.965 17.68 393.149 18.352L393.917 17.12C392.653 16.432 391.725 15.904 390.717 15.248C388.989 14.112 388.749 13.456 388.749 11.888V10.448H387.149V11.888C387.149 13.456 386.813 14.144 385.357 15.136C384.285 15.856 383.277 16.432 381.997 17.136L382.781 18.384C384.109 17.648 385.133 17.024 386.061 16.432C387.133 15.744 387.789 15.184 387.949 14.816H387.965ZM388.733 20.928V17.76H387.149V20.928H381.181V22.272H394.717V20.928H388.733ZM407.631 24.24V9.488H406.047V24.24H407.631ZM403.087 16.176V10.656H396.447V12.016H401.519V14.848H396.495V20.672H399.183C401.839 20.672 403.295 20.544 404.783 20.32L404.639 18.992C402.975 19.232 401.695 19.312 399.567 19.312H398.063V16.176H403.087ZM423.49 14.944H421.218V9.488H419.634V24.24H421.218V16.32H423.49V14.944ZM410.802 20.992C416.642 17.456 416.834 16.576 416.834 13.664V10.864H410.258V12.224H415.266V13.648C415.266 15.92 415.074 16.736 409.97 19.728L410.802 20.992ZM428.388 10.368V17.376C432.676 17.376 434.308 17.28 436.596 16.976L436.436 15.648C434.068 15.952 432.596 16 429.956 16V10.368H428.388ZM441.332 13.424H439.236V9.488H437.668V20H439.236V14.8H441.332V13.424ZM431.812 19.024H430.228V24.08H439.636V22.704H431.812V19.024ZM449.351 10.816H442.567V20.352H444.663C447.063 20.352 448.967 20.224 450.871 19.888L450.663 18.56C448.871 18.832 447.079 18.976 444.999 18.976H444.151V12.192H449.351V10.816ZM455.655 14.816H453.383V9.488H451.799V24.24H453.383V16.192H455.655V14.816ZM457.001 23.072H458.825V21.232H457.001V23.072Z" fill="#777777"/>
<path d="M223.256 38.736V40.112H231.56V41.408C231.56 41.792 231.544 42.176 231.544 42.544L223.016 42.64L223.048 43.984L231.48 43.84C231.4 44.912 231.256 45.984 231.016 47.136L232.6 47.328C232.968 45.488 233.144 43.888 233.144 40.848V38.736H223.256ZM227.992 48.928V45.504H226.408V48.928H221.512V50.272H235.048V48.928H227.992ZM235.755 48.928V50.272H249.291V48.928H235.755ZM237.419 38.88V40.256H245.627V41.616C245.627 43.6 245.451 45.44 245.051 47.52L246.635 47.712C247.019 45.696 247.211 43.92 247.211 41.056V38.88H237.419ZM262.301 52.24V37.488H260.717V52.24H262.301ZM251.181 38.704V48.288H253.757C256.205 48.288 257.549 48.208 259.421 47.872L259.245 46.496C257.613 46.784 255.965 46.896 254.205 46.896H252.781V38.704H251.181ZM269.232 45.584C271.648 45.584 273.152 44.016 273.152 42.368V41.632C273.152 39.984 271.648 38.416 269.232 38.416C266.816 38.416 265.312 39.984 265.312 41.632V42.368C265.312 44.016 266.816 45.584 269.232 45.584ZM269.232 44.208C267.888 44.208 266.832 43.312 266.832 42.272V41.728C266.832 40.64 267.888 39.792 269.232 39.792C270.576 39.792 271.632 40.64 271.632 41.728V42.272C271.632 43.312 270.576 44.208 269.232 44.208ZM274.16 47.456C271.504 47.712 268.816 47.808 264.592 47.792V49.168C268.784 49.168 271.6 49.056 274.304 48.784L274.16 47.456ZM276.64 52.24V37.488H275.072V52.24H276.64ZM282.162 48.928V50.272H295.698V48.928H282.162ZM288.946 43.072C289.122 43.44 289.778 44 290.818 44.656C291.778 45.264 292.946 45.936 294.13 46.608L294.898 45.376C293.634 44.688 292.706 44.16 291.698 43.504C289.97 42.368 289.73 41.712 289.73 40.144V38.528H288.13V40.144C288.13 41.712 287.794 42.4 286.338 43.392C285.266 44.112 284.258 44.688 282.978 45.392L283.762 46.64C285.09 45.904 286.114 45.28 287.042 44.688C288.114 44 288.77 43.44 288.93 43.072H288.946ZM300.597 48.32C302.853 48.32 304.661 48.272 306.213 48.096L306.101 46.816C305.413 46.896 304.709 46.944 304.037 46.976V40.176H305.573V38.88H296.965V40.176H298.501V47.024H296.805V48.32H300.597ZM308.789 52.24V37.488H307.205V52.24H308.789ZM300.053 40.176H302.485V47.024H300.053V40.176ZM322.919 52.24V37.488H321.335V42.512H318.071V38.816H311.511V40.16H316.503V42.448L311.207 42.544L311.255 43.872L316.391 43.728C316.039 44.848 314.887 45.904 311.239 47.92L312.007 49.184C316.343 46.752 317.575 45.488 317.927 43.904H321.335V52.24H322.919ZM328.49 38.592C326.362 38.592 325.242 40.016 325.242 42.832V44.4C325.242 47.216 326.362 48.64 328.49 48.64C330.618 48.64 331.738 47.216 331.738 44.4V44.256H333.258V51.52H334.81V37.792H333.258V42.88H331.738V42.832C331.738 40.016 330.618 38.592 328.49 38.592ZM337.738 37.488H336.186V52.24H337.738V37.488ZM328.49 47.248C327.306 47.248 326.746 46.384 326.746 44.224V43.008C326.746 40.848 327.306 40 328.49 40C329.674 40 330.234 40.848 330.234 43.008V44.224C330.234 46.384 329.674 47.248 328.49 47.248ZM350.364 48.928V46.24C352.7 46 354.54 44.688 354.54 42.672V41.904C354.54 39.68 352.284 38.288 349.58 38.288C346.876 38.288 344.62 39.68 344.62 41.904V42.672C344.62 44.688 346.444 46 348.78 46.24V48.928H342.812V50.272H356.348V48.928H350.364ZM349.58 39.664C351.42 39.664 352.988 40.56 352.988 41.984V42.592C352.988 44.016 351.42 44.912 349.58 44.912C347.74 44.912 346.172 44.016 346.172 42.592V41.984C346.172 40.56 347.74 39.664 349.58 39.664ZM368.974 44.976V43.648H360.526V42.272H368.622V38.24H358.894V39.568H367.054V40.944H358.958V44.976H368.974ZM367.182 52.24V47.664H370.59V46.32H357.054V47.664H360.462V52.24H362.046V47.664H365.598V52.24H367.182ZM385.121 42.944H382.849V37.488H381.265V52.24H382.849V44.32H385.121V42.944ZM372.433 48.992C378.273 45.456 378.465 44.576 378.465 41.664V38.864H371.889V40.224H376.897V41.648C376.897 43.92 376.705 44.736 371.601 47.728L372.433 48.992ZM401.284 52.336V51.024H393.364V49.648H400.868V45.696H391.732V47.008H399.316V48.368H391.812V52.336H401.284ZM396.724 44.416V37.92H395.172V40.048H391.524V37.92H389.972V44.416H396.724ZM402.964 40.48H400.868V37.488H399.3V44.928H400.868V41.856H402.964V40.48ZM391.524 41.344H395.172V43.104H391.524V41.344ZM406.838 49.92C406.838 51.488 408.63 52.656 411.446 52.656C414.262 52.656 416.054 51.472 416.054 49.92V49.28C416.054 47.728 414.262 46.544 411.446 46.544C408.63 46.544 406.838 47.712 406.838 49.28V49.92ZM414.438 40.832H412.934V37.68H411.43V45.776H412.934V42.192H414.438V46.352H415.958V37.488H414.438V40.832ZM407.158 42.928C407.238 43.168 407.558 43.504 407.958 43.904C408.39 44.336 409.03 44.944 409.75 45.552L410.742 44.496C409.974 43.872 409.238 43.248 408.726 42.656C407.99 41.808 407.878 41.152 407.878 40.192V38.24H406.342V40.288C406.342 41.296 406.246 41.824 405.558 42.672C405.142 43.2 404.214 44.064 403.222 44.944L404.23 46.016C405.126 45.232 406.038 44.368 406.454 43.888C406.726 43.584 407.078 43.184 407.142 42.928H407.158ZM414.502 49.824C414.502 50.608 413.254 51.36 411.446 51.36C409.638 51.36 408.39 50.608 408.39 49.808V49.376C408.39 48.592 409.638 47.84 411.446 47.84C413.254 47.84 414.502 48.592 414.502 49.376V49.824ZM428.729 41.056H427.289V37.68H425.785V46.016H427.289V42.416H428.729V46.24H430.249V37.488H428.729V41.056ZM426.985 46.88V47.824C426.985 48.704 426.889 48.912 426.329 49.552C426.025 49.888 425.657 50.176 425.145 50.624C424.633 50.176 424.265 49.888 423.961 49.552C423.401 48.912 423.305 48.704 423.305 47.824V46.88H421.769V47.824C421.769 48.656 421.673 48.928 421.033 49.536C420.489 50.048 419.769 50.624 418.937 51.232L419.801 52.32C420.569 51.744 421.385 51.072 421.801 50.704C422.233 50.32 422.441 50.096 422.537 49.92C422.633 50.112 422.809 50.32 423.161 50.672C423.689 51.184 424.425 51.792 425.145 52.336C425.865 51.792 426.601 51.184 427.129 50.672C427.481 50.32 427.657 50.112 427.753 49.92C427.849 50.096 428.057 50.32 428.489 50.704C428.905 51.072 429.721 51.744 430.489 52.32L431.353 51.232C430.521 50.624 429.801 50.048 429.257 49.536C428.617 48.928 428.521 48.656 428.521 47.824V46.88H426.985ZM421.385 45.888C423.289 45.888 424.457 44.864 424.457 43.728V43.136C424.457 41.984 423.289 40.976 421.385 40.976C419.481 40.976 418.313 41.984 418.313 43.136V43.728C418.313 44.864 419.481 45.888 421.385 45.888ZM417.801 39.152V40.48H424.681V39.152H422.153V37.472H420.617V39.152H417.801ZM421.385 42.208C422.361 42.208 423.049 42.656 423.049 43.28V43.584C423.049 44.208 422.361 44.656 421.385 44.656C420.409 44.656 419.721 44.208 419.721 43.584V43.28C419.721 42.656 420.409 42.208 421.385 42.208ZM439.467 38.816H432.683V48.352H434.779C437.179 48.352 439.083 48.224 440.987 47.888L440.779 46.56C438.987 46.832 437.195 46.976 435.115 46.976H434.267V40.192H439.467V38.816ZM445.771 42.816H443.499V37.488H441.915V52.24H443.499V44.192H445.771V42.816ZM447.118 51.072H448.942V49.232H447.118V51.072Z" fill="#777777"/>
<path d="M158.704 39.832V41.64H155.728V51H153.488V41.64H150.512V39.832H158.704ZM169.282 39.832V51H167.042V46.248H162.258V51H160.018V39.832H162.258V44.424H167.042V39.832H169.282ZM173.407 41.64V44.44H177.167V46.216H173.407V49.176H177.647V51H171.167V39.816H177.647V41.64H173.407ZM188.915 51H186.675L181.603 43.336V51H179.363V39.816H181.603L186.675 47.496V39.816H188.915V51Z" fill="#10DEB9"/>
<circle cx="112" cy="12" r="4" fill="#10DEB9"/>
<circle cx="112" cy="110" r="4" fill="#10DEB9"/>
<circle cx="112" cy="208" r="4" fill="#10DEB9"/>
</svg>
